<?xml version="1.0" encoding="UTF-8" standalone="no"?>
<!-- Created with Inkscape (http://www.inkscape.org/) -->

<svg
   width="35.983379mm"
   height="35.983406mm"
   viewBox="0 0 35.983379 35.983406"
   version="1.1"
   id="svg1"
   xml:space="preserve"
   xmlns="http://www.w3.org/2000/svg"
   xmlns:svg="http://www.w3.org/2000/svg"><defs
     id="defs1" /><g
     id="layer1"
     transform="translate(-134.59582,-107.66074)"><path
       style="fill:#ffffff;stroke-width:1"
       d="m 140.6934,143.4785 c -1.46907,-0.42077 -2.52963,-1.44881 -2.76431,-2.67955 -0.16402,-0.86017 -1.23182,-19.90285 -1.12509,-20.06463 0.14764,-0.22385 31.38398,-0.22385 31.53162,0 0.10661,0.16178 -0.96108,19.20446 -1.1251,20.06463 -0.23794,1.24785 -1.33645,2.29393 -2.83578,2.7004 -0.53448,0.1449 -0.62594,0.14602 -11.82386,0.14455 l -11.28521,-0.002 z m 5.28813,-4.40031 c 0.39261,-0.0914 0.85207,-0.46113 0.95822,-0.77116 0.11598,-0.33856 0.11697,-14.85222 0.001,-15.18004 -0.37044,-1.048 -2.23961,-1.0615 -2.59655,-0.0187 -0.11955,0.34951 -0.12338,14.84994 -0.004,15.19881 0.13618,0.39778 0.73982,0.7984 1.25695,0.83422 0.0479,0.003 0.22084,-0.025 0.38419,-0.0631 z m 6.92971,0 c 0.39264,-0.0914 0.85209,-0.46113 0.95825,-0.77116 0.11597,-0.33856 0.11696,-14.85222 10e-4,-15.18004 -0.37045,-1.048 -2.23961,-1.0615 -2.59655,-0.0187 -0.11955,0.34951 -0.12339,14.84994 -0.004,15.19881 0.13619,0.39778 0.73982,0.7984 1.25696,0.83422 0.0479,0.003 0.22083,-0.025 0.38417,-0.0631 z m 6.92974,0 c 0.39263,-0.0914 0.85209,-0.46113 0.95825,-0.77116 0.11586,-0.33856 0.11697,-14.85222 9.8e-4,-15.18004 -0.37042,-1.048 -2.2396,-1.0615 -2.59653,-0.0187 -0.11955,0.34951 -0.12338,14.84994 -0.004,15.19881 0.13618,0.39778 0.7398,0.7984 1.25695,0.83422 0.0479,0.003 0.22082,-0.025 0.38416,-0.0631 z m -24.59551,-20.88163 c -0.64719,-0.30843 -0.64965,-0.31696 -0.64965,-2.24247 v -1.72193 l 0.26695,-0.45703 c 0.34196,-0.58548 0.9602,-1.08709 1.68178,-1.36456 l 0.56328,-0.21659 4.26612,-0.0201 4.26612,-0.0201 v -0.83347 c 0,-2.91993 1.4006,-3.65958 6.92973,-3.65958 5.52912,0 6.92974,0.73965 6.92974,3.65958 v 0.83347 l 4.26612,0.0201 4.26611,0.0201 0.5633,0.21659 c 0.72158,0.27747 1.33981,0.77908 1.68178,1.36456 l 0.26695,0.45703 0.0274,1.63123 c 0.0304,1.81586 -0.002,1.95502 -0.52874,2.27578 l -0.27822,0.16938 -17.10778,0.0163 -17.10779,0.0162 z m 21.48169,-6.61757 c -0.001,-1.57567 -0.23464,-1.66936 -4.15679,-1.66881 -3.92384,5.3e-4 -4.15841,0.0947 -4.15841,1.66836 v 0.58029 h 4.15784 4.15785 z"
       id="path4" /></g></svg>
