<?xml version="1.0" encoding="UTF-8"?>
<svg version="1.1" xmlns="http://www.w3.org/2000/svg" width="512" height="512">
<path d="M0 0 C7.85551842 5.83064876 10.41035757 12.37221873 12.515625 21.8671875 C12.73624319 24.17854784 12.94496001 26.49108117 13.140625 28.8046875 C13.63698311 32.57974138 13.88867185 34.276383 16.68359375 36.91015625 C19.24107992 38.44011474 21.79088199 39.66617634 24.515625 40.8671875 C28.70243342 42.99521945 30.69395405 45.11760667 33.140625 49.1171875 C33.71039063 50.02984375 34.28015625 50.9425 34.8671875 51.8828125 C38.33329088 58.15793805 40.05263333 63.08249686 39.953125 70.1796875 C39.94700195 70.92444336 39.94087891 71.66919922 39.93457031 72.43652344 C39.69330497 80.97731663 37.21115874 87.43674619 31.515625 93.8671875 C30.835 95.135625 30.835 95.135625 30.140625 96.4296875 C25.55244637 103.31195545 17.18545236 105.12121054 9.515625 106.8671875 C-0.14384572 108.19952829 -10.22321934 105.70893027 -18.484375 100.5546875 C-21.27385773 98.66291198 -21.27385773 98.66291198 -23.984375 98.8671875 C-27.37886198 100.22498229 -30.35204492 101.97596934 -33.484375 103.8671875 C-34.144375 104.1971875 -34.804375 104.5271875 -35.484375 104.8671875 C-36.2857369 107.72459835 -36.98146006 110.53430193 -37.609375 113.4296875 C-37.79113281 114.23599609 -37.97289062 115.04230469 -38.16015625 115.87304688 C-38.60904618 117.86942575 -39.04767243 119.8681073 -39.484375 121.8671875 C-38.55625 122.1559375 -37.628125 122.4446875 -36.671875 122.7421875 C-33.484375 123.8671875 -33.484375 123.8671875 -30.484375 125.8671875 C-30.484375 126.5271875 -30.484375 127.1871875 -30.484375 127.8671875 C-29.95328125 128.0734375 -29.4221875 128.2796875 -28.875 128.4921875 C-25.47664064 130.44679942 -22.97381572 133.08842467 -20.234375 135.8671875 C-19.68007813 136.41375 -19.12578125 136.9603125 -18.5546875 137.5234375 C-14.484375 141.6138008 -14.484375 141.6138008 -14.484375 143.8671875 C-13.494375 144.1971875 -12.504375 144.5271875 -11.484375 144.8671875 C-10.04338222 147.35267813 -8.77179554 149.77824969 -7.546875 152.3671875 C-7.19278564 153.10114746 -6.83869629 153.83510742 -6.47387695 154.59130859 C-5.7770852 156.04139308 -5.08480707 157.49365666 -4.39746094 158.94824219 C-3.68032114 160.45538626 -2.9351491 161.94919542 -2.1796875 163.4375 C6.66715272 181.47408123 7.09391229 206.33462989 0.890625 225.1796875 C0.436875 226.3965625 -0.016875 227.6134375 -0.484375 228.8671875 C0.69898438 228.82078125 1.88234375 228.774375 3.1015625 228.7265625 C22.25880054 228.18934895 22.25880054 228.18934895 29.75 234.85546875 C31.86573604 237.09089058 33.70674054 239.37892939 35.515625 241.8671875 C35.97195313 242.46144531 36.42828125 243.05570313 36.8984375 243.66796875 C40.9119572 249.99698058 40.74515126 258.66049522 39.515625 265.8671875 C38.0163538 269.95874698 36.03177507 273.32570628 33.515625 276.8671875 C32.938125 277.8159375 32.360625 278.7646875 31.765625 279.7421875 C26.24017709 284.96066608 20.46879253 287.1796875 12.890625 287.1796875 C11.09767388 287.10065313 9.30497653 287.00553942 7.515625 286.8671875 C7.12375 288.1253125 6.731875 289.3834375 6.328125 290.6796875 C4.47678406 296.26931302 2.03016974 301.54986957 -0.484375 306.8671875 C-1.144375 306.8671875 -1.804375 306.8671875 -2.484375 306.8671875 C-2.81888672 307.90939453 -2.81888672 307.90939453 -3.16015625 308.97265625 C-8.38855026 320.40109271 -20.0211693 328.57496373 -31.484375 332.8671875 C-40.84854501 336.06123971 -49.27682153 337.44931271 -59.14624023 337.37512207 C-61.09722075 337.38448201 -61.09722075 337.38448201 -63.08761501 337.39403105 C-66.65480055 337.41055292 -70.22155177 337.40255751 -73.78873777 337.39008617 C-77.65249117 337.38096675 -81.5161743 337.39503926 -85.37991333 337.40600586 C-92.93198819 337.42372275 -100.48390336 337.41998174 -108.03598428 337.4083553 C-114.17780119 337.39929421 -120.31957358 337.3981085 -126.46139526 337.40245056 C-127.33802116 337.40306349 -128.21464705 337.40367643 -129.11783737 337.40430793 C-130.89910167 337.40558693 -132.68036595 337.40688378 -134.46163023 337.4081983 C-151.13528372 337.41958408 -167.80884901 337.40652188 -184.48248804 337.38499683 C-198.76603877 337.36712767 -213.04945943 337.37023234 -227.33300781 337.38867188 C-243.95004063 337.41011404 -260.5669963 337.41848563 -277.18404102 337.40622282 C-278.95847892 337.40494872 -280.73291682 337.40369124 -282.50735474 337.40245056 C-283.81668564 337.40152491 -283.81668564 337.40152491 -285.15246767 337.40058056 C-291.28158554 337.39713768 -297.41065416 337.402933 -303.5397644 337.41236877 C-311.01674992 337.4236274 -318.49356762 337.42046795 -325.97053409 337.3992458 C-329.77996087 337.38878705 -333.58910862 337.38452417 -337.39853287 337.39784241 C-341.54009774 337.41210206 -345.68096794 337.39499136 -349.82250977 337.37512207 C-351.60299792 337.3885064 -351.60299792 337.3885064 -353.41945553 337.40216112 C-364.77706352 337.2970367 -375.58859573 334.5700583 -385.484375 328.9296875 C-386.08636719 328.60806641 -386.68835938 328.28644531 -387.30859375 327.95507812 C-393.92256114 324.31811341 -398.46639809 320.29595056 -402.484375 313.8671875 C-403.226875 312.9596875 -403.969375 312.0521875 -404.734375 311.1171875 C-406.484375 308.8671875 -406.484375 308.8671875 -406.484375 306.8671875 C-407.144375 306.8671875 -407.804375 306.8671875 -408.484375 306.8671875 C-409.82372216 303.91154042 -411.15481747 300.9522497 -412.484375 297.9921875 C-412.8659375 297.15042969 -413.2475 296.30867188 -413.640625 295.44140625 C-414.18203125 294.23291016 -414.18203125 294.23291016 -414.734375 293 C-415.06953125 292.25637207 -415.4046875 291.51274414 -415.75 290.74658203 C-416.484375 288.8671875 -416.484375 288.8671875 -416.484375 286.8671875 C-417.23460937 286.92519531 -417.98484375 286.98320312 -418.7578125 287.04296875 C-426.47285103 287.38305231 -432.17962048 286.51694396 -438.484375 281.8671875 C-440.91526797 279.41009956 -442.7049336 276.81994808 -444.484375 273.8671875 C-445.103125 273.01060547 -445.103125 273.01060547 -445.734375 272.13671875 C-448.62735166 267.58630755 -448.86544029 263.03023986 -448.921875 257.7421875 C-448.93202637 257.06091797 -448.94217773 256.37964844 -448.95263672 255.67773438 C-448.87120924 250.96640937 -447.59000047 247.99767473 -445.484375 243.8671875 C-445.49902496 241.45671639 -445.49902496 241.45671639 -446.234375 239.2421875 C-446.43546875 238.50742187 -446.6365625 237.77265625 -446.84375 237.015625 C-447.23626867 235.69925141 -447.63568694 234.38488069 -448.046875 233.07421875 C-449.72557224 224.6057907 -449.77524551 213.49032979 -445.484375 205.8671875 C-440.738292 198.87362076 -434.81562058 194.53664711 -426.484375 192.8671875 C-425.06902722 192.80261871 -423.65099811 192.78107711 -422.234375 192.8046875 C-420.378125 192.835625 -420.378125 192.835625 -418.484375 192.8671875 C-418.505 191.5884375 -418.525625 190.3096875 -418.546875 188.9921875 C-418.59982974 185.70899379 -418.3430339 182.5485936 -417.96484375 179.29296875 C-417.46184733 174.51339677 -417.51002773 169.86203381 -417.65209961 165.0637207 C-418.12587537 147.01666022 -414.80755108 131.4371264 -405.484375 115.8671875 C-404.824375 115.2071875 -404.164375 114.5471875 -403.484375 113.8671875 C-402.4325 113.8671875 -401.380625 113.8671875 -400.296875 113.8671875 C-395.07810684 112.49833028 -393.83288698 109.7528866 -391.0625 105.3125 C-389.68403869 103.17656737 -388.35404464 101.56791108 -386.484375 99.8671875 C-386.814375 98.8771875 -387.144375 97.8871875 -387.484375 96.8671875 C-387.92880322 93.56572076 -388.1870731 91.03921533 -386.42578125 88.1015625 C-383.23196744 84.25859954 -379.50262113 80.99519671 -375.703125 77.765625 C-372.3290835 74.87868104 -369.06393101 71.87277037 -365.78125 68.8828125 C-360.06577035 63.8671875 -360.06577035 63.8671875 -357.484375 63.8671875 C-357.484375 63.2071875 -357.484375 62.5471875 -357.484375 61.8671875 C-356.85273438 61.53847656 -356.22109375 61.20976562 -355.5703125 60.87109375 C-350.01248057 57.91599291 -344.67890653 54.7567235 -339.421875 51.3046875 C-333.20406552 47.23952188 -326.9352384 43.32670253 -319.83984375 41 C-317.09993879 40.07500298 -314.48199076 39.06115281 -311.81640625 37.94921875 C-280.70722108 25.08008585 -250.77789289 20.80468159 -217.421875 20.7421875 C-216.22285049 20.73816925 -216.22285049 20.73816925 -214.99960327 20.73406982 C-199.38257512 20.69448091 -183.7011075 20.70458511 -168.359375 23.9296875 C-167.3187793 24.14375244 -166.27818359 24.35781738 -165.20605469 24.57836914 C-150.07196434 27.85635937 -135.06586284 32.66301834 -121.16796875 39.54296875 C-118.3922283 40.95679786 -118.3922283 40.95679786 -115.03125 42.2421875 C-111.30380452 43.94991582 -108.53556572 46.05626894 -105.296875 48.5546875 C-97.81551326 53.85602224 -90.92647067 53.571033 -82.05078125 52.98828125 C-77.73261078 52.72885889 -74.56718528 53.49406844 -70.484375 54.8671875 C-65.98803801 54.8671875 -62.49075871 52.44015721 -59.02734375 49.75 C-57.30107796 47.97474311 -57.30107796 47.97474311 -57.16015625 45.609375 C-57.49088578 42.61800041 -58.19842916 39.85778558 -59.03125 36.97265625 C-61.43788238 25.79011441 -58.54008223 15.75770542 -52.921875 6.1171875 C-39.99300283 -12.10076873 -16.79121549 -11.30358361 0 0 Z " fill="#010101" transform="translate(460.484375,163.1328125)"/>
<path d="M0 0 C0 0.33 0 0.66 0 1 C-0.90443848 1.25632202 -0.90443848 1.25632202 -1.82714844 1.51782227 C-8.1109132 3.34442762 -14.16678154 5.53456902 -20.25 7.9375 C-27.58947914 10.80402544 -34.81701815 13.24969006 -42.48046875 15.11328125 C-45.31990972 15.82909146 -45.31990972 15.82909146 -47 19 C-46.91778291 22.07665027 -46.91778291 22.07665027 -46 25 C-41.58672794 27.94218138 -38.07743554 26.87081882 -33 26 C-29.29195782 25.12751949 -25.64970537 24.08814326 -22 23 C-20.87464844 22.69191406 -19.74929688 22.38382813 -18.58984375 22.06640625 C-15.04241685 21.01260043 -11.6792205 19.76375672 -8.25 18.375 C-7.62311279 18.12210205 -6.99622559 17.8692041 -6.3503418 17.60864258 C-2.53319888 16.05999965 1.26555504 14.46998975 5.05859375 12.86328125 C5.9103418 12.50250488 6.76208984 12.14172852 7.63964844 11.77001953 C9.31224501 11.05937434 10.98351876 10.345606 12.65332031 9.62841797 C13.4212793 9.30115723 14.18923828 8.97389648 14.98046875 8.63671875 C15.99983521 8.19912231 15.99983521 8.19912231 17.03979492 7.75268555 C24.11365239 5.0364441 31.9637006 5.16558964 39 8 C44.9253142 11.23805903 50.66075342 14.76297826 55 20 C55 20.66 55 21.32 55 22 C55.66 22 56.32 22 57 22 C60.35046825 28.36915001 61.72068331 33.68835151 61.625 40.875 C61.61025635 42.190448 61.61025635 42.190448 61.59521484 43.5324707 C61.27578117 52.37423088 58.79919539 58.15233002 52.55078125 64.48046875 C50.8900597 66.00217624 49.19725106 67.49011997 47.46484375 68.9296875 C44.94594047 70.98240844 44.94594047 70.98240844 42.61328125 73.40234375 C39.09368609 76.90089499 35.29217113 80.00505485 31.46484375 83.15820312 C28.28191831 85.69798928 28.28191831 85.69798928 26 89 C24.16182278 89.4823377 22.30268835 89.88583306 20.4375 90.25 C12.33907912 92.17361541 6.65745798 96.03922135 2.02734375 102.9921875 C0.3973503 106.17780207 -0.52456116 109.50732259 -1.421875 112.9609375 C-2 115 -2 115 -3 116 C-4.76586914 116.02172852 -4.76586914 116.02172852 -7.03515625 115.87890625 C-8.24848633 115.80639648 -8.24848633 115.80639648 -9.48632812 115.73242188 C-10.33646484 115.67634766 -11.18660156 115.62027344 -12.0625 115.5625 C-12.91650391 115.51029297 -13.77050781 115.45808594 -14.65039062 115.40429688 C-16.76721995 115.27421239 -18.88365244 115.13770029 -21 115 C-21 114.34 -21 113.68 -21 113 C-24.09473031 111.43084097 -27.22200256 109.9484358 -30.375 108.5 C-31.29023438 108.0771875 -32.20546875 107.654375 -33.1484375 107.21875 C-41.85325431 103.49833514 -51.60114939 101.94300561 -60.6875 105.5 C-61.780625 105.995 -62.87375 106.49 -64 107 C-64.99 107 -65.98 107 -67 107 C-68.68359375 104.76953125 -68.68359375 104.76953125 -70.4375 101.8125 C-73.85717812 96.0977359 -76.93176689 91.36777355 -82.625 87.75 C-83.40101563 87.24984375 -84.17703125 86.7496875 -84.9765625 86.234375 C-88.79719691 83.9036405 -91.63209685 83.72341202 -96.125 83.4375 C-97.40632812 83.35371094 -98.68765625 83.26992188 -100.0078125 83.18359375 C-100.99523437 83.12300781 -101.98265625 83.06242187 -103 83 C-103.51464139 68.8473619 -98.20228976 59.01709649 -89.1875 48.125 C-84.77625859 43.383133 -79.54759244 40.25582788 -74 37 C-70.3114591 34.73948974 -70.3114591 34.73948974 -67 32 C-66.74996036 28.54178598 -66.74996036 28.54178598 -67 25 C-68.77163007 22.81334164 -68.77163007 22.81334164 -71.0234375 22.76953125 C-71.79945313 22.78371094 -72.57546875 22.79789063 -73.375 22.8125 C-74.14585937 22.81894531 -74.91671875 22.82539063 -75.7109375 22.83203125 C-77.91889344 22.99404849 -79.87535332 23.39365106 -82 24 C-82 24.66 -82 25.32 -82 26 C-83.6171875 27.19140625 -83.6171875 27.19140625 -85.875 28.5625 C-102.78086878 39.61226063 -113.19778781 56.05461974 -117.46484375 75.734375 C-117.98581828 78.91346045 -118.1846876 81.97157514 -118.3125 85.1875 C-118.72202934 91.66318274 -121.42422433 95.73991689 -125 101 C-128.60621227 107.00625115 -130.37827355 113.3972588 -132.16796875 120.12109375 C-133 123 -133 123 -134 124 C-137.1875 124.5625 -137.1875 124.5625 -141 124 C-142.66728763 122.18400833 -143.91327712 120.22275648 -145.2734375 118.16796875 C-148.37825497 114.26938573 -152.62526881 112.2400309 -157 110 C-158.11375 109.4225 -159.2275 108.845 -160.375 108.25 C-164.63180462 106.78213634 -168.77069505 106.17459984 -173.23046875 105.625 C-176.35547959 104.91977894 -177.88410176 104.4239407 -180 102 C-180.90396645 96.66659793 -179.63394175 93.72147017 -176.64599609 89.50854492 C-176.18531738 88.8869751 -175.72463867 88.26540527 -175.25 87.625 C-174.32627307 86.30388581 -173.4069497 84.97968104 -172.4921875 83.65234375 C-172.05616211 83.02183105 -171.62013672 82.39131836 -171.17089844 81.74169922 C-166.73952483 75.15007717 -164.75360312 68.95381104 -166 61 C-168.15980268 53.80491769 -172.99654296 49.38043392 -179.3125 45.625 C-189.61217318 43.22972717 -197.71339224 46.77760312 -207 51 C-207.6801416 51.30502441 -208.3602832 51.61004883 -209.06103516 51.92431641 C-214.08743964 54.18955564 -219.05201161 56.5688624 -224 59 C-224.72010254 59.34933594 -225.44020508 59.69867188 -226.18212891 60.05859375 C-236.21452748 64.96362139 -244.91693327 70.5539016 -253.46582031 77.73486328 C-255.68883605 79.56803762 -258.01024598 81.26799659 -260.3125 83 C-264.07160507 85.93527522 -266.5556781 89.05697352 -269.3125 92.9375 C-271.92390362 96.32438305 -273.17595848 97.78172996 -277.34765625 98.88671875 C-280.59430349 99.10603822 -283.75016765 99.08102075 -287 99 C-288.485 99.495 -288.485 99.495 -290 100 C-290.24567773 93.23703796 -289.45903416 87.4688089 -287.75 80.9375 C-287.54503906 80.09123047 -287.34007812 79.24496094 -287.12890625 78.37304688 C-285.87996754 73.46433926 -284.28332763 69.15588128 -281.82104492 64.72412109 C-280.54045323 62.03499277 -280.52771302 59.90119148 -281 57 C-282.37506099 55.12109566 -282.37506099 55.12109566 -284 54 C-281.89387284 47.68161853 -277.86089699 41.34908399 -272 38 C-269.66666667 38.33333333 -267.33333333 38.66666667 -265 39 C-262.26286616 37.44418897 -262.26286616 37.44418897 -260 35 C-259.236875 34.2575 -258.47375 33.515 -257.6875 32.75 C-256.25141092 31.2805135 -254.82105663 29.80454565 -253.43359375 28.2890625 C-247.03928144 21.52186373 -239.59555177 16.31651716 -232 11 C-231.01676758 10.30559814 -231.01676758 10.30559814 -230.01367188 9.59716797 C-223.40180332 4.95014714 -217.08872045 0.60612967 -209.4140625 -2.09375 C-206.70369196 -3.11123538 -204.24574902 -4.39520897 -201.6875 -5.75 C-195.99952106 -8.65323925 -190.15432984 -10.98036394 -184.1875 -13.25 C-182.84401489 -13.76191895 -182.84401489 -13.76191895 -181.47338867 -14.28417969 C-168.82866861 -19.0246231 -168.82866861 -19.0246231 -162.625 -19.5 C-159.60877262 -19.73291331 -156.75928265 -20.2580369 -153.81640625 -20.93359375 C-102.19958887 -32.69559804 -45.92172572 -26.51817964 0 0 Z " fill="#AE5F2C" transform="translate(348,224)"/>
<path d="M0 0 C0.74578701 -0.00436032 1.49157401 -0.00872064 2.25996062 -0.0132131 C4.75502599 -0.02414762 7.24953624 -0.01375597 9.74459743 -0.00342751 C11.5530281 -0.00688478 13.36145666 -0.01164981 15.16988081 -0.01760924 C20.13642837 -0.03013921 25.10280311 -0.02393974 30.06935132 -0.01465058 C35.42659659 -0.00786869 40.78381194 -0.01833703 46.14105129 -0.02659035 C56.63446629 -0.03993876 67.12781695 -0.03704507 77.62123448 -0.02835242 C86.14791014 -0.02158102 94.67456774 -0.02065681 103.20124531 -0.02392387 C104.41417276 -0.02438357 105.62710022 -0.02484327 106.87678305 -0.0253169 C109.34070393 -0.02627606 111.80462481 -0.0272487 114.26854568 -0.02823468 C137.37900723 -0.03679172 160.4894331 -0.0269493 183.59988879 -0.01083358 C203.43764788 0.00257158 223.27535431 0.00024048 243.11311245 -0.01358986 C266.14166504 -0.02963718 289.17018636 -0.03596951 312.19874376 -0.02675307 C314.65336382 -0.0257974 317.10798388 -0.02485429 319.56260395 -0.02392387 C320.77037506 -0.02346105 321.97814617 -0.02299822 323.22251641 -0.02252137 C331.74127824 -0.01992906 340.26002026 -0.02430762 348.77877903 -0.03136253 C359.1568678 -0.03976823 369.53488847 -0.0375169 379.91296942 -0.0215203 C385.20987148 -0.01362534 390.50665994 -0.0105669 395.80356121 -0.02046776 C400.64993317 -0.02938964 405.49608592 -0.0245232 410.34243792 -0.0085351 C412.09804167 -0.00517668 413.85366384 -0.00690509 415.6092558 -0.01416247 C417.99172705 -0.0232578 420.37344307 -0.01395634 422.75587463 0 C423.44081492 -0.0070235 424.12575521 -0.014047 424.83145127 -0.02128333 C429.37146804 0.03203428 432.45278738 1.01203939 436.31501675 3.37752342 C440.47922355 7.99191475 441.73746638 10.9383144 441.65876675 17.05721092 C441.08480008 20.93148593 439.13986646 22.79831282 436.31501675 25.37752342 C430.95549587 28.83055767 426.2853357 28.8135867 420.11872768 28.79402733 C418.60067532 28.80690536 418.60067532 28.80690536 417.05195522 28.82004356 C413.71769626 28.84507246 410.38373599 28.84947917 407.04939175 28.85408592 C404.73104347 28.86839659 402.41270372 28.88415372 400.09437466 28.90129662 C393.99931939 28.94312886 387.90431693 28.96814214 381.80915737 28.98879051 C372.03870585 29.02462697 362.26838439 29.08547713 352.49806881 29.14727974 C349.08009787 29.16641403 345.66216178 29.17811119 342.24415493 29.18871117 C340.1606784 29.19891845 338.0772026 29.20927596 335.99372768 29.21980858 C335.0378677 29.22085091 334.08200771 29.22189323 333.09718227 29.22296715 C332.22803188 29.22842049 331.35888149 29.23387383 330.46339321 29.23949242 C329.70609795 29.24204851 328.94880268 29.24460461 328.16855907 29.24723816 C326.2202475 29.26515868 326.2202475 29.26515868 324.31501675 30.37752342 C323.03740221 36.54894577 323.03740221 36.54894577 325.31501675 42.37752342 C352.04501675 42.70752342 378.77501675 43.03752342 406.31501675 43.37752342 C403.29082601 56.98638176 396.55209265 64.44961148 385.31501675 72.37752342 C374.54110988 78.64517769 363.70696599 79.67793944 351.44892788 79.63821983 C350.18562161 79.64204538 348.92231534 79.64587093 347.62072706 79.6498124 C344.13950867 79.66003959 340.65839386 79.65792418 337.17716718 79.65363181 C333.41296085 79.65115499 329.64877886 79.66019047 325.88458157 79.6676693 C318.5205031 79.68039098 311.15646114 79.68221322 303.79237354 79.67986903 C297.80537471 79.6780832 291.81838693 79.6798412 285.83138943 79.68409348 C284.97804493 79.68468866 284.12470044 79.68528385 283.24549702 79.68589708 C281.51173667 79.68710887 279.77797632 79.68832301 278.04421598 79.68953945 C261.80136342 79.70040484 245.55853166 79.698257 229.31567794 79.69215461 C214.46619863 79.68698403 199.61678489 79.69824639 184.76731855 79.71725283 C169.50499999 79.73663741 154.24271244 79.74488629 138.98038149 79.74112958 C130.41763398 79.73921877 121.8549423 79.74169353 113.29220486 79.75584412 C106.00425127 79.76776664 98.71638791 79.76915289 91.42843306 79.75705395 C87.71272713 79.75117192 83.99718615 79.75004708 80.28149128 79.76205635 C76.24789913 79.77494131 72.21469834 79.76443505 68.18110561 79.75174522 C66.4315755 79.76280665 66.4315755 79.76280665 64.64670134 79.77409154 C51.26280265 79.68561295 40.2715754 75.49269231 30.19001675 66.75252342 C29.27989834 65.96518822 29.27989834 65.96518822 28.3513937 65.16194725 C21.19924644 58.76011313 17.57943323 52.93840899 16.31501675 43.37752342 C16.912697 43.37692633 17.51037725 43.37632925 18.12616903 43.37571406 C53.52397123 43.3398455 88.92168089 43.28324574 124.31940325 43.19960247 C128.56655727 43.18958462 132.81371168 43.17974056 137.06086636 43.17000389 C138.32920193 43.16709183 138.32920193 43.16709183 139.62316044 43.16412094 C153.32693264 43.13307225 167.03068807 43.1161123 180.73448882 43.1043292 C194.78851548 43.09193247 208.84245395 43.06446463 222.89642495 43.02291036 C231.57341204 42.99773246 240.25025297 42.98440926 248.92727711 42.98609385 C254.87177505 42.98612353 260.81612373 42.97155734 266.76056353 42.94535914 C270.19385521 42.93066387 273.6268408 42.92255192 277.06015873 42.93172073 C280.77726393 42.9383025 284.49346475 42.92057896 288.21047878 42.89650536 C289.30287863 42.90426577 290.39527847 42.91202619 291.52078134 42.92002177 C292.51255543 42.90857418 293.50432953 42.89712659 294.52615738 42.88533211 C295.81397888 42.88305379 295.81397888 42.88305379 297.12781698 42.88072944 C299.46525108 42.54642965 299.46525108 42.54642965 301.12213296 40.57234788 C302.92644913 37.25252972 302.23965706 34.94399322 301.31501675 31.37752342 C298.00443185 29.17046683 297.01665174 29.12743986 293.16810036 29.12698364 C292.09642496 29.12198495 291.02474957 29.11698625 289.92059916 29.11183608 C288.73890928 29.11649929 287.55721939 29.1211625 286.33972073 29.12596703 C285.08774027 29.12299689 283.83575982 29.12002675 282.54584056 29.11696661 C279.06388336 29.1089069 275.58203321 29.11324268 272.10007632 29.11948538 C268.34741466 29.12400974 264.59477373 29.11698388 260.84211636 29.11118126 C254.33676005 29.10253874 247.83143095 29.10074243 241.32606983 29.10312843 C231.91381283 29.10622217 222.50161613 29.09460087 213.08937428 29.07857864 C197.81083406 29.05260064 182.5322938 29.03259032 167.25373745 29.01912498 C166.33888908 29.01831461 165.42404071 29.01750424 164.48146967 29.01666932 C151.49995336 29.00544902 138.51844133 29.00016714 125.53692082 28.99728219 C124.62298203 28.9970782 123.70904323 28.99687422 122.76740932 28.99666405 C121.85458227 28.99646411 120.94175522 28.99626418 120.00126674 28.99605818 C104.78436315 28.99232642 89.56752485 28.97324852 74.35065395 28.94156969 C64.96176972 28.92264188 55.5730528 28.9167017 46.18415473 28.92738687 C39.75050753 28.93370146 33.31698037 28.92567821 26.88335951 28.90633275 C23.17018403 28.89563972 19.45729994 28.8915176 15.74412632 28.90480423 C11.7195939 28.91906049 7.69577382 28.90255098 3.67126369 28.8830471 C1.90876712 28.89673409 1.90876712 28.89673409 0.11066455 28.91069758 C-6.14195631 28.85153542 -9.92890229 28.57499762 -14.68498325 24.37752342 C-15.28310825 23.86189842 -15.88123325 23.34627342 -16.49748325 22.81502342 C-18.99502782 19.79168 -19.02818215 16.29447335 -18.95842075 12.50642967 C-18.49837106 8.92461416 -17.26141546 5.92812673 -14.68498325 3.37752342 C-9.67920868 0.85168771 -5.62810422 -0.05790951 0 0 Z " fill="#D9F1FC" transform="translate(44.684983253479004,406.6224765777588)"/>
<path d="M0 0 C0.74578701 -0.00436032 1.49157401 -0.00872064 2.25996062 -0.0132131 C4.75502599 -0.02414762 7.24953624 -0.01375597 9.74459743 -0.00342751 C11.5530281 -0.00688478 13.36145666 -0.01164981 15.16988081 -0.01760924 C20.13642837 -0.03013921 25.10280311 -0.02393974 30.06935132 -0.01465058 C35.42659659 -0.00786869 40.78381194 -0.01833703 46.14105129 -0.02659035 C56.63446629 -0.03993876 67.12781695 -0.03704507 77.62123448 -0.02835242 C86.14791014 -0.02158102 94.67456774 -0.02065681 103.20124531 -0.02392387 C104.41417276 -0.02438357 105.62710022 -0.02484327 106.87678305 -0.0253169 C109.34070393 -0.02627606 111.80462481 -0.0272487 114.26854568 -0.02823468 C137.37900723 -0.03679172 160.4894331 -0.0269493 183.59988879 -0.01083358 C203.43764788 0.00257158 223.27535431 0.00024048 243.11311245 -0.01358986 C266.14166504 -0.02963718 289.17018636 -0.03596951 312.19874376 -0.02675307 C314.65336382 -0.0257974 317.10798388 -0.02485429 319.56260395 -0.02392387 C320.77037506 -0.02346105 321.97814617 -0.02299822 323.22251641 -0.02252137 C331.74127824 -0.01992906 340.26002026 -0.02430762 348.77877903 -0.03136253 C359.1568678 -0.03976823 369.53488847 -0.0375169 379.91296942 -0.0215203 C385.20987148 -0.01362534 390.50665994 -0.0105669 395.80356121 -0.02046776 C400.64993317 -0.02938964 405.49608592 -0.0245232 410.34243792 -0.0085351 C412.09804167 -0.00517668 413.85366384 -0.00690509 415.6092558 -0.01416247 C417.99172705 -0.0232578 420.37344307 -0.01395634 422.75587463 0 C423.44081492 -0.0070235 424.12575521 -0.014047 424.83145127 -0.02128333 C429.37146804 0.03203428 432.45278738 1.01203939 436.31501675 3.37752342 C440.47922355 7.99191475 441.73746638 10.9383144 441.65876675 17.05721092 C441.08480008 20.93148593 439.13986646 22.79831282 436.31501675 25.37752342 C430.95549587 28.83055767 426.2853357 28.8135867 420.11872768 28.79402733 C418.60067532 28.80690536 418.60067532 28.80690536 417.05195522 28.82004356 C413.71769626 28.84507246 410.38373599 28.84947917 407.04939175 28.85408592 C404.73104347 28.86839659 402.41270372 28.88415372 400.09437466 28.90129662 C393.99931939 28.94312886 387.90431693 28.96814214 381.80915737 28.98879051 C372.03870585 29.02462697 362.26838439 29.08547713 352.49806881 29.14727974 C349.08009787 29.16641403 345.66216178 29.17811119 342.24415493 29.18871117 C340.1606784 29.19891845 338.0772026 29.20927596 335.99372768 29.21980858 C335.0378677 29.22085091 334.08200771 29.22189323 333.09718227 29.22296715 C332.22803188 29.22842049 331.35888149 29.23387383 330.46339321 29.23949242 C329.70609795 29.24204851 328.94880268 29.24460461 328.16855907 29.24723816 C326.2202475 29.26515868 326.2202475 29.26515868 324.31501675 30.37752342 C323.65501675 32.35752342 322.99501675 34.33752342 322.31501675 36.37752342 C316.04501675 36.37752342 309.77501675 36.37752342 303.31501675 36.37752342 C302.32501675 34.39752342 301.33501675 32.41752342 300.31501675 30.37752342 C297.80401546 29.12202278 296.10238651 29.25151417 293.29114819 29.25003147 C292.22146384 29.24702382 291.15177949 29.24401617 290.04968047 29.24091738 C288.86507775 29.24266776 287.68047502 29.24441813 286.45997524 29.24622154 C285.20884921 29.24410583 283.95772318 29.24199011 282.66868424 29.23981029 C279.91348449 29.23520358 277.15830722 29.23379431 274.40310383 29.23477554 C269.92075494 29.2363649 265.43842847 29.23117354 260.95608425 29.22514915 C254.44798953 29.21702757 247.93989874 29.21208935 241.43179989 29.20885849 C231.14686332 29.20336757 220.86196002 29.18647574 210.57704067 29.16751671 C207.06009966 29.16115959 203.54315856 29.15485121 200.02621746 29.14853954 C199.14722895 29.14695578 198.26824045 29.14537202 197.36261593 29.14374026 C187.35147198 29.12579486 177.34032567 29.10957292 167.3291769 29.09456444 C166.41376303 29.09318857 165.49834916 29.09181269 164.55519548 29.09039513 C149.72193268 29.06846691 134.8886784 29.05770966 120.05540225 29.05019369 C104.83400456 29.04212543 89.61268014 29.01884379 74.39132428 28.98224002 C64.99867692 28.96020016 55.60618014 28.9505549 46.21350822 28.95674036 C39.77657356 28.95991259 33.33976756 28.94860047 26.90287271 28.92584594 C23.18768485 28.91316567 19.47278358 28.90702309 15.75758457 28.91826248 C11.73079696 28.93028804 7.7047393 28.91153959 3.67799282 28.88977623 C2.50231298 28.89821877 1.32663314 28.9066613 0.11532664 28.91535968 C-6.137628 28.85265798 -9.92857026 28.57519027 -14.68498325 24.37752342 C-15.28310825 23.86189842 -15.88123325 23.34627342 -16.49748325 22.81502342 C-18.99502782 19.79168 -19.02818215 16.29447335 -18.95842075 12.50642967 C-18.49837106 8.92461416 -17.26141546 5.92812673 -14.68498325 3.37752342 C-9.67920868 0.85168771 -5.62810422 -0.05790951 0 0 Z " fill="#C1E9FA" transform="translate(44.684983253479004,406.6224765777588)"/>
<path d="M0 0 C3.89019087 2.59346058 7.32615096 5.08328564 10.3125 8.6875 C10.3125 9.3475 10.3125 10.0075 10.3125 10.6875 C10.9725 10.6875 11.6325 10.6875 12.3125 10.6875 C15.66296825 17.05665001 17.03318331 22.37585151 16.9375 29.5625 C16.92275635 30.877948 16.92275635 30.877948 16.90771484 32.2199707 C16.58828117 41.06173088 14.11169539 46.83983002 7.86328125 53.16796875 C6.2025597 54.68967624 4.50975106 56.17761997 2.77734375 57.6171875 C0.25844047 59.66990844 0.25844047 59.66990844 -2.07421875 62.08984375 C-5.59381391 65.58839499 -9.39532887 68.69255485 -13.22265625 71.84570312 C-16.40558169 74.38548928 -16.40558169 74.38548928 -18.6875 77.6875 C-20.52567722 78.1698377 -22.38481165 78.57333306 -24.25 78.9375 C-32.34842088 80.86111541 -38.03004202 84.72672135 -42.66015625 91.6796875 C-44.2901497 94.86530207 -45.21206116 98.19482259 -46.109375 101.6484375 C-46.6875 103.6875 -46.6875 103.6875 -47.6875 104.6875 C-49.45336914 104.70922852 -49.45336914 104.70922852 -51.72265625 104.56640625 C-52.53154297 104.51806641 -53.34042969 104.46972656 -54.17382812 104.41992188 C-55.4490332 104.33581055 -55.4490332 104.33581055 -56.75 104.25 C-57.60400391 104.19779297 -58.45800781 104.14558594 -59.33789062 104.09179688 C-61.45471995 103.96171239 -63.57115244 103.82520029 -65.6875 103.6875 C-65.6875 103.0275 -65.6875 102.3675 -65.6875 101.6875 C-68.78223031 100.11834097 -71.90950256 98.6359358 -75.0625 97.1875 C-75.97773438 96.7646875 -76.89296875 96.341875 -77.8359375 95.90625 C-86.54075431 92.18583514 -96.28864939 90.63050561 -105.375 94.1875 C-106.468125 94.6825 -107.56125 95.1775 -108.6875 95.6875 C-109.6775 95.6875 -110.6675 95.6875 -111.6875 95.6875 C-113.37109375 93.45703125 -113.37109375 93.45703125 -115.125 90.5 C-118.54467812 84.7852359 -121.61926689 80.05527355 -127.3125 76.4375 C-128.47652344 75.68726563 -128.47652344 75.68726563 -129.6640625 74.921875 C-133.48469691 72.5911405 -136.31959685 72.41091202 -140.8125 72.125 C-142.73449219 71.99931641 -142.73449219 71.99931641 -144.6953125 71.87109375 C-145.68273437 71.81050781 -146.67015625 71.74992187 -147.6875 71.6875 C-148.20214139 57.5348619 -142.88978976 47.70459649 -133.875 36.8125 C-129.00932374 31.58213795 -123.0106073 28.01532701 -116.7578125 24.6484375 C-114.45222203 23.32931857 -112.88591475 22.40237666 -112.15625 19.7734375 C-111.92421875 18.70996094 -111.92421875 18.70996094 -111.6875 17.625 C-111.05859375 15.53125 -111.05859375 15.53125 -109.6875 13.6875 C-104.31918484 11.61201756 -97.27567489 9.36018952 -91.6875 11.6875 C-91.15125 12.38875 -90.615 13.09 -90.0625 13.8125 C-87.2532802 16.0303051 -86.57942589 15.91423313 -83.125 15.625 C-77.50782216 14.81307754 -72.11745838 13.30641769 -66.6875 11.6875 C-64.99947266 11.22537109 -64.99947266 11.22537109 -63.27734375 10.75390625 C-59.72991685 9.70010043 -56.3667205 8.45125672 -52.9375 7.0625 C-52.31061279 6.80960205 -51.68372559 6.5567041 -51.0378418 6.29614258 C-47.22069888 4.74749965 -43.42194496 3.15748975 -39.62890625 1.55078125 C-38.35128418 1.0096167 -38.35128418 1.0096167 -37.04785156 0.45751953 C-35.37525499 -0.25312566 -33.70398124 -0.966894 -32.03417969 -1.68408203 C-31.2662207 -2.01134277 -30.49826172 -2.33860352 -29.70703125 -2.67578125 C-29.02745361 -2.96751221 -28.34787598 -3.25924316 -27.64770508 -3.55981445 C-17.92250235 -7.29412757 -8.6212388 -5.31604537 0 0 Z " fill="#AE5F2C" transform="translate(392.6875,235.3125)"/>
<path d="M0 0 C1.02085693 0.02481445 2.04171387 0.04962891 3.09350586 0.07519531 C11.86186102 0.34746604 20.46483941 1.13487928 29.125 2.5 C29.96353516 2.62358887 30.80207031 2.74717773 31.66601562 2.87451172 C54.48106412 6.28684221 74.2206418 14.005934 94.125 25.5 C94.125 25.83 94.125 26.16 94.125 26.5 C93.22056152 26.75632202 93.22056152 26.75632202 92.29785156 27.01782227 C86.01422631 28.84438707 79.95764655 31.03331434 73.875 33.4375 C66.55990217 36.30975738 59.43947289 38.6774866 51.7421875 40.3203125 C48.82704642 41.28361179 48.82704642 41.28361179 47.8203125 44.45703125 C45.91925173 47.86930392 45.54704869 48.03852041 42 49.06640625 C40.38064125 49.42494074 38.75505068 49.75622475 37.125 50.0625 C36.30515625 50.25134766 35.4853125 50.44019531 34.640625 50.63476562 C30.11512352 51.57018382 30.11512352 51.57018382 28.125 51.5 C26.49975586 50.04370117 26.49975586 50.04370117 25.125 48.5 C22.9796771 48.10076238 22.9796771 48.10076238 20.6875 48.25 C19.92566406 48.26546875 19.16382813 48.2809375 18.37890625 48.296875 C16.19888739 48.49334117 14.22816396 48.90594002 12.125 49.5 C12.125 50.16 12.125 50.82 12.125 51.5 C10.5078125 52.69140625 10.5078125 52.69140625 8.25 54.0625 C-8.65586878 65.11226063 -19.07278781 81.55461974 -23.33984375 101.234375 C-23.86081828 104.41346045 -24.0596876 107.47157514 -24.1875 110.6875 C-24.59702934 117.16318274 -27.29922433 121.23991689 -30.875 126.5 C-34.98353665 133.34288698 -36.85266491 140.84094371 -38.875 148.5 C-40.195 148.83 -41.515 149.16 -42.875 149.5 C-43.50458174 147.98105765 -44.12840464 146.45972805 -44.75 144.9375 C-45.09804687 144.09058594 -45.44609375 143.24367188 -45.8046875 142.37109375 C-56.5350744 113.5870267 -55.67870804 75.44540964 -42.96289062 47.49511719 C-39.54604276 40.17378748 -35.94974 33.05307932 -31.19921875 26.4921875 C-29.75569378 24.41512993 -29.75569378 24.41512993 -28.47265625 21.6328125 C-26.78237774 18.31837884 -24.84637537 15.48254595 -22.625 12.5 C-21.89796875 11.51 -21.1709375 10.52 -20.421875 9.5 C-13.95548556 1.88314864 -10.17783195 -0.44856322 0 0 Z " fill="#C66C32" transform="translate(253.875,198.5)"/>
<path d="M0 0 C3.66556939 1.23163131 6.74586255 2.9330201 10 5 C11.0725 5.556875 12.145 6.11375 13.25 6.6875 C18.55747042 11.15060012 22.47381566 17.89472941 23.81640625 24.74609375 C24.69881433 35.57906103 22.39837061 44.97765506 16.4375 54 C12.26706685 60.38436679 9.73707404 68.35228166 11 76 C12.49730135 81.48205493 14.48422464 86.44371764 17.625 91.1875 C22.18846008 98.12395933 22.88919882 105.83455234 22 114 C18.93426259 126.78444104 13.0833192 134.0129879 2 141 C-3.90857616 143.72703515 -10.51776235 145.11549023 -17 144 C-20.43520951 142.31362442 -22.34382218 140.95692599 -24.5 137.8125 C-25.24964087 133.59577009 -24.13354831 130.07667675 -23 126 C-20.25653129 116.10522284 -20.77086992 109.33771228 -25 100 C-25.99223804 98.3367707 -27.01309086 96.69026181 -28.0625 95.0625 C-34.65996136 84.4898594 -35.45418099 72.14092509 -33 60.125 C-31.47064151 54.4951876 -28.81891067 49.89783443 -25.85375977 44.93676758 C-20.50824614 35.93650185 -20.66049663 28.4945767 -22.47265625 18.35546875 C-23.38098304 12.6144907 -22.84540004 9.50437045 -19.51953125 4.69140625 C-13.98643436 -1.46754221 -7.88456145 -0.91958168 0 0 Z " fill="#010101" transform="translate(261,12)"/>
<path d="M0 0 C9.16907529 4.38078041 14.39689501 9.64980865 18.6640625 18.82421875 C22.40711439 30.10045682 19.00468112 41.8430756 14.09765625 52.09765625 C13.06494841 54.15311812 12.01226199 56.19874933 10.93359375 58.23046875 C7.58716906 65.06747182 7.53345301 72.93492209 9.640625 80.18359375 C11.21355348 84.29443752 12.92129553 88.30203512 14.8515625 92.2578125 C19.75039876 102.36166229 19.17697637 111.30023728 15.6640625 121.82421875 C15.41914063 122.56800781 15.17421875 123.31179687 14.921875 124.078125 C11.70148365 131.91441062 4.22069115 136.86976837 -3.2734375 140.26171875 C-9.11860708 142.62736814 -14.0309989 143.38914125 -20.3359375 142.82421875 C-24.02049763 141.25632082 -26.45552674 139.38710229 -28.3359375 135.82421875 C-28.82965586 131.62761271 -28.31231855 128.5174918 -26.8359375 124.63671875 C-22.994593 113.70366134 -25.89219134 104.12070376 -30.3359375 93.82421875 C-31.60651428 91.1809967 -32.91169804 88.57987118 -34.3203125 86.0078125 C-38.4222088 77.18873546 -37.44491972 64.06608348 -34.5234375 55.01171875 C-33.52217787 52.29182191 -32.58335033 50.15152531 -30.8359375 47.83984375 C-25.09619056 40.1270588 -24.55331113 30.06177594 -25.3359375 20.82421875 C-25.64962907 19.48612814 -25.98043132 18.15181215 -26.3359375 16.82421875 C-26.7140045 12.13618792 -26.82288914 9.79812202 -24.7109375 5.57421875 C-17.91876548 -2.29040149 -9.74261045 -3.4338709 0 0 Z " fill="#020202" transform="translate(335.3359375,13.17578125)"/>
<path d="M0 0 C8.52172275 3.91205892 14.05382009 9.85538269 17.75 18.4375 C20.94258704 28.19944883 18.96306782 39.33501903 14.75 48.4375 C13.75869508 49.77731056 12.75880513 51.11081617 11.75 52.4375 C6.74744057 62.45934984 6.20888493 72.35648035 9.5625 83 C10.86184776 86.66903945 12.3565912 89.38541467 14.75 92.4375 C18.82926542 102.18241183 18.21741252 111.77715337 14.59375 121.55859375 C9.78909613 132.24894862 2.61036345 137.40517296 -8.1875 141.55078125 C-13.49921428 143.08873934 -19.1668042 144.08834499 -24.234375 141.375 C-26.40047008 139.64212394 -28.00561243 137.92627515 -29.25 135.4375 C-29.59021409 131.26987739 -29.23554617 128.10401129 -27.75 124.25 C-23.97812139 113.53278722 -26.64702705 104.43027888 -31.25 94.4375 C-32.24660479 92.40375056 -33.25366401 90.39262251 -34.35546875 88.4140625 C-37.01764787 82.53169291 -37.60953442 76.9692714 -37.5625 70.625 C-37.55686035 69.82819824 -37.5512207 69.03139648 -37.54541016 68.21044922 C-37.3412301 58.29861958 -34.27780734 51.00639931 -29.65234375 42.296875 C-27.05193973 36.99465845 -25.98692302 32.66561598 -26.0625 26.75 C-26.06894531 25.63238281 -26.07539063 24.51476562 -26.08203125 23.36328125 C-26.1257518 20.37468849 -26.1257518 20.37468849 -27.25 17.4375 C-27.84030743 13.16337534 -28.21060727 9.15219962 -26.05078125 5.296875 C-19.17332793 -2.94913956 -9.9191745 -3.57765891 0 0 Z " fill="#010102" transform="translate(194.25,13.5625)"/>
<path d="M0 0 C1.12137688 -0.0051923 1.12137688 -0.0051923 2.26540783 -0.01048949 C4.76654636 -0.01842037 7.26710367 -0.00498017 9.76821232 0.00837994 C11.58091764 0.00707144 13.39362241 0.0044442 15.20632416 0.00061244 C20.18447078 -0.00609573 25.16242377 0.00590479 30.14054573 0.02094662 C35.50993427 0.03389788 40.87931182 0.02951817 46.24871159 0.0272398 C55.55056121 0.02566649 64.85234773 0.03508175 74.15418148 0.05195332 C87.60307447 0.07633091 101.05193693 0.08414732 114.50084961 0.08791729 C136.32062441 0.09448371 158.14036557 0.11445008 179.96012211 0.14282513 C201.15640946 0.17036074 222.35268767 0.19159676 243.5489893 0.20434856 C244.85545429 0.20513673 246.16191929 0.20592491 247.50797414 0.20673696 C254.06210285 0.21065206 260.61623163 0.21444319 267.17036045 0.21817267 C321.54634916 0.24927453 375.9223014 0.30211556 430.29825687 0.36914349 C430.29825687 0.69914349 430.29825687 1.02914349 430.29825687 1.36914349 C429.05566262 1.36692287 427.81306837 1.36470226 426.53281975 1.36241436 C397.04360974 1.31149734 367.55468472 1.30175775 338.06547411 1.34280312 C334.4367699 1.34781782 330.80806533 1.35248464 327.17936039 1.35693645 C326.09573456 1.35827465 326.09573456 1.35827465 324.99021729 1.35963988 C313.28910825 1.37326006 301.58819518 1.35869167 289.88711212 1.33372653 C277.88286366 1.30874123 265.87890393 1.31400046 253.8746745 1.34740257 C247.13101456 1.36529749 240.38794846 1.36915785 233.64432049 1.33810711 C227.30012152 1.31026475 220.95707895 1.31964462 214.6129446 1.35788059 C212.28167694 1.36531412 209.95031987 1.35901394 207.61913395 1.33812428 C204.44029171 1.31167143 201.26545806 1.33417315 198.08678532 1.36914349 C197.15974004 1.3497317 196.23269476 1.33031992 195.27755719 1.3103199 C190.46530058 1.3873254 190.46530058 1.3873254 186.65602624 4.04101849 C185.32498054 6.09826769 184.2778115 8.12536389 183.29825687 10.36914349 C182.8986475 11.21863567 182.49903812 12.06812786 182.08731937 12.94336224 C181.09601386 15.99089056 180.36839206 19.05353514 179.67325687 22.18164349 C179.41286625 23.3430888 179.15247562 24.50453411 178.88419437 25.70117474 C178.690835 26.58160442 178.49747562 27.46203411 178.29825687 28.36914349 C154.02014772 28.46256444 129.74206549 28.53311178 105.46381283 28.57639217 C94.19111849 28.59702171 82.9185358 28.62514991 71.64591312 28.6709013 C61.82125815 28.71075693 51.99668403 28.73657345 42.17195046 28.74549747 C36.96929009 28.75071434 31.76686105 28.76298423 26.56427479 28.79206371 C21.66742131 28.81921258 16.77089448 28.8275895 11.87397289 28.82157421 C10.07686113 28.82267468 8.27973845 28.8306317 6.48269176 28.84596539 C4.02773615 28.86588538 1.5740116 28.86107588 -0.88097286 28.85016155 C-1.59110314 28.86181292 -2.30123343 28.87346428 -3.03288281 28.88546872 C-8.90426358 28.81497587 -12.19097309 26.53360041 -16.51424313 22.80664349 C-19.0117877 19.78330006 -19.04494202 16.28609341 -18.97518063 12.49804974 C-18.51513093 8.91623423 -17.27817533 5.9197468 -14.70174313 3.36914349 C-9.68913642 0.83816763 -5.63636063 -0.06491227 0 0 Z " fill="#A7DFF4" transform="translate(44.70174312591553,406.63085651397705)"/>
<path d="M0 0 C53.13 0 106.26 0 161 0 C162.98 9.9 162.98 9.9 165 20 C166.98 24.62 168.96 29.24 171 34 C258.615 34.495 258.615 34.495 348 35 C348 35.33 348 35.66 348 36 C308.80545737 36.06868665 269.61092259 36.12153922 230.41633178 36.15319599 C225.78764556 36.15694805 221.15895947 36.16083102 216.53027344 36.16479492 C215.60879658 36.16558185 214.68731972 36.16636878 213.73791932 36.16717956 C198.82314673 36.18022871 183.90840888 36.20387986 168.99365689 36.23145839 C153.68646279 36.25952623 138.37928687 36.27617918 123.0720681 36.28226548 C113.62889374 36.28637906 104.18581757 36.29936528 94.74267344 36.3237494 C88.26462085 36.3396236 81.78661891 36.34439654 75.30854829 36.34050413 C71.57265054 36.33858521 67.83692422 36.34149913 64.10105705 36.35761642 C60.04505332 36.37498649 55.98941273 36.36894762 51.93338013 36.36076355 C50.17361821 36.37387134 50.17361821 36.37387134 48.37830555 36.38724393 C34.97139471 36.31419557 23.9743558 32.13059804 13.875 23.375 C13.26825439 22.85010986 12.66150879 22.32521973 12.03637695 21.78442383 C4.78506929 15.29383196 1.39070641 9.73494489 0 0 Z " fill="#C1E9F9" transform="translate(61,450)"/>
<path d="M0 0 C4.29597771 1.45756386 6.34086095 3.31463869 8.5 7.1875 C9.6136729 9.93043511 10.58748913 12.69827491 11.54296875 15.5 C13.80201963 21.84378369 16.41134856 25.90144992 22.5 29.1875 C25.32047502 29.63926591 28.08668329 29.59637482 30.9375 29.5625 C36.89588128 29.69732515 41.02998397 29.92699294 45.37109375 34.421875 C49.60254077 41.0399167 49.39827081 48.88036938 48.1171875 56.44921875 C47.26889814 59.55288063 45.95959322 62.33577376 44.5 65.1875 C32.42622113 65.3032201 20.35257363 65.3921272 8.27835369 65.44656086 C2.67210527 65.47268304 -2.93376448 65.50812938 -8.53979492 65.56469727 C-13.94738181 65.61892285 -19.35460391 65.64890077 -24.76244164 65.66188622 C-26.82821588 65.67114306 -28.89396958 65.68921916 -30.959589 65.71615028 C-33.84760707 65.7523148 -36.73410734 65.75745062 -39.62231445 65.75512695 C-40.91056374 65.78209152 -40.91056374 65.78209152 -42.22483826 65.80960083 C-44.6085968 65.78877258 -44.6085968 65.78877258 -48.5 65.1875 C-53.70400269 58.94985018 -53.96531602 49.85755947 -53.81640625 42.0546875 C-53.35035412 37.83144965 -52.04412654 34.5772388 -49.5 31.1875 C-48.83226562 30.2903125 -48.16453125 29.393125 -47.4765625 28.46875 C-43.19585856 25.18800053 -39.77922382 25.7716458 -34.5625 26.125 C-27.80549782 26.55503598 -24.01757047 26.64367523 -18.5 22.1875 C-17.51 21.8575 -16.52 21.5275 -15.5 21.1875 C-14.6155111 19.05663583 -14.6155111 19.05663583 -14.0625 16.5 C-12.84453001 12.0698708 -11.38391204 8.83480052 -8.5 5.1875 C-7.736875 4.218125 -6.97375 3.24875 -6.1875 2.25 C-3.5 0.1875 -3.5 0.1875 0 0 Z " fill="#00C554" transform="translate(372.5,326.8125)"/>
<path d="M0 0 C5.2679242 3.47682997 8.74218052 8.2340056 11.5 13.875 C12.10133717 16.94181955 12.24120298 19.75831652 12.375 22.875 C12.8506014 29.2718388 14.68912982 33.42289465 19.125 38.0625 C21.30136343 39.7569826 23.51800218 41.22281944 25.87109375 42.66015625 C28.09568936 44.0442634 30.10336639 45.52286945 32.125 47.1875 C32.681875 47.64382812 33.23875 48.10015625 33.8125 48.5703125 C35.37393458 50.3455149 35.7292313 51.75714735 36.125 54.0625 C36.785 54.0625 37.445 54.0625 38.125 54.0625 C40.58294098 61.43632293 39.2038551 68.13507602 36.125 75.0625 C35.465 75.0625 34.805 75.0625 34.125 75.0625 C33.87621094 75.66578125 33.62742187 76.2690625 33.37109375 76.890625 C31.09306021 80.86111605 27.31062144 82.499868 23.125 84.0625 C16.41355385 85.0762569 11.07478204 84.22727768 5.125 81.0625 C4.135 80.5675 4.135 80.5675 3.125 80.0625 C3.125 79.4025 3.125 78.7425 3.125 78.0625 C-3.89650724 75.44127766 -11.58359699 74.37069689 -18.71875 77.18359375 C-20.86271683 78.38109421 -22.88640241 79.62372138 -24.875 81.0625 C-25.49375 79.72058594 -25.49375 79.72058594 -26.125 78.3515625 C-29.87735178 70.42492539 -34.01047917 63.6734144 -39.875 57.0625 C-38.885 56.5675 -38.885 56.5675 -37.875 56.0625 C-37.875 55.4025 -37.875 54.7425 -37.875 54.0625 C-37.27171875 53.82789063 -36.6684375 53.59328125 -36.046875 53.3515625 C-31.95002789 50.91998058 -30.47353649 46.39319646 -28.875 42.0625 C-28.00878415 37.23269043 -29.1494053 33.00302633 -30.41015625 28.328125 C-31.68993235 22.09056083 -32.14019824 15.43755032 -28.9375 9.75 C-20.98384854 -0.81794358 -12.80370544 -3.09767067 0 0 Z " fill="#F9EF96" transform="translate(446.875,170.9375)"/>
<path d="M0 0 C2.4375 1.5625 2.4375 1.5625 4 4 C4 11.04188743 0.86162054 18.20756919 -3 24 C-3.66 24 -4.32 24 -5 24 C-5.28875 24.7425 -5.5775 25.485 -5.875 26.25 C-7 29 -7 29 -8.04296875 30.8515625 C-10.28101039 35.8757376 -9.78389944 41.73262552 -8.01953125 46.8359375 C-5.86004538 51.36753554 -4.04834476 54.02429359 0 57 C0 57.66 0 58.32 0 59 C1.43721757 59.29305521 2.87479827 59.58432935 4.3125 59.875 C5.21871094 60.05933594 6.12492187 60.24367188 7.05859375 60.43359375 C9.02403464 60.8120651 10.99593839 61.15835551 12.97265625 61.47265625 C13.93042969 61.62605469 14.88820313 61.77945313 15.875 61.9375 C16.75929688 62.07027344 17.64359375 62.20304687 18.5546875 62.33984375 C21.27431206 63.07405549 22.87265669 64.18433722 25 66 C23.68 66.33 22.36 66.66 21 67 C21 67.66 21 68.32 21 69 C19.06640625 70.4375 19.06640625 70.4375 16.5625 72 C13.18993349 73.9529916 13.18993349 73.9529916 11 77 C3.375 76.125 3.375 76.125 0 75 C-2.74134352 74.87656778 -5.44619362 74.8148571 -8.1875 74.8125 C-8.91775391 74.80025391 -9.64800781 74.78800781 -10.40039062 74.77539062 C-15.58254359 74.76162051 -20.01738301 75.57236455 -25 77 C-25.31710938 76.29875 -25.63421875 75.5975 -25.9609375 74.875 C-30.03435323 66.59313818 -35.22711857 60.32129003 -43.97265625 56.8046875 C-51.64005863 54.76664248 -57.97741122 55.62915738 -65 59 C-67.4609375 59.421875 -67.4609375 59.421875 -70 59 C-71.984375 56.734375 -71.984375 56.734375 -73.75 53.75 C-74.34296875 52.77546875 -74.9359375 51.8009375 -75.546875 50.796875 C-76.76345302 48.45528935 -77.53423647 46.57395633 -78 44 C-77.56171875 43.62230469 -77.1234375 43.24460937 -76.671875 42.85546875 C-75.72054687 42.02982422 -75.72054687 42.02982422 -74.75 41.1875 C-74.01265625 40.54941406 -73.2753125 39.91132813 -72.515625 39.25390625 C-70.75795869 37.67910274 -69.0417484 36.05734125 -67.359375 34.40234375 C-60.11274417 27.36360806 -52.60789013 22.59307733 -43.68554688 17.90771484 C-41.71973491 16.84906929 -39.85791549 15.67474019 -38 14.4375 C-29.35765707 8.92560573 -19.76625651 4.01814361 -9.8203125 1.47265625 C-2.99522673 -0.29952267 -2.99522673 -0.29952267 0 0 Z " fill="#9E5322" transform="translate(164,283)"/>
<path d="M0 0 C4.31041047 -0.29726969 7.07305313 -0.39726294 11.0625 1.3125 C13.93737557 3.94270531 15.44809516 6.18874617 17.4375 9.5 C20.54177697 14.56558487 22.34934503 17.02227076 28 19 C34.62743508 19.81270737 39.11522129 19.2098793 45 16 C49.28359614 15.46455048 51.40228336 15.68964713 55.25 17.6875 C58.00683251 20.00574552 59.40281497 21.80562994 61 25 C61.4125 25.680625 61.825 26.36125 62.25 27.0625 C63.21916038 29.5661643 62.86589383 30.46996648 62 33 C60.41680226 35.58759201 58.70532138 38.0648433 56.984375 40.5625 C55.15139151 43.737747 53.76648057 46.82916937 52.37597656 50.21484375 C51.92981995 51.29757568 51.48366333 52.38030762 51.02398682 53.49584961 C50.68607117 54.32221924 50.34815552 55.14858887 50 56 C49.03835434 56.00808685 48.07670868 56.01617371 47.08592224 56.02450562 C38.00812603 56.10210571 28.93047714 56.18987973 19.8528738 56.28752708 C15.18636974 56.33739983 10.51988732 56.38373051 5.85327148 56.421875 C1.34684533 56.45884197 -3.15939565 56.50523255 -7.66566277 56.55806351 C-9.38194456 56.57654694 -11.09826596 56.59167707 -12.81460762 56.60334396 C-15.22498524 56.62031044 -17.63494433 56.64936952 -20.04516602 56.68115234 C-20.74935669 56.68331253 -21.45354736 56.68547272 -22.17907715 56.68769836 C-26.82285457 56.76554587 -30.62739426 57.57285337 -35 59 C-37.47511403 54.63157166 -37.53212231 50.92213135 -37 46 C-35.39156725 40.83608433 -33.7597953 37.67738485 -29 35 C-26.25394402 34.37087262 -23.5102297 33.91971215 -20.7265625 33.48828125 C-16.2549929 32.68749873 -12.47287082 31.47287082 -9.1875 28.1875 C-6.75024034 23.69781116 -5.94874205 19.74288673 -5.6875 14.6875 C-5.27225605 8.85811378 -3.21404357 4.80327544 0 0 Z " fill="#00B52F" transform="translate(63,336)"/>
<path d="M0 0 C6.79173507 4.19064504 10.0236417 7.30131664 12.58203125 15.0078125 C13.10229797 19.11277408 11.7655911 21.21461497 9.3671875 24.44921875 C7.9375 25.8125 7.9375 25.8125 5.9375 25.8125 C5.23866616 27.80148862 4.58372486 29.80580175 3.9375 31.8125 C3.67324219 32.62460937 3.40898437 33.43671875 3.13671875 34.2734375 C-0.5673239 46.52662124 0.16145248 58.26040495 5.9375 69.8125 C-15.1825 69.8125 -36.3025 69.8125 -58.0625 69.8125 C-60.5375 63.3775 -60.5375 63.3775 -63.0625 56.8125 C-65.73924677 53.09000761 -65.73924677 53.09000761 -68.609375 49.51953125 C-70.0625 47.8125 -70.0625 47.8125 -71.0625 45.8125 C-69.79418307 44.99607746 -68.52274069 44.18450895 -67.25 43.375 C-66.54230469 42.92253906 -65.83460938 42.47007812 -65.10546875 42.00390625 C-59.99867142 39.02575485 -54.62274247 39.81268758 -48.9296875 40.02734375 C-42.59300216 40.14313036 -37.95452299 39.1261184 -32.875 35.0625 C-28.74585064 29.93665942 -26.94695964 25.79170297 -25.625 19.375 C-23.75402239 10.61359411 -20.33274611 5.02811134 -13.0625 -0.1875 C-8.41220878 -1.73759707 -4.59328428 -1.78106941 0 0 Z " fill="#00C554" transform="translate(256.0625,322.1875)"/>
<path d="M0 0 C15.03493531 5.09611103 25.54013406 19.62224131 32.9375 32.9375 C40.47634431 49.77608655 42.40708968 71.30903935 35.96484375 88.8125 C35.62582031 89.534375 35.28679687 90.25625 34.9375 91 C34.42509766 92.11375 34.42509766 92.11375 33.90234375 93.25 C33 95 33 95 32 96 C30.14712498 96.07226502 28.29166122 96.0838122 26.4375 96.0625 C25.42558594 96.05347656 24.41367187 96.04445313 23.37109375 96.03515625 C22.58863281 96.02355469 21.80617188 96.01195312 21 96 C21.144375 95.46375 21.28875 94.9275 21.4375 94.375 C24.73983982 80.43178741 24.28350883 67.27710919 16.66015625 54.80859375 C11.76863294 49.47971071 3.85742877 47.85244483 -3.10449219 47.3972168 C-5.05044323 47.31562605 -6.99801917 47.2761121 -8.9453125 47.23828125 C-12 47 -12 47 -14 45 C-14.65553359 42.95324664 -15.25146199 40.88714695 -15.8125 38.8125 C-17.02365253 34.63563557 -18.1234555 31.3813258 -20.875 28 C-21.57625 27.01 -22.2775 26.02 -23 25 C-21.95257972 20.79662711 -19.73682174 18.3576979 -16.6875 15.375 C-15.92824219 14.61960937 -15.16898437 13.86421875 -14.38671875 13.0859375 C-12.04353304 11.03804688 -9.68919674 9.54901366 -7 8 C-6.443125 7.443125 -5.88625 6.88625 -5.3125 6.3125 C-4.879375 5.879375 -4.44625 5.44625 -4 5 C-3.34 5 -2.68 5 -2 5 C-1.34 3.35 -0.68 1.7 0 0 Z " fill="#C46B32" transform="translate(411,296)"/>
<path d="M0 0 C-1.0637076 2.18701951 -2.12126897 4.17685058 -3.5 6.1875 C-6.94378608 12.6445989 -7.19051459 19.195508 -7.25 26.375 C-7.25926514 27.05788086 -7.26853027 27.74076172 -7.27807617 28.44433594 C-7.24221018 34.4332533 -6.193934 40.14319618 -5 46 C-9.56228541 46.11625936 -14.12418928 46.18727408 -18.6875 46.25 C-19.98107422 46.28351563 -21.27464844 46.31703125 -22.60742188 46.3515625 C-23.85458984 46.36445313 -25.10175781 46.37734375 -26.38671875 46.390625 C-27.53358154 46.41157227 -28.68044434 46.43251953 -29.86206055 46.45410156 C-33.67095507 45.90290388 -35.27371436 44.65940927 -38 42 C-39.328125 39.74609375 -39.328125 39.74609375 -40.25 37.4375 C-40.56453125 36.67308594 -40.8790625 35.90867187 -41.203125 35.12109375 C-43.77525146 28.27469832 -44.23998774 21.19895492 -41.4375 14.3125 C-37.2953757 6.21652978 -31.44303558 0.47566659 -23 -3 C-14.13697534 -5.12385844 -8.13892076 -3.73589805 0 0 Z " fill="#F55546" transform="translate(313,346)"/>
<path d="M0 0 C5.42244184 0.43379535 8.84966227 1.41561741 13 5 C16.28734286 10.47890477 16.94987571 15.69073382 16 22 C14.1299314 28.21923196 12.00639983 33.86135674 8 39 C3.23593128 49.23392539 3.17894352 63.2758959 7.00390625 73.890625 C8.39633982 76.83930785 10.0412406 79.54358509 11.9140625 82.2109375 C15.53550903 88.17720553 14.67670296 96.89844476 13.25 103.4375 C10.82241988 108.41403925 7.96680128 111.51659936 3 114 C2.34 114 1.68 114 1 114 C1.02094727 113.39115967 1.04189453 112.78231934 1.06347656 112.1550293 C1.49533674 97.70821309 1.26438878 87.26328658 -7 75 C-11.30583058 66.57156568 -11.35619036 55.81423151 -9.23828125 46.734375 C-7.86071841 42.74869911 -6.29597498 39.43947801 -3.9375 35.9375 C2.43689221 26.27309891 2.37327297 13.10439122 0.484375 1.95703125 C0.32453125 1.31121094 0.1646875 0.66539063 0 0 Z " fill="#D5EDF7" transform="translate(253,26)"/>
<path d="M0 0 C6.61384465 1.64265423 10.15787047 3.29501979 14 9 C14.433125 9.61875 14.86625 10.2375 15.3125 10.875 C17.3700081 17.23457049 15.89759004 22.11353397 13.08984375 27.87890625 C12.73019531 28.57886719 12.37054688 29.27882813 12 30 C11.13375 31.7634375 11.13375 31.7634375 10.25 33.5625 C9.8375 34.366875 9.425 35.17125 9 36 C8.34 36 7.68 36 7 36 C6.51787786 37.56159059 6.03944127 39.12431928 5.5625 40.6875 C5.29566406 41.55761719 5.02882812 42.42773438 4.75390625 43.32421875 C1.18749855 55.98219427 2.23845209 68.2962229 8.56640625 79.86328125 C9.5932437 81.57302745 10.64518684 83.26814883 11.73046875 84.94140625 C14.50126986 89.43436681 14.57412316 93.88281531 14 99 C12.08736993 105.61501991 7.57294664 110.13995038 2 114 C1.34 114 0.68 114 0 114 C0.165 113.05125 0.33 112.1025 0.5 111.125 C2.16202068 98.90425968 0.51468078 86.59589926 -6.23046875 76.08203125 C-11.51227027 67.82631216 -13.47095027 60.46599969 -11.53515625 50.640625 C-9.96490503 45.40025999 -7.31032561 41.03467125 -4.42578125 36.41796875 C2.26022006 25.07924323 1.65494922 12.6189878 0 0 Z " fill="#BDE4F5" transform="translate(183,26)"/>
<path d="M0 0 C6.9023202 1.61054138 11.14129186 3.93631579 15 10 C17.60370466 17.81111397 15.39137853 23.86218887 12 31 C10.375 34.125 10.375 34.125 9 36 C8.34 36 7.68 36 7 36 C6.52029877 37.74985354 6.04126076 39.49988891 5.5625 41.25 C5.29566406 42.22453125 5.02882813 43.1990625 4.75390625 44.203125 C4.50511719 45.12609375 4.25632812 46.0490625 4 47 C3.80921875 47.65613281 3.6184375 48.31226563 3.421875 48.98828125 C0.86059025 61.20181499 4.24834883 72.87453608 10.75 83.1875 C14.08671425 88.63387875 15.31340047 92.68927091 14 99 C12.03891486 105.62918963 7.61112611 110.11350573 2 114 C1.34 114 0.68 114 0 114 C0.165 113.113125 0.33 112.22625 0.5 111.3125 C2.35643196 97.54165395 0.60622832 85.56430537 -7.60546875 74.171875 C-11.75769818 67.70509752 -13.19475675 59.54818283 -12 52 C-10.18532165 46.23484902 -7.74812559 40.95105141 -4.375 35.9375 C2.46472063 25.42979039 2.27741926 11.95645111 0 0 Z " fill="#D5EDF8" transform="translate(325,26)"/>
<path d="M0 0 C4.45926458 3.02986689 6.19253912 8.11336176 8 13 C9.74636512 17.28066806 11.53413423 21.08822119 14.1875 24.875 C17 28.91240876 17 28.91240876 17 30 C5.12 30 -6.76 30 -19 30 C-20.65 25.71 -22.3 21.42 -24 17 C-26.67674677 13.27750761 -26.67674677 13.27750761 -29.546875 9.70703125 C-31 8 -31 8 -32 6 C-30.73168307 5.18357746 -29.46024069 4.37200895 -28.1875 3.5625 C-27.47980469 3.11003906 -26.77210938 2.65757812 -26.04296875 2.19140625 C-19.01634746 -1.90633657 -7.73010672 -1.95355397 0 0 Z " fill="#00B52F" transform="translate(217,362)"/>
<path d="M0 0 C7.84055022 4.66730898 11.95563049 10.79230448 15.5 19.0625 C-2.98 19.0625 -21.46 19.0625 -40.5 19.0625 C-38.76039237 10.36446185 -33.45534662 5.64522395 -26.55078125 0.41015625 C-19.72290669 -4.07673275 -7.26916697 -3.30004304 0 0 Z " fill="#E53725" transform="translate(168.5,372.9375)"/>
</svg>
