<?xml version="1.0" encoding="UTF-8" standalone="no"?><!DOCTYPE svg PUBLIC "-//W3C//DTD SVG 1.1//EN" "http://www.w3.org/Graphics/SVG/1.1/DTD/svg11.dtd"><svg width="100%" height="100%" viewBox="0 0 123 123" version="1.1" xmlns="http://www.w3.org/2000/svg" xmlns:xlink="http://www.w3.org/1999/xlink" xml:space="preserve" xmlns:serif="http://www.serif.com/" style="fill-rule:evenodd;clip-rule:evenodd;stroke-linecap:round;stroke-linejoin:round;stroke-miterlimit:1.5;"><g id="seg"><path d="M119.88,30.226c0,-8.701 -7.064,-15.766 -15.766,-15.766l-85.348,0c-8.702,0 -15.766,7.065 -15.766,15.766l-0,73.574c-0,8.702 7.064,15.766 15.766,15.766l85.348,0c8.702,0 15.766,-7.064 15.766,-15.766l0,-73.574Z" style="fill:#f2f2f2;"/><clipPath id="_clip1"><path d="M119.88,30.226c0,-8.701 -7.064,-15.766 -15.766,-15.766l-85.348,0c-8.702,0 -15.766,7.065 -15.766,15.766l-0,73.574c-0,8.702 7.064,15.766 15.766,15.766l85.348,0c8.702,0 15.766,-7.064 15.766,-15.766l0,-73.574Z"/></clipPath><g clip-path="url(#_clip1)"><rect x="-1.882" y="6.85" width="128.218" height="37.62" style="fill:#559ad4;stroke:#000;stroke-width:1.2px;"/></g><path d="M119.88,30.226c0,-8.701 -7.064,-15.766 -15.766,-15.766l-85.348,0c-8.702,0 -15.766,7.065 -15.766,15.766l-0,73.574c-0,8.702 7.064,15.766 15.766,15.766l85.348,0c8.702,0 15.766,-7.064 15.766,-15.766l0,-73.574Z" style="fill:none;stroke:#000;stroke-width:1.2px;"/><path d="M40.267,10.133c-0,-3.764 -3.056,-6.819 -6.82,-6.819c-3.764,-0 -6.819,3.055 -6.819,6.819l-0,10.716c-0,3.764 3.055,6.82 6.819,6.82c3.764,-0 6.82,-3.056 6.82,-6.82l-0,-10.716Z" style="fill:#e6e6e6;stroke:#000;stroke-width:1.2px;"/><path d="M96.375,10.133c0,-3.764 -3.056,-6.819 -6.82,-6.819c-3.763,-0 -6.819,3.055 -6.819,6.819l-0,10.716c-0,3.764 3.056,6.82 6.819,6.82c3.764,-0 6.82,-3.056 6.82,-6.82l0,-10.716Z" style="fill:#e6e6e6;stroke:#000;stroke-width:1.2px;"/><text x="17.16px" y="104.043px" style="font-family:'Impact', sans-serif;font-stretch:condensed;font-size:62.4px;">S<tspan x="47.866px 72.235px " y="104.043px 104.043px ">EG</tspan></text></g></svg>