<?xml version="1.0" encoding="UTF-8" standalone="no"?>
<svg
   version="1.1"
   width="512"
   height="512"
   id="svg18"
   sodipodi:docname="moon_icon.svg"
   inkscape:version="1.4 (86a8ad7, 2024-10-11)"
   xmlns:inkscape="http://www.inkscape.org/namespaces/inkscape"
   xmlns:sodipodi="http://sodipodi.sourceforge.net/DTD/sodipodi-0.dtd"
   xmlns="http://www.w3.org/2000/svg"
   xmlns:svg="http://www.w3.org/2000/svg">
  <defs
     id="defs18" />
  <sodipodi:namedview
     id="namedview18"
     pagecolor="#ffffff"
     bordercolor="#000000"
     borderopacity="0.25"
     inkscape:showpageshadow="2"
     inkscape:pageopacity="0.0"
     inkscape:pagecheckerboard="0"
     inkscape:deskcolor="#d1d1d1"
     inkscape:zoom="1.3613281"
     inkscape:cx="256.36729"
     inkscape:cy="256"
     inkscape:window-width="1858"
     inkscape:window-height="1057"
     inkscape:window-x="1494"
     inkscape:window-y="-8"
     inkscape:window-maximized="1"
     inkscape:current-layer="svg18" />
  <path
     d="M0 0 C1.13598633 -0.03456299 2.27197266 -0.06912598 3.44238281 -0.10473633 C12.44840791 -0.14996899 12.44840791 -0.14996899 15.51953125 2.83984375 C17.74391488 6.06253462 18.50013749 7.82333399 18.625 11.6875 C18.68107422 12.80898438 18.68107422 12.80898438 18.73828125 13.953125 C18.09931947 17.68137908 16.78684433 19.56529019 14.3125 22.4375 C11.40210343 24.17287363 8.35057338 25.36396785 5.1875 26.5625 C4.32801758 26.90740479 3.46853516 27.25230957 2.58300781 27.60766602 C-0.80486963 28.96146801 -4.20827829 30.2614464 -7.6328125 31.51953125 C-13.77332395 33.79880584 -19.15274751 36.97288872 -24.68847656 40.44116211 C-29.49514107 43.4375 -29.49514107 43.4375 -31.6875 43.4375 C-32.0175 44.4275 -32.3475 45.4175 -32.6875 46.4375 C-34.67815541 47.45597486 -36.67998185 48.45267978 -38.6875 49.4375 C-39.79403921 50.30450602 -40.87811666 51.20096785 -41.9375 52.125 C-44.6875 54.4375 -44.6875 54.4375 -46.6875 54.4375 C-47.0278125 55.30375 -47.0278125 55.30375 -47.375 56.1875 C-49.05564434 59.06860459 -51.02444563 60.41126298 -53.6875 62.4375 C-58.19464098 66.11715806 -61.84689352 69.29735493 -64.6875 74.4375 C-65.83877267 75.55587916 -66.99107667 76.67325205 -68.15234375 77.78125 C-72.312556 82.26962149 -76.74364466 87.60593397 -78.6875 93.4375 C-79.3475 93.4375 -80.0075 93.4375 -80.6875 93.4375 C-80.91566406 94.08203125 -81.14382812 94.7265625 -81.37890625 95.390625 C-83.49255392 100.31195389 -86.27441704 104.86772141 -88.96679688 109.4921875 C-91.91829392 114.68259958 -93.95728452 119.73607346 -95.6875 125.4375 C-96.25683469 127.1483316 -96.82990409 128.85792384 -97.40625 130.56640625 C-100.99840752 141.45022609 -104.04329272 152.07982204 -105.6875 163.4375 C-105.96207031 165.22800781 -105.96207031 165.22800781 -106.2421875 167.0546875 C-109.44715038 193.64756312 -106.06007961 223.04647501 -94.57080078 247.41699219 C-93.69416023 249.42226505 -93.07453256 251.39068706 -92.5 253.5 C-87.20062666 270.03520317 -74.97244853 287.45967519 -62.6875 299.4375 C-61.59990778 300.7255827 -60.51698389 302.01761451 -59.4375 303.3125 C-56.2175185 307.04570999 -52.67786498 309.92160729 -48.734375 312.859375 C-46.6875 314.4375 -46.6875 314.4375 -44.3125 316.875 C-30.5838357 330.27679134 -11.74181846 339.50105917 6.3125 345.4375 C7.50617188 345.87449219 8.69984375 346.31148438 9.9296875 346.76171875 C46.28770305 359.78023399 85.17924255 357.80408229 121.28125 345.04248047 C124.40929228 344.11083518 127.08834165 344.05818725 130.3125 344.4375 C132.51171875 345.9609375 132.51171875 345.9609375 134.3125 347.4375 C134.99957031 347.0765625 135.68664062 346.715625 136.39453125 346.34375 C137.29558594 345.8796875 138.19664062 345.415625 139.125 344.9375 C140.01832031 344.4734375 140.91164063 344.009375 141.83203125 343.53125 C144.3125 342.4375 144.3125 342.4375 147.3125 342.4375 C147.23 341.385625 147.1475 340.33375 147.0625 339.25 C147.35129102 334.84593693 148.14415761 333.42982337 151.3125 330.4375 C153.5625 329.625 153.5625 329.625 155.3125 329.4375 C155.3125 328.7775 155.3125 328.1175 155.3125 327.4375 C156.09625 327.1075 156.88 326.7775 157.6875 326.4375 C164.75508405 322.91206209 170.73800062 317.03169757 176.65625 311.8671875 C177.80669217 310.87411713 178.9748987 309.90140614 180.15625 308.9453125 C184.0220938 305.78383855 186.64670877 302.72180734 189.3125 298.4375 C190.9375 296.5625 190.9375 296.5625 192.3125 295.4375 C192.9725 295.4375 193.6325 295.4375 194.3125 295.4375 C194.6528125 294.6640625 194.6528125 294.6640625 195 293.875 C196.49438491 291.09971374 198.28268824 288.66423294 200.13671875 286.12109375 C201.40408114 284.30636554 202.42101774 282.46359604 203.3125 280.4375 C203.9725 280.4375 204.6325 280.4375 205.3125 280.4375 C205.55226563 279.77105469 205.79203125 279.10460937 206.0390625 278.41796875 C207.63718806 274.67757059 209.64557654 271.26210834 211.6875 267.75 C215.42540328 261.20405319 218.43390722 254.73613165 220.95458984 247.62646484 C221.68169401 245.59843646 222.43408395 243.58088105 223.1875 241.5625 C223.40817139 240.91917725 223.62884277 240.27585449 223.85620117 239.61303711 C225.65329783 234.8398328 227.80985221 232.75151899 232.3125 230.4375 C237.05173187 229.36327411 240.55671358 230.03261442 244.8125 232.3125 C247.3125 234.4375 247.3125 234.4375 248.3125 236.4375 C250.5950954 264.61889504 245.3827288 294.05358688 235.41796875 320.421875 C234.45731737 323.0424505 233.70119383 325.61491355 233 328.3125 C230.81119917 335.77377134 226.8983298 342.57423859 223.3125 349.4375 C222.34619241 351.30199951 221.38005449 353.16658696 220.4140625 355.03125 C218.49207602 358.72793347 216.56866736 362.42383908 214.6328125 366.11328125 C214.23336426 366.87552002 213.83391602 367.63775879 213.42236328 368.4230957 C212.3125 370.4375 212.3125 370.4375 210.3125 373.4375 C209.6525 373.4375 208.9925 373.4375 208.3125 373.4375 C208.05082031 374.1490625 207.78914063 374.860625 207.51953125 375.59375 C204.46000809 382.80194697 199.96344528 389.06221059 194.3125 394.4375 C192.19988571 397.07417365 190.1323286 399.74040135 188.08203125 402.42578125 C187.49808594 403.08964844 186.91414063 403.75351562 186.3125 404.4375 C185.6525 404.4375 184.9925 404.4375 184.3125 404.4375 C184.085625 404.98921875 183.85875 405.5409375 183.625 406.109375 C181.92524074 409.12442417 179.76445184 411.24980369 177.3125 413.6875 C176.425625 414.57953125 175.53875 415.4715625 174.625 416.390625 C172.3125 418.4375 172.3125 418.4375 170.3125 418.4375 C170.3125 419.0975 170.3125 419.7575 170.3125 420.4375 C168.69867052 421.89409977 167.01886784 423.27798951 165.3125 424.625 C161.8392138 427.39208095 158.45347121 430.17936863 155.1875 433.1875 C150.50735851 437.33690379 145.25001066 440.45832978 139.3125 442.4375 C139.3125 443.0975 139.3125 443.7575 139.3125 444.4375 C131.85587059 449.66278955 123.32138816 453.54335384 115.15625 457.53515625 C112.89235634 458.64338295 110.68075889 459.78374272 108.46875 460.99609375 C94.31813592 468.67488286 78.1823804 472.92996029 62.625 476.75 C61.70243408 476.98009766 60.77986816 477.21019531 59.8293457 477.44726562 C42.54539552 481.49905011 25.33824287 482.99578359 7.625 482.875 C6.67026794 482.87195862 5.71553589 482.86891724 4.73187256 482.86578369 C-18.64941302 482.75610851 -40.3292384 479.35346888 -62.6875 472.4375 C-63.68587891 472.13295898 -64.68425781 471.82841797 -65.71289062 471.51464844 C-77.91877886 467.75339824 -89.54282508 463.60881665 -100.76025391 457.47607422 C-102.80533101 456.37400201 -104.87260908 455.32650322 -106.94921875 454.28515625 C-115.35316863 450.03053912 -123.09017913 445.33999629 -130.63671875 439.69921875 C-132.63828981 438.21533957 -134.68304784 436.78768107 -136.76953125 435.42578125 C-139.66550813 433.45248509 -142.13153072 431.3296251 -144.6875 428.9375 C-147.36748635 426.47383542 -149.81257204 424.35657103 -152.875 422.375 C-156.1426106 420.12397936 -158.35152409 417.54360936 -160.89453125 414.5234375 C-164.41444836 410.42837054 -168.3402507 406.71902982 -172.25 403 C-180.47070038 394.35772525 -180.47070038 394.35772525 -181.125 388.5625 C-180.6875 385.4375 -180.6875 385.4375 -179.6875 383.4375 C-181.77997223 379.87584514 -183.90519728 376.5018295 -186.6875 373.4375 C-190.27149407 373.02057147 -190.27149407 373.02057147 -193.6875 373.4375 C-199.37138935 369.17698734 -201.99137116 362.64611668 -205.125 356.4375 C-205.67220703 355.37660156 -206.21941406 354.31570313 -206.78320312 353.22265625 C-212.91375135 341.25176326 -218.34142561 329.45193828 -222.25 316.5625 C-222.82633179 314.67990479 -222.82633179 314.67990479 -223.41430664 312.75927734 C-226.82450251 301.47029758 -229.69471319 290.06475211 -231.6875 278.4375 C-231.96352051 276.83092529 -231.96352051 276.83092529 -232.24511719 275.19189453 C-233.93325251 264.15281357 -234.08599476 253.21029122 -234.0625 242.0625 C-234.06195618 241.09083893 -234.06141235 240.11917786 -234.06085205 239.11807251 C-234.02165933 223.86912383 -233.21210591 209.33222351 -229.6875 194.4375 C-229.45192383 193.42413574 -229.21634766 192.41077148 -228.97363281 191.36669922 C-226.67874496 181.68467236 -224.104812 172.23940391 -220.57910156 162.92797852 C-219.72918371 160.5539336 -219.05716581 158.19280803 -218.4375 155.75 C-216.46094871 149.04234191 -213.12908843 142.96081483 -209.90576172 136.78857422 C-208.59366935 134.25642001 -207.31370322 131.70940068 -206.03515625 129.16015625 C-201.50731923 120.2172184 -197.02884791 111.79309165 -190.66015625 104.0078125 C-188.5508856 101.39085936 -188.5508856 101.39085936 -186.78515625 98.00390625 C-184.69863312 94.23845987 -182.05074611 91.32214072 -179.0625 88.25 C-176.07030728 85.1515057 -173.57844667 82.33499707 -171.6875 78.4375 C-169.98828125 76.76171875 -169.98828125 76.76171875 -168 75.125 C-163.50967893 71.32863764 -159.37850552 67.25117244 -155.31640625 63.00390625 C-153.13171957 60.90304448 -150.79404185 59.03063929 -148.4375 57.125 C-145.13613549 54.44809994 -141.87419729 51.74969227 -138.6875 48.9375 C-134.2987453 45.28020441 -131.26970173 45.23451085 -125.6875 45.4375 C-125.0275 45.7675 -124.3675 46.0975 -123.6875 46.4375 C-121.04525628 45.20999184 -121.04525628 45.20999184 -118.1875 43.5 C-112.88567768 40.4375 -112.88567768 40.4375 -110.6875 40.4375 C-110.790625 39.2 -110.89375 37.9625 -111 36.6875 C-111.17578125 34.578125 -111.17578125 34.578125 -110.6875 32.4375 C-106.89817866 28.69241199 -102.18697105 26.37642159 -97.5 23.9375 C-96.73969482 23.54022705 -95.97938965 23.1429541 -95.19604492 22.73364258 C-86.4188551 18.19952543 -77.76019816 15.05861032 -68.23046875 12.43359375 C-65.01875843 11.53063219 -61.85932663 10.53239847 -58.6875 9.5 C-39.41903505 3.54771474 -20.13986777 0.36092457 0 0 Z "
     fill="#FDE080"
     transform="translate(248.6875,14.5625)"
     id="path1"
     style="fill:#e3f3fe;fill-opacity:1" />
  <path
     d="M0 0 C5.46341463 2.92682927 5.46341463 2.92682927 7 6 C9.2825954 34.18139504 4.0702288 63.61608688 -5.89453125 89.984375 C-6.85518263 92.6049505 -7.61130617 95.17741355 -8.3125 97.875 C-10.50130083 105.33627134 -14.4141702 112.13673859 -18 119 C-18.96630759 120.86449951 -19.93244551 122.72908696 -20.8984375 124.59375 C-22.82042398 128.29043347 -24.74383264 131.98633908 -26.6796875 135.67578125 C-27.07913574 136.43802002 -27.47858398 137.20025879 -27.89013672 137.9855957 C-29 140 -29 140 -31 143 C-31.66 143 -32.32 143 -33 143 C-33.26167969 143.7115625 -33.52335937 144.423125 -33.79296875 145.15625 C-36.85249191 152.36444697 -41.34905472 158.62471059 -47 164 C-49.11261429 166.63667365 -51.1801714 169.30290135 -53.23046875 171.98828125 C-53.81441406 172.65214844 -54.39835937 173.31601562 -55 174 C-55.66 174 -56.32 174 -57 174 C-57.226875 174.55171875 -57.45375 175.1034375 -57.6875 175.671875 C-59.38725926 178.68692417 -61.54804816 180.81230369 -64 183.25 C-64.886875 184.14203125 -65.77375 185.0340625 -66.6875 185.953125 C-69 188 -69 188 -71 188 C-71 188.66 -71 189.32 -71 190 C-72.61382948 191.45659977 -74.29363216 192.84048951 -76 194.1875 C-79.4732862 196.95458095 -82.85902879 199.74186863 -86.125 202.75 C-90.80514149 206.89940379 -96.06248934 210.02082978 -102 212 C-102 212.66 -102 213.32 -102 214 C-109.45662941 219.22528955 -117.99111184 223.10585384 -126.15625 227.09765625 C-128.42014366 228.20588295 -130.63174111 229.34624272 -132.84375 230.55859375 C-146.99436408 238.23738286 -163.1301196 242.49246029 -178.6875 246.3125 C-180.07134888 246.65764648 -180.07134888 246.65764648 -181.4831543 247.00976562 C-198.76710448 251.06155011 -215.97425713 252.55828359 -233.6875 252.4375 C-234.64223206 252.43445862 -235.59696411 252.43141724 -236.58062744 252.42828369 C-259.96191302 252.31860851 -281.6417384 248.91596888 -304 242 C-305.49756836 241.54318848 -305.49756836 241.54318848 -307.02539062 241.07714844 C-319.23127886 237.31589824 -330.85532508 233.17131665 -342.07275391 227.03857422 C-344.11783101 225.93650201 -346.18510908 224.88900322 -348.26171875 223.84765625 C-356.66566863 219.59303912 -364.40267913 214.90249629 -371.94921875 209.26171875 C-373.95078981 207.77783957 -375.99554784 206.35018107 -378.08203125 204.98828125 C-380.97800813 203.01498509 -383.44403072 200.8921251 -386 198.5 C-388.67998635 196.03633542 -391.12507204 193.91907103 -394.1875 191.9375 C-397.4551106 189.68647936 -399.66402409 187.10610936 -402.20703125 184.0859375 C-405.72694836 179.99087054 -409.6527507 176.28152982 -413.5625 172.5625 C-421.66480447 164.04469274 -421.66480447 164.04469274 -422.625 158.1875 C-422 155 -422 155 -420.375 153.0625 C-417.10439159 151.59933308 -415.56961145 151.31353626 -412 152 C-406.99464708 155.20638887 -403.35303937 159.70439336 -399.6875 164.3125 C-394.9950841 170.21038137 -389.68093029 175.07257611 -384 180 C-383.31035156 180.62648438 -382.62070312 181.25296875 -381.91015625 181.8984375 C-376.58851013 186.70859616 -370.85108451 190.86023547 -365 195 C-364.11570312 195.63421875 -363.23140625 196.2684375 -362.3203125 196.921875 C-358.2919271 199.78704881 -354.27751201 202.46736554 -349.96386719 204.89306641 C-347.83438691 206.09334781 -345.7228506 207.3225573 -343.609375 208.55078125 C-333.08872752 214.57341578 -322.66065977 219.44451421 -311.16064453 223.27539062 C-309.16801866 223.94365205 -307.19089434 224.64386319 -305.21484375 225.359375 C-298.02207326 227.8952375 -290.78458277 229.8982504 -283.375 231.6875 C-282.54049316 231.89004395 -281.70598633 232.09258789 -280.84619141 232.30126953 C-278.23801147 232.90955736 -275.62411231 233.46471329 -273 234 C-272.10958008 234.19053955 -271.21916016 234.3810791 -270.30175781 234.57739258 C-260.01496841 236.48679912 -249.66684408 236.33697693 -239.23779297 236.31567383 C-236.03447766 236.3125338 -232.83210671 236.33596843 -229.62890625 236.36132812 C-211.92213609 236.41688099 -194.7903609 234.67302023 -177.625 230.1875 C-176.62170654 229.93105713 -175.61841309 229.67461426 -174.5847168 229.41040039 C-167.57830717 227.56055489 -160.93844316 225.28560631 -154.2890625 222.41796875 C-151.12385282 221.05339498 -147.93602364 219.89867151 -144.6875 218.75 C-136.70797297 215.70971165 -129.43852257 211.40694063 -122.05175781 207.16748047 C-119.30915086 205.60689665 -116.53176306 204.11441809 -113.75 202.625 C-108.95874183 200.00958843 -104.46359516 197.50211082 -100.625 193.5625 C-96.92430346 189.94991529 -92.65640381 187.12028816 -87.87890625 185.10546875 C-85.86655328 184.15418227 -85.86655328 184.15418227 -85.10546875 182.16796875 C-83.50225737 179.02386163 -81.081848 177.47029813 -78.3125 175.3125 C-73.66490344 171.59511591 -69.96187346 167.81066384 -66.453125 162.96484375 C-64.54459008 160.38421723 -62.29677379 158.23469883 -60 156 C-57.009651 152.54240897 -54.64789273 148.89589808 -52.34375 144.96484375 C-51 143 -51 143 -49.046875 141.05078125 C-41.70125577 133.69114366 -37.47125151 123.23682374 -32.97753906 113.98144531 C-32.06270255 112.12709638 -31.10697499 110.29307878 -30.1484375 108.4609375 C-25.50040174 99.55390862 -22.12526415 90.51625377 -19 81 C-18.55215606 79.67705871 -18.10424113 78.35414145 -17.65625 77.03125 C-12.78599492 62.36551575 -9.5049752 47.47748998 -9 32 C-9.28198242 32.51385254 -9.56396484 33.02770508 -9.85449219 33.55712891 C-11.15023418 35.91461527 -12.45008302 38.26981334 -13.75 40.625 C-14.1934375 41.43324219 -14.636875 42.24148438 -15.09375 43.07421875 C-17.55636571 47.52865599 -20.13865827 51.79251282 -23 56 C-23.598125 57.11375 -24.19625 58.2275 -24.8125 59.375 C-26.8206842 62.95992258 -29.39085852 65.80065532 -32.1484375 68.828125 C-34.11527141 71.13521287 -35.76176284 73.53741661 -37.4375 76.0625 C-40.20333151 80.10344759 -43.11269431 83.12123449 -46.890625 86.2109375 C-49.28565596 88.24227857 -51.43801455 90.43446466 -53.625 92.6875 C-56.86578169 95.97282852 -60.05121844 98.57688404 -64 101 C-64.9075 101.7425 -65.815 102.485 -66.75 103.25 C-69 105 -69 105 -71 105 C-71 105.66 -71 106.32 -71 107 C-76.6360083 111.36336126 -82.73122504 114.77327393 -90 114 C-92.375 112.875 -92.375 112.875 -94 111 C-94.66722208 107.16347302 -94.3142854 105.50510153 -92.25 102.1875 C-90.03461538 100.03365384 -89.01326538 99.32284986 -86 99 C-86 98.34 -86 97.68 -86 97 C-84.824375 96.505 -84.824375 96.505 -83.625 96 C-76.55741595 92.47456209 -70.57449938 86.59419757 -64.65625 81.4296875 C-63.50580783 80.43661713 -62.3376013 79.46390614 -61.15625 78.5078125 C-57.2904062 75.34633855 -54.66579123 72.28430734 -52 68 C-50.375 66.125 -50.375 66.125 -49 65 C-48.34 65 -47.68 65 -47 65 C-46.6596875 64.2265625 -46.6596875 64.2265625 -46.3125 63.4375 C-44.81811509 60.66221374 -43.02981176 58.22673294 -41.17578125 55.68359375 C-39.90841886 53.86886554 -38.89148226 52.02609604 -38 50 C-37.34 50 -36.68 50 -36 50 C-35.76023437 49.33355469 -35.52046875 48.66710937 -35.2734375 47.98046875 C-33.67531194 44.24007059 -31.66692346 40.82460834 -29.625 37.3125 C-25.88709672 30.76655319 -22.87859278 24.29863165 -20.35791016 17.18896484 C-19.63080599 15.16093646 -18.87841605 13.14338105 -18.125 11.125 C-17.90432861 10.48167725 -17.68365723 9.83835449 -17.45629883 9.17553711 C-14.38747751 1.02455033 -8.1344377 -1.48162972 0 0 Z "
     fill="#010100"
     transform="translate(490,245)"
     id="path2" />
  <path
     d="M0 0 C1.13598633 -0.03456299 2.27197266 -0.06912598 3.44238281 -0.10473633 C12.44840791 -0.14996899 12.44840791 -0.14996899 15.51953125 2.83984375 C17.74391488 6.06253462 18.50013749 7.82333399 18.625 11.6875 C18.68107422 12.80898438 18.68107422 12.80898438 18.73828125 13.953125 C18.09931947 17.68137908 16.78684433 19.56529019 14.3125 22.4375 C11.40210343 24.17287363 8.35057338 25.36396785 5.1875 26.5625 C4.32801758 26.90740479 3.46853516 27.25230957 2.58300781 27.60766602 C-0.80486963 28.96146801 -4.20827829 30.2614464 -7.6328125 31.51953125 C-13.77332395 33.79880584 -19.15274751 36.97288872 -24.68847656 40.44116211 C-29.49514107 43.4375 -29.49514107 43.4375 -31.6875 43.4375 C-32.0175 44.4275 -32.3475 45.4175 -32.6875 46.4375 C-34.67815541 47.45597486 -36.67998185 48.45267978 -38.6875 49.4375 C-39.79403921 50.30450602 -40.87811666 51.20096785 -41.9375 52.125 C-44.6875 54.4375 -44.6875 54.4375 -46.6875 54.4375 C-46.914375 55.015 -47.14125 55.5925 -47.375 56.1875 C-49.05564434 59.06860459 -51.02444563 60.41126298 -53.6875 62.4375 C-58.19464098 66.11715806 -61.84689352 69.29735493 -64.6875 74.4375 C-65.83877267 75.55587916 -66.99107667 76.67325205 -68.15234375 77.78125 C-72.312556 82.26962149 -76.74364466 87.60593397 -78.6875 93.4375 C-79.3475 93.4375 -80.0075 93.4375 -80.6875 93.4375 C-80.91566406 94.08203125 -81.14382812 94.7265625 -81.37890625 95.390625 C-83.49255392 100.31195389 -86.27441704 104.86772141 -88.96679688 109.4921875 C-91.91829392 114.68259958 -93.95728452 119.73607346 -95.6875 125.4375 C-96.25683469 127.1483316 -96.82990409 128.85792384 -97.40625 130.56640625 C-100.99840752 141.45022609 -104.04329272 152.07982204 -105.6875 163.4375 C-105.96207031 165.22800781 -105.96207031 165.22800781 -106.2421875 167.0546875 C-109.44715038 193.64756312 -106.06007961 223.04647501 -94.57080078 247.41699219 C-93.69416023 249.42226505 -93.07453256 251.39068706 -92.5 253.5 C-87.20062666 270.03520317 -74.97244853 287.45967519 -62.6875 299.4375 C-61.59990778 300.7255827 -60.51698389 302.01761451 -59.4375 303.3125 C-56.2175185 307.04570999 -52.67786498 309.92160729 -48.734375 312.859375 C-46.6875 314.4375 -46.6875 314.4375 -44.3125 316.875 C-30.5838357 330.27679134 -11.74181846 339.50105917 6.3125 345.4375 C7.50617188 345.87449219 8.69984375 346.31148438 9.9296875 346.76171875 C46.27930941 359.77722853 85.18256939 357.81376299 121.27514648 345.04248047 C125.10327663 343.90573913 128.65039969 343.57964178 132.25 345.4375 C133.92320976 348.58707132 134.02759578 351.9601715 133.3125 355.4375 C124.67606434 366.09320255 98.0787862 368.7715509 84.98583984 370.16064453 C77.31030134 370.73914119 69.63221258 370.84040815 61.9375 370.875 C61.14574371 370.88144531 60.35398743 370.88789063 59.53823853 370.89453125 C47.84817226 370.95278966 36.77854109 369.67942194 25.3125 367.4375 C23.92913452 367.1734436 23.92913452 367.1734436 22.51782227 366.90405273 C18.94602311 366.16923648 15.53583577 365.21051624 12.0859375 364.03125 C9.13765658 363.03535949 6.1863996 362.09068777 3.19921875 361.21875 C-9.05752644 357.53998501 -19.67669951 351.88101851 -30.6875 345.4375 C-31.94951314 344.71568322 -33.21243806 343.99545658 -34.4765625 343.27734375 C-43.66423291 338.01287567 -43.66423291 338.01287567 -46.6875 335.4375 C-46.6875 334.7775 -46.6875 334.1175 -46.6875 333.4375 C-47.51701172 333.05078125 -47.51701172 333.05078125 -48.36328125 332.65625 C-56.44977462 328.41593751 -62.81253406 322.56623455 -68.69921875 315.67578125 C-70.33826748 313.83064387 -71.85036535 312.40262957 -73.8125 310.9375 C-78.54599306 306.82141908 -82.69081736 301.42754791 -84.6875 295.4375 C-85.6775 295.1075 -86.6675 294.7775 -87.6875 294.4375 C-89.15234375 292.65234375 -89.15234375 292.65234375 -90.625 290.375 C-91.10839844 289.64152344 -91.59179688 288.90804688 -92.08984375 288.15234375 C-93.36829093 285.97992128 -94.50446642 283.82912048 -95.61328125 281.5703125 C-96.89654291 278.95897106 -98.24337858 276.44431683 -99.765625 273.96484375 C-108.45116701 259.73263356 -113.40900703 244.07660976 -117.5625 228 C-117.75360352 227.26942383 -117.94470703 226.53884766 -118.14160156 225.78613281 C-121.30906996 212.71960709 -122.10052825 199.39381812 -122.0625 186 C-122.06195618 185.26893036 -122.06141235 184.53786072 -122.06085205 183.78463745 C-121.99342843 163.88577037 -118.99728773 145.1699238 -112.35742188 126.38427734 C-111.77641193 124.695876 -111.26453009 122.983989 -110.765625 121.26953125 C-107.50333708 110.11312209 -101.72406158 98.7027321 -94.6875 89.4375 C-94.07476578 88.20164623 -93.4909421 86.95101875 -92.9375 85.6875 C-90.61844792 80.89776551 -87.26912465 77.3203828 -83.6875 73.4375 C-81.61437029 70.96126174 -79.82880078 68.68938399 -78.25 65.875 C-76.41533383 63.01292077 -74.34864292 61.55431823 -71.6875 59.4375 C-69.82100951 57.34525688 -68.01992363 55.21170876 -66.23828125 53.046875 C-65.72652344 52.51578125 -65.21476562 51.9846875 -64.6875 51.4375 C-64.0275 51.4375 -63.3675 51.4375 -62.6875 51.4375 C-62.44 50.84453125 -62.1925 50.2515625 -61.9375 49.640625 C-60.48988941 47.08921134 -59.0433145 45.92070638 -56.6875 44.1875 C-53.25357163 41.62445555 -49.92226765 38.98668119 -46.625 36.25 C-43.11025622 33.42410261 -39.75939485 31.28384137 -35.66796875 29.421875 C-33.43578727 28.31238835 -31.48242322 26.98697075 -29.4375 25.5625 C-24.14961166 21.93228594 -18.46601097 19.19475904 -12.6875 16.4375 C-41.42992354 17.98969792 -72.9505267 27.22763135 -97.6640625 42.00390625 C-100.9987605 43.58508734 -103.04353896 43.85158648 -106.6875 43.4375 C-109.0625 41.875 -109.0625 41.875 -110.6875 39.4375 C-111.25 35.9375 -111.25 35.9375 -110.6875 32.4375 C-106.82164052 28.73582761 -102.20885082 26.38780699 -97.5 23.9375 C-96.73969482 23.54022705 -95.97938965 23.1429541 -95.19604492 22.73364258 C-86.4188551 18.19952543 -77.76019816 15.05861032 -68.23046875 12.43359375 C-65.01875843 11.53063219 -61.85932663 10.53239847 -58.6875 9.5 C-39.41903505 3.54771474 -20.13986777 0.36092457 0 0 Z "
     fill="#010100"
     transform="translate(248.6875,14.5625)"
     id="path3" />
  <path
     d="M0 0 C5.2075551 4.52830878 7.9819052 10.08147222 10.19921875 16.54296875 C11.01166828 18.89578503 11.93903072 21.19393101 12.875 23.5 C13.60203125 23.54898438 14.3290625 23.59796875 15.078125 23.6484375 C35.07993642 25.13575168 35.07993642 25.13575168 40 28.875 C43.33666431 33.54633003 44.40839195 36.43751872 43.59765625 42.140625 C41.96139619 47.48279297 37.53051835 51.10056965 33.375 54.61328125 C28.55547408 58.63664601 28.55547408 58.63664601 26.4921875 64.3046875 C26.74437043 67.12455122 27.20709554 69.75081907 27.875 72.5 C30.28023237 85.59515399 30.28023237 85.59515399 27.828125 90.6640625 C26.10929459 93.12097891 24.59190685 95.14154658 21.875 96.5 C13.87272346 97.6198302 9.62353102 95.53953556 3.25 91 C-2.18041821 87.42452797 -2.18041821 87.42452797 -8.43945312 86.77929688 C-13.52454619 88.50357778 -17.76465163 91.42579755 -22.125 94.5 C-25.10300032 96.2631482 -27.16349156 96.77370896 -30.625 96.75 C-31.3778125 96.75515625 -32.130625 96.7603125 -32.90625 96.765625 C-36.15103733 96.37716455 -38.28634619 95.48220716 -40.42578125 92.9765625 C-44.35819483 85.77979016 -43.15299066 78.840405 -41.31640625 71.0859375 C-40.58165734 67.7738569 -40.01141986 64.89377453 -40.125 61.5 C-42.22784432 58.29159525 -44.91304661 56.52358669 -48.125 54.5 C-52.35893066 51.35025468 -55.35661258 48.60867475 -57.125 43.5 C-57.69456447 39.10169657 -57.37403211 35.3965156 -56.1875 31.125 C-52.2846189 26.15769678 -46.56417019 25.68302024 -40.63671875 24.83203125 C-39.83500244 24.7136792 -39.03328613 24.59532715 -38.20727539 24.47338867 C-36.58586018 24.24350695 -34.9610757 24.03611947 -33.33374023 23.8527832 C-28.68264111 23.27566879 -28.68264111 23.27566879 -25.23046875 20.3046875 C-24.01601243 17.22348738 -22.87857251 14.13593838 -21.8125 11 C-19.74149308 5.46897245 -18.16485343 2.56773687 -13.125 -0.5 C-8.30250742 -2.10749753 -4.62964993 -2.22223196 0 0 Z "
     fill="#010100"
     transform="translate(349.125,120.5)"
     id="path4" />
  <path
     d="M0 0 C2 1.5625 2 1.5625 3 4 C3 8.27632448 2.52754113 10.35187804 -0.1875 13.6875 C-3.01855404 16.01525554 -5.92258576 18.0125033 -9 20 C-11.5696084 21.94287464 -13.90927287 23.90927287 -16.1875 26.1875 C-18.65116277 28.65116277 -21.1841033 30.90473345 -23.8125 33.1875 C-28.15863077 37.06150645 -31.73165799 41.18954126 -35.26953125 45.80078125 C-37 48 -37 48 -39.5 50.4375 C-43.52087665 54.55889857 -46.6649076 59.31863177 -50 64 C-52.10917626 66.86536599 -54.22077369 69.72889509 -56.3359375 72.58984375 C-57.7785439 74.67925255 -58.94242078 76.69789573 -60 79 C-60.66 79 -61.32 79 -62 79 C-62.11085937 79.72445312 -62.22171875 80.44890625 -62.3359375 81.1953125 C-63.04047452 84.17094534 -64.08938585 86.23899924 -65.625 88.875 C-78.55144077 111.97560109 -86.5730261 136.96056105 -91 163 C-91.1757959 164.01191406 -91.3515918 165.02382812 -91.53271484 166.06640625 C-92.54510721 174.58869772 -92.30664907 183.22653905 -92.35009766 191.79882812 C-92.36647552 194.15081807 -92.39351644 196.50276218 -92.43212891 198.85449219 C-92.84341971 224.12562951 -89.11708376 250.15557091 -79.00390625 273.5546875 C-78 276 -78 276 -77.02734375 279.0078125 C-73.20127899 290.82884412 -67.10881064 301.39135573 -60.78759766 312.04296875 C-58.47576346 315.96433383 -57.19945791 318.39688296 -58 323 C-59.625 325.875 -59.625 325.875 -62 328 C-64.9375 328.625 -64.9375 328.625 -68 328 C-73.63314532 323.5973028 -76.27284004 317.27009821 -79.4375 311 C-79.98470703 309.93910156 -80.53191406 308.87820313 -81.09570312 307.78515625 C-87.22625135 295.81426326 -92.65392561 284.01443828 -96.5625 271.125 C-97.13883179 269.24240479 -97.13883179 269.24240479 -97.72680664 267.32177734 C-101.13700251 256.03279758 -104.00721319 244.62725211 -106 233 C-106.27602051 231.39342529 -106.27602051 231.39342529 -106.55761719 229.75439453 C-108.24575251 218.71531357 -108.39849476 207.77279122 -108.375 196.625 C-108.37445618 195.65333893 -108.37391235 194.68167786 -108.37335205 193.68057251 C-108.33415933 178.43162383 -107.52460591 163.89472351 -104 149 C-103.76442383 147.98663574 -103.52884766 146.97327148 -103.28613281 145.92919922 C-100.99124496 136.24717236 -98.417312 126.80190391 -94.89160156 117.49047852 C-94.04168371 115.1164336 -93.36966581 112.75530803 -92.75 110.3125 C-90.77344871 103.60484191 -87.44158843 97.52331483 -84.21826172 91.35107422 C-82.90616935 88.81892001 -81.62620322 86.27190068 -80.34765625 83.72265625 C-75.81981923 74.7797184 -71.34134791 66.35559165 -64.97265625 58.5703125 C-62.8633856 55.95335936 -62.8633856 55.95335936 -61.09765625 52.56640625 C-59.01113312 48.80095987 -56.36324611 45.88464072 -53.375 42.8125 C-50.38280728 39.7140057 -47.89094667 36.89749707 -46 33 C-44.30078125 31.32421875 -44.30078125 31.32421875 -42.3125 29.6875 C-37.82217893 25.89113764 -33.69100552 21.81367244 -29.62890625 17.56640625 C-27.44421957 15.46554448 -25.10654185 13.59313929 -22.75 11.6875 C-19.44863549 9.01059994 -16.18669729 6.31219227 -13 3.5 C-8.69658624 -0.08617814 -5.5212405 -0.4929679 0 0 Z "
     fill="#010100"
     transform="translate(123,60)"
     id="path5" />
  <path
     d="M0 0 C4.35132599 2.12731493 5.40752136 4.76928767 7 9.125 C7.268125 9.99382813 7.53625 10.86265625 7.8125 11.7578125 C8.83358266 14.18664575 8.83358266 14.18664575 11.31640625 15.25390625 C13.86514038 15.96250628 16.32119789 16.43638074 18.9375 16.8125 C24.04363959 17.81086461 26.60758227 18.99868678 30 23 C31.34188322 26.76642222 31.48799059 29.78002353 30 33.5 C28 36 28 36 26.203125 37.484375 C22.29330546 41.00589365 22.29330546 41.00589365 20.86035156 45.92871094 C20.97860345 48.93122153 21.25370602 51.86531667 21.72753906 54.83300781 C22.46271893 60.15881574 22.46271893 60.15881574 20.99707031 62.82324219 C18.72532684 65.61424131 16.78401995 67.73598013 13.15234375 68.2734375 C7.3053154 68.5415552 4.00986318 67.17993672 -0.9140625 64.11328125 C-3.6817107 62.63616564 -5.92266952 62.60547045 -9 63 C-9 63.66 -9 64.32 -9 65 C-14.37330889 68.39366878 -18.86946489 68.32712342 -25 68 C-25 67.34 -25 66.68 -25 66 C-25.639375 65.71125 -26.27875 65.4225 -26.9375 65.125 C-29 64 -29 64 -30 62 C-30.09710005 60.25219918 -30.12978276 58.50048943 -30.125 56.75 C-30.12886719 55.35007812 -30.12886719 55.35007812 -30.1328125 53.921875 C-30 51 -30 51 -29.1875 47.96875 C-28.66431459 44.82992547 -28.66431459 44.82992547 -31.0546875 42.296875 C-31.98539063 41.45640625 -32.91609375 40.6159375 -33.875 39.75 C-39.84918912 34.25840554 -39.84918912 34.25840554 -40.23828125 31.01171875 C-40.26277344 30.24472656 -40.28726563 29.47773437 -40.3125 28.6875 C-40.34988281 27.92824219 -40.38726562 27.16898438 -40.42578125 26.38671875 C-39.804655 22.90499271 -38.5798438 21.40839848 -36 19 C-33.33492411 18.31159347 -30.8888142 17.83177772 -28.1875 17.4375 C-23.49755977 16.54590638 -20.75639978 15.86308691 -17.53515625 12.1875 C-15.72188349 8.99879787 -15.72188349 8.99879787 -14.359375 5.77734375 C-11.24732569 -0.58089493 -6.47989662 -0.98708103 0 0 Z "
     fill="#010000"
     transform="translate(55,15)"
     id="path6" />
  <path
     d="M0 0 C2.85223608 2.65324286 4.48793265 4.67584345 5.88671875 8.29296875 C7.01987248 11.03851514 7.91898758 12.85554208 10 15 C13.88721769 16.24579333 17.56754258 16.87065381 21.6015625 17.3671875 C25 18 25 18 26.8984375 19.3828125 C29.70323822 23.50049867 29.45632578 28.22548032 29 33 C27.86328364 35.71548907 26.85097527 37.40093034 24.4296875 39.10546875 C22.37868507 40.655645 21.23190624 41.71575352 20 44 C19.93458337 47.95552563 20.30685934 51.52277538 20.86328125 55.44140625 C21.01726187 59.44930172 20.41384008 60.87488918 18 64 C15.24554381 66.83096887 13.66150122 67.8855094 9.75 68.5625 C5.44997693 67.91749654 2.68282692 66.4417347 -0.984375 64.19140625 C-3.08350394 62.85521992 -3.08350394 62.85521992 -6 62 C-9.07288903 63.37903101 -11.95209886 65.01517288 -14.89453125 66.65234375 C-18.2671316 68.11592503 -20.36623072 68.38303255 -24 68 C-27.27097167 66.30161087 -29.41387942 65.04757424 -31.23046875 61.80078125 C-32.22025947 58.19834496 -31.64988245 55.55285873 -31.0625 51.875 C-30.54898355 47.56441431 -30.60108578 44.66951788 -32.89453125 40.8203125 C-35.31093314 37.99582503 -35.31093314 37.99582503 -37.8984375 35.5625 C-40.54021151 32.34130343 -40.82920641 30.11802331 -41 26 C-39.3333589 21.18525904 -37.52718552 19.20977307 -33 17 C-30.81979145 16.74115027 -28.62977225 16.55689374 -26.4375 16.4375 C-23.00250419 16.10092744 -23.00250419 16.10092744 -20 15 C-18.23407406 12.53921096 -17.55674746 10.39309813 -16.75390625 7.484375 C-15.70008828 4.01168988 -13.79929516 2.22508076 -11 0 C-7.13130912 -1.28956363 -3.85484754 -1.20416652 0 0 Z "
     fill="#000000"
     transform="translate(251,220)"
     id="path7" />
  <path
     d="M0 0 C4.79379655 3.37744757 7.56951838 8.73568024 10 14 C10 14.66 10 15.32 10 16 C10.6290625 16.03738281 11.258125 16.07476562 11.90625 16.11328125 C18.48964283 16.61893341 24.69927791 17.3181633 30 21.625 C31.59554049 25.41440867 31.76893003 28.96674439 31 33 C28.97578936 35.5600311 26.83768613 37.33523073 24.296875 39.3515625 C22.60902525 40.82645925 21.23876875 42.12857435 20 44 C20.00986279 47.48447091 20.00986279 47.48447091 20.546875 49.7890625 C21.5067858 54.47276518 21.99577115 59.43944563 20.234375 63.96875 C18.54134889 66.49636645 16.70548905 67.83161672 13.7578125 68.53515625 C7.82119682 68.89579178 3.94448218 67.34617997 -0.89453125 63.99609375 C-3.68991216 62.67360371 -5.09409645 63.07011086 -8 64 C-9.0725 64.680625 -10.145 65.36125 -11.25 66.0625 C-15.40181264 68.52283341 -19.27816522 69.01120963 -24 68 C-27.56547856 66.04977999 -29.69198828 63.92403517 -31 60 C-31.13198218 56.76643654 -31.15521547 53.74384028 -30.4921875 50.56640625 C-29.97564518 47.87300701 -29.66224575 45.72835254 -30 43 C-31.80509488 40.7447033 -33.66237496 39.2307518 -36.01953125 37.5703125 C-38.20850517 35.83467638 -39.0373615 34.60213219 -40 32 C-40.19569268 28.28183899 -40.17990239 25.53970718 -39 22 C-34.87648456 18.22992874 -31.50515475 17.74409695 -26 17 C-20.62438859 16.01708454 -20.62438859 16.01708454 -16.8984375 12.25 C-15.34016656 9.04982619 -15.34016656 9.04982619 -14.2109375 5.8125 C-11.45736473 -0.58289482 -6.32820181 -1.17020608 0 0 Z "
     fill="#010100"
     transform="translate(466,429)"
     id="path8" />
  <path
     d="M0 0 C2.75 1.3125 2.75 1.3125 5 4 C5.65158132 5.85215456 6.29676112 7.7065667 6.9375 9.5625 C8.0367415 12.56141959 8.0367415 12.56141959 10 15 C13.5590773 16.33465399 16.90812181 16.87071953 20.6640625 17.41796875 C25.36311895 18.23782755 27.08280335 19.24931859 30 23 C31.31980489 26.78292914 31.49330644 29.7667339 30 33.5 C28 36 28 36 26.203125 37.484375 C22.29330546 41.00589365 22.29330546 41.00589365 20.86035156 45.92871094 C20.97860345 48.93122153 21.25370602 51.86531667 21.72753906 54.83300781 C22.46271893 60.15881574 22.46271893 60.15881574 20.99707031 62.82324219 C18.00424249 66.50014494 16.18016401 67.87355386 11.5 68.375 C6.74200385 68.36633334 3.40979769 66.38968553 -0.60546875 63.99609375 C-3.57496482 62.76082214 -4.9734364 63.01575168 -8 64 C-9.0725 64.680625 -10.145 65.36125 -11.25 66.0625 C-15.38999839 68.5302283 -19.2840221 68.90080477 -24 68 C-26.87029869 66.20606332 -28.49131638 65.01736724 -30 62 C-30.09710005 60.25219918 -30.12978276 58.50048943 -30.125 56.75 C-30.12886719 55.35007812 -30.12886719 55.35007812 -30.1328125 53.921875 C-30 51 -30 51 -29.21875 47.93359375 C-28.66799067 44.88356299 -28.66799067 44.88356299 -30.8359375 42.55078125 C-32.09277344 41.44283203 -32.09277344 41.44283203 -33.375 40.3125 C-38.75771781 35.48805168 -38.75771781 35.48805168 -39.203125 30.9140625 C-39.21859375 30.15867187 -39.2340625 29.40328125 -39.25 28.625 C-39.27578125 27.87476562 -39.3015625 27.12453125 -39.328125 26.3515625 C-38.88647662 23.1864158 -38.02009402 21.48433923 -36 19 C-33.00390625 17.890625 -33.00390625 17.890625 -29.5625 17.25 C-28.42941406 17.02828125 -27.29632813 16.8065625 -26.12890625 16.578125 C-23 16 -23 16 -20.77734375 15.7890625 C-17.83318155 14.4819839 -17.26166158 11.98430911 -16 9.125 C-12.40762373 1.02262961 -8.76593108 -1.32197165 0 0 Z "
     fill="#010100"
     transform="translate(395,15)"
     id="path9" />
  <path
     d="M0 0 C3.7883225 4.41563612 5.97818713 8.98191108 8.33984375 14.2578125 C10.29543288 17.48798561 11.53657248 18.52528121 15 20 C17.74513523 20.46672822 20.36347044 20.82356985 23.125 21.0625 C30.61619718 21.74413146 30.61619718 21.74413146 34 24 C29.90026521 28.76098233 25.92840046 33.08627023 21 37 C18.31203236 40.58395685 18.60112606 44.7062393 19 49 C19.41610867 51.04165467 19.92804271 53.02862815 20.48828125 55.03515625 C21.25970326 57.9971812 21.62064246 60.96513972 22 64 C17.38129398 62.72985584 13.85714608 60.73483875 9.87890625 58.17578125 C5.51046926 55.44210239 2.14044514 54.59417538 -3 55 C-6.35412252 56.4595335 -6.35412252 56.4595335 -9.625 58.4375 C-16.47537175 62.38963755 -16.47537175 62.38963755 -20 63 C-19.9278125 62.18917969 -19.855625 61.37835938 -19.78125 60.54296875 C-17.94969034 48.07262761 -17.94969034 48.07262761 -20.5 36.25 C-21.9803337 34.91769967 -23.46928492 33.59470848 -24.9765625 32.29296875 C-25.68554688 31.68066406 -26.39453125 31.06835938 -27.125 30.4375 C-27.80820312 29.87933594 -28.49140625 29.32117188 -29.1953125 28.74609375 C-31.06052306 26.94144197 -31.99263363 25.37302283 -33 23 C-31.81921875 22.80664062 -30.6384375 22.61328125 -29.421875 22.4140625 C-27.86452669 22.15137724 -26.30723809 21.88833782 -24.75 21.625 C-23.58404297 21.43550781 -23.58404297 21.43550781 -22.39453125 21.2421875 C-18.55972126 20.58666442 -15.44047843 19.88407152 -12 18 C-11.01 18 -10.02 18 -9 18 C-8.74476563 17.31550781 -8.48953125 16.63101563 -8.2265625 15.92578125 C-6.81150892 12.55038274 -5.12741434 9.40025962 -3.375 6.1875 C-2.88773437 5.2912793 -2.88773437 5.2912793 -2.390625 4.37695312 C-1.59620849 2.91662865 -0.79844624 1.45812509 0 0 Z "
     fill="#FADD7E"
     transform="translate(342,137)"
     id="path10" />
  <path
     d="M0 0 C2.5 2.3125 2.5 2.3125 5 5 C5 5.99 5 6.98 5 8 C10.94 9.485 10.94 9.485 17 11 C16.030625 11.9075 15.06125 12.815 14.0625 13.75 C9.85202021 18.55490046 10.020184 23.85397132 10 30 C9.26652344 29.67515625 8.53304688 29.3503125 7.77734375 29.015625 C1.78253642 26.82343104 -4.15774857 27.6031789 -10 30 C-9.94199219 29.20335937 -9.88398438 28.40671875 -9.82421875 27.5859375 C-9.3033741 20.44114082 -9.3033741 20.44114082 -12.5 14.375 C-13.325 13.59125 -14.15 12.8075 -15 12 C-15 11.34 -15 10.68 -15 10 C-14.41992188 9.9484375 -13.83984375 9.896875 -13.2421875 9.84375 C-9.45466309 9.29374646 -6.84847691 8.83990643 -4.06640625 6.0859375 C-2.60654636 4.10444901 -1.25507233 2.11639648 0 0 Z "
     fill="#F6DA7D"
     transform="translate(461,449)"
     id="path11" />
  <path
     d="M0 0 C2.0388259 1.89004671 2.95595073 2.87099856 3.875 5.5625 C4.78748672 8.15927216 4.78748672 8.15927216 7.1875 9.25 C10.44224144 10.11793105 13.65668436 10.60666875 17 11 C16.566875 11.43828125 16.13375 11.8765625 15.6875 12.328125 C10.9799411 17.68951153 10.42264202 21.60701787 10.7890625 28.65625 C10.85867187 29.4296875 10.92828125 30.203125 11 31 C5.25 29.125 5.25 29.125 3 28 C-2.19443385 27.51679685 -5.4134199 28.79844155 -10 31 C-9.94199219 30.28714844 -9.88398438 29.57429688 -9.82421875 28.83984375 C-9.48584855 21.65672784 -10.35310012 18.46010736 -15 13 C-15 12.34 -15 11.68 -15 11 C-14.25234375 10.87625 -13.5046875 10.7525 -12.734375 10.625 C-6.88176869 9.5620258 -6.88176869 9.5620258 -2.37890625 6.01953125 C-1.41910049 4.03312007 -0.62752231 2.11349513 0 0 Z "
     fill="#F6DA7D"
     transform="translate(245,239)"
     id="path12" />
  <path
     d="M0 0 C0.66 0 1.32 0 2 0 C2.71072428 1.24672884 3.3684482 2.5238557 4 3.8125 C6.2345832 7.62681875 8.0803324 8.77285098 12.3125 10 C13.86828331 10.36339464 15.42939461 10.70722696 17 11 C16.360625 11.763125 15.72125 12.52625 15.0625 13.3125 C12.07830113 17.20100155 11.88144543 19.9228612 11.9375 24.6875 C11.94652344 25.68136719 11.95554687 26.67523438 11.96484375 27.69921875 C11.97644531 28.45847656 11.98804687 29.21773437 12 30 C6.25 28.125 6.25 28.125 4 27 C-0.86758823 26.55749198 -3.78389753 27.59079859 -8 30 C-8.00257812 29.29875 -8.00515625 28.5975 -8.0078125 27.875 C-8.30774757 20.51659284 -9.96802327 16.37051951 -15 11 C-14.00419922 10.94005859 -14.00419922 10.94005859 -12.98828125 10.87890625 C-7.4181425 10.27792772 -7.4181425 10.27792772 -3.22265625 6.86328125 C-2.00290674 4.61116404 -0.93220669 2.38448658 0 0 Z "
     fill="#F7DB7D"
     transform="translate(49,35)"
     id="path13" />
  <path
     d="M0 0 C1.93375882 1.74959131 3.17024734 3.2908392 4.5 5.5625 C5.91804659 8.24718511 5.91804659 8.24718511 9 10 C11.32387947 10.39387788 13.65793749 10.73486085 16 11 C15.6390625 11.53367187 15.278125 12.06734375 14.90625 12.6171875 C11.19020626 18.58350217 10.34522271 23.03025953 11 30 C9.7315625 29.5359375 9.7315625 29.5359375 8.4375 29.0625 C1.73725056 26.82154438 1.73725056 26.82154438 -4.8125 28.4375 C-5.8953125 29.2109375 -5.8953125 29.2109375 -7 30 C-7.66 30 -8.32 30 -9 30 C-9.00257813 29.21496094 -9.00515625 28.42992188 -9.0078125 27.62109375 C-9.25505123 20.90444147 -9.86798499 16.90693248 -14.72265625 12.109375 C-15.14417969 11.74328125 -15.56570313 11.3771875 -16 11 C-15.31292969 10.87882812 -14.62585938 10.75765625 -13.91796875 10.6328125 C-13.01691406 10.46523438 -12.11585938 10.29765625 -11.1875 10.125 C-10.29417969 9.96257813 -9.40085937 9.80015625 -8.48046875 9.6328125 C-5.77272154 9.08811551 -5.77272154 9.08811551 -3 7 C-1.92863949 4.69855891 -0.92010283 2.3659787 0 0 Z "
     fill="#F8DB7E"
     transform="translate(390,35)"
     id="path14" />
  <path
     d="M0 0 C2.58063263 1.69075931 2.97168693 2.91317326 3.9375 5.875 C4 9 4 9 2.5625 11.875 C-0.12078102 14.10015987 -0.7552771 14.36575848 -4.0625 14.5 C-8 14 -8 14 -9.71484375 12.75 C-11.77054543 9.95074665 -11.53488381 7.47357539 -11.4140625 4.1015625 C-11 2 -11 2 -8.875 -0.125 C-5.40855411 -1.18000527 -3.45658971 -1.05200556 0 0 Z "
     fill="#000000"
     transform="translate(415,197)"
     id="path15" />
  <path
     d="M0 0 C1.59633757 3.19267515 1.36932376 6.52693615 1 10 C0 12 0 12 -2 13 C-5.09288558 13.39274738 -7.04689172 13.63577985 -10 13 C-12.76386182 10.5816209 -13.79835577 9.03342666 -14.5 5.4375 C-13.83704126 2.20557614 -12.54667305 1.03733844 -10 -1 C-6.02972626 -2.32342458 -3.88343142 -1.36639254 0 0 Z "
     fill="#000000"
     transform="translate(325,307)"
     id="path16" />
  <path
     d="M0 0 C2.4375 1.625 2.4375 1.625 4 4 C4.5 7 4.5 7 4 10 C2.03600004 12.69140735 0.64117537 13.77558862 -2.5 14.875 C-5.38784725 15.01939236 -6.63411591 14.6316442 -9 13 C-11.32749345 9.50875983 -11.50299316 8.10777749 -11 4 C-8.05899778 -0.47032338 -5.13105401 -0.73300772 0 0 Z "
     fill="#000000"
     transform="translate(222,138)"
     id="path17" />
  <path
     d="M0 0 C3.35435537 0.57095411 4.77904474 0.84343968 6.9375 3.5 C7.50309975 7.954098 7.70948078 10.23395152 5.375 14.0625 C2.9375 15.5 2.9375 15.5 -0.625 15.4375 C-5.43231132 14.12641509 -5.43231132 14.12641509 -7.0625 11.5 C-8.0625 8.625 -8.0625 8.625 -8.0625 5.5 C-5.61599377 2.08971858 -4.18014282 0.6824723 0 0 Z "
     fill="#000000"
     transform="translate(58.0625,447.5)"
     id="path18" />
</svg>
