<?xml version="1.0" encoding="UTF-8"?>
<svg version="1.1" xmlns="http://www.w3.org/2000/svg" width="512" height="512">
<path d="M0 0 C2.39099121 -0.38095093 2.39099121 -0.38095093 5.42773438 -0.38818359 C6.56231079 -0.39764008 7.69688721 -0.40709656 8.86584473 -0.4168396 C10.71115784 -0.40773056 10.71115784 -0.40773056 12.59375 -0.3984375 C13.85135132 -0.40130768 15.10895264 -0.40417786 16.40466309 -0.40713501 C19.06810252 -0.40917987 21.73072052 -0.40512067 24.39404297 -0.39111328 C27.81084964 -0.3740206 31.22694944 -0.38386058 34.64373016 -0.40183067 C37.89792898 -0.41526686 41.15204197 -0.40586446 44.40625 -0.3984375 C45.63645874 -0.40451019 46.86666748 -0.41058289 48.13415527 -0.4168396 C49.8360199 -0.40265488 49.8360199 -0.40265488 51.57226562 -0.38818359 C53.07545349 -0.38460342 53.07545349 -0.38460342 54.60900879 -0.38095093 C55.79254944 -0.19238022 55.79254944 -0.19238022 57 0 C59.06549026 3.09823539 59.24972439 3.72656683 59.23046875 7.2265625 C59.22853516 8.51022705 59.22853516 8.51022705 59.2265625 9.81982422 C59.20722656 11.20838623 59.20722656 11.20838623 59.1875 12.625 C59.18105469 13.58035645 59.17460937 14.53571289 59.16796875 15.52001953 C59.04922882 27.02109485 58.54195509 38.51228173 58 50 C60.23413059 47.00366855 62.46136725 44.00227694 64.6875 41 C65.31333984 40.16082031 65.93917969 39.32164063 66.58398438 38.45703125 C69.904456 33.97178686 73.06052544 29.4716615 75.91308594 24.6730957 C77.60509107 22.06857836 79.69862273 20.06533857 82 18 C82.598125 17.401875 83.19625 16.80375 83.8125 16.1875 C87.31561563 14.28580866 90.20069599 14.14500607 94 15 C97.27026337 16.52862885 100.35562678 18.23852321 103.4609375 20.078125 C106.12113779 21.60534902 108.81027645 22.75652074 111.671875 23.859375 C117.62023661 26.17231516 123.22487571 29.04319921 128.875 32 C130.40253906 32.78117187 130.40253906 32.78117187 131.9609375 33.578125 C132.940625 34.08859375 133.9203125 34.5990625 134.9296875 35.125 C135.80866699 35.58132812 136.68764648 36.03765625 137.59326172 36.5078125 C140.16733005 38.10374531 142.04656456 39.68629755 144 42 C144.5625 45.4375 144.5625 45.4375 144 49 C140.57449991 52.97738621 136.63677444 55.67998679 132.1875 58.375 C127.34619773 61.39185204 122.97083016 64.51029188 118.77734375 68.40234375 C116.9931932 70.00611864 115.14594863 71.36687028 113.1875 72.75 C106.39708492 77.74216287 100.20939585 84.12102617 94.9375 90.6875 C94.298125 91.450625 93.65875 92.21375 93 93 C92.34 93 91.68 93 91 93 C90.67515625 93.79277344 90.67515625 93.79277344 90.34375 94.6015625 C88.49434485 97.90253564 86.00368464 100.56480556 83.5 103.375 C79.16588996 108.33241898 75.0818313 113.39357111 71.25 118.75 C70.82009766 119.34603027 70.39019531 119.94206055 69.94726562 120.55615234 C67.69989577 123.49412338 67.69989577 123.49412338 67 127 C68.02738281 127.49628906 69.05476563 127.99257812 70.11328125 128.50390625 C92.31945614 139.34109973 92.31945614 139.34109973 98 147 C98.57621094 147.76699219 99.15242188 148.53398437 99.74609375 149.32421875 C109.03479835 162.30266282 113.59626254 174.86774776 113.5 190.9375 C113.49427979 192.11731445 113.48855957 193.29712891 113.48266602 194.51269531 C112.75389647 233.44910983 105.89855254 273.1542529 98.98550415 311.40899658 C98.21564934 315.69034734 97.56006597 319.96518112 97.02636719 324.28149414 C93.1030746 355.7752748 84.70915621 387.19452986 75.71191406 417.55273438 C75.00547104 419.98119284 74.33873114 422.41767232 73.6796875 424.859375 C70.99445212 434.59749112 67.58324646 443.8546609 63.5625 453.125 C63.12010986 454.15592773 62.67771973 455.18685547 62.22192383 456.24902344 C59.53582136 462.26675236 56.45681866 467.56751711 52.53100586 472.86376953 C51.15802658 474.77950365 50.07139301 476.65724454 49 478.75 C45.51953371 484.40575773 40.31194235 488.81509688 34 491 C27.27788643 491.9438225 21.89094997 491.34376186 16.125 487.66796875 C8.64033586 481.79305774 4.18137287 474.40770674 0 466 C-0.56203125 464.91203125 -1.1240625 463.8240625 -1.703125 462.703125 C-6 454.31016355 -6 454.31016355 -6 452 C-6.66 452 -7.32 452 -8 452 C-8.28875 452.721875 -8.5775 453.44375 -8.875 454.1875 C-9.60955521 456.02388803 -10.39965568 457.83927693 -11.25 459.625 C-11.62125 460.800625 -11.62125 460.800625 -12 462 C-11.34 462.99 -10.68 463.98 -10 465 C-9.87343432 470.44232439 -12.51036148 473.27684199 -16.04296875 477.046875 C-25.66398421 486.64868684 -35.12897284 491.12570737 -48.875 491.375 C-59.46671545 491.34211782 -66.18134837 488.34411615 -73.89453125 481.1953125 C-75.98174678 479.69074498 -75.98174678 479.69074498 -78.5 480.62109375 C-80.87296962 481.92993481 -83.00794035 483.33043257 -85.1875 484.9375 C-95.48847812 491.81042015 -106.93095028 492.2071674 -119 491 C-123.23720303 490.08336223 -127.05278106 488.77657154 -131 487 C-132.7325 486.2575 -132.7325 486.2575 -134.5 485.5 C-137.09725898 483.94164461 -138.98316641 482.24954516 -141 480 C-144.7666532 481.77304171 -148.01004622 484.05278845 -151.390625 486.46484375 C-157.74632065 490.20404793 -163.53540141 491.53424961 -170.875 491.4375 C-171.66221436 491.43210205 -172.44942871 491.4267041 -173.26049805 491.42114258 C-180.45377409 491.23354348 -186.36156348 489.65714191 -192.23046875 485.37109375 C-196.06257872 483.47395609 -199.29379925 483.70791431 -203.5 483.875 C-212.57471552 484.14144242 -212.57471552 484.14144242 -217 483 C-217.061875 483.598125 -217.12375 484.19625 -217.1875 484.8125 C-218 487 -218 487 -220.0625 488.8125 C-225.7006013 491.09173244 -231.45247566 489.11041567 -236.83276367 486.83129883 C-237.48607666 486.53634521 -238.13938965 486.2413916 -238.8125 485.9375 C-239.50899658 485.62514404 -240.20549316 485.31278809 -240.9230957 484.9909668 C-257.66622403 477.21150703 -273.53101324 463.17472286 -280.0625 445.67578125 C-280.5265625 444.35126953 -280.5265625 444.35126953 -281 443 C-281.350625 442.00355469 -281.70125 441.00710938 -282.0625 439.98046875 C-283.60408729 435.47472649 -284.99528878 431.21404601 -285.6875 426.5 C-286.61421113 422.97798202 -286.61421113 422.97798202 -288.9453125 421.73046875 C-291.26791364 420.70714449 -293.60788295 419.84548965 -296 419 C-299.0625 417.375 -299.0625 417.375 -301 416 C-301 415.34 -301 414.68 -301 414 C-301.804375 413.6596875 -301.804375 413.6596875 -302.625 413.3125 C-308.607911 410.00615445 -312.3662315 405.50204217 -316.38671875 400.0859375 C-317.89810914 398.02670369 -317.89810914 398.02670369 -319.51953125 396.5390625 C-323.94376869 391.93972332 -325.6056375 385.90406833 -327.625 380 C-328.09292969 378.66582031 -328.09292969 378.66582031 -328.5703125 377.3046875 C-331.45960813 368.96060097 -332.20851021 361.75926728 -332.25 352.9375 C-332.270625 351.86822266 -332.29125 350.79894531 -332.3125 349.69726562 C-332.35201427 341.52275109 -331.44843207 333.54363248 -328.11181641 325.98901367 C-327.19836145 324.06064815 -327.19836145 324.06064815 -327 321 C-328.39275953 318.92299276 -330.03996816 317.26758688 -331.7890625 315.48046875 C-334.48585838 312.45491154 -336.57863384 309.2636125 -338.6875 305.8125 C-339.05528564 305.23757813 -339.42307129 304.66265625 -339.80200195 304.0703125 C-346.18202829 293.47857849 -347.6830858 282.41243842 -347.57641602 270.31689453 C-347.56255006 268.13288459 -347.59676136 265.95318279 -347.63476562 263.76953125 C-347.74762682 243.31257607 -338.47611276 226.13799697 -324.51367188 211.46630859 C-313.99520276 201.27696577 -300.2041082 194.87104315 -286 192 C-285.9071875 190.2675 -285.9071875 190.2675 -285.8125 188.5 C-284.99132532 181.07423464 -282.40232525 174.03657181 -280 167 C-279.67902344 166.04222656 -279.35804688 165.08445313 -279.02734375 164.09765625 C-275.24141886 153.7232387 -267.85012735 142.39411736 -258 137 C-256.78519254 136.04988682 -255.57760791 135.09050838 -254.375 134.125 C-249.5787232 130.51662788 -244.59287592 128.14119065 -239 126 C-238.00355469 125.60425781 -237.00710937 125.20851563 -235.98046875 124.80078125 C-227.12581508 121.86297415 -218.58443515 121.61221077 -209.3125 121.5625 C-208.08934082 121.5524292 -206.86618164 121.5423584 -205.60595703 121.53198242 C-188.89642912 121.69098117 -173.43955489 126.98967487 -160 137 C-159.67 137.66 -159.34 138.32 -159 139 C-158.23429688 139.44472656 -157.46859375 139.88945312 -156.6796875 140.34765625 C-147.21412564 146.18429279 -139.13977017 160.45774454 -136.47216797 171.10717773 C-135.91087908 173.58700357 -135.38712145 176.07207236 -134.875 178.5625 C-134.69324219 179.41263672 -134.51148438 180.26277344 -134.32421875 181.13867188 C-133.53879913 184.90337116 -133 188.12295179 -133 192 C-131.94425781 192.20302734 -131.94425781 192.20302734 -130.8671875 192.41015625 C-118.86649762 195.02649465 -105.20788176 200.433079 -97 210 C-96.16355235 213.04054666 -95.71691568 215.08124728 -96.65234375 218.1171875 C-96.76707031 218.73851562 -96.88179687 219.35984375 -97 220 C-95.5871254 222.1631155 -95.5871254 222.1631155 -93.5625 224.125 C-90 227.81996086 -90 227.81996086 -90 230 C-88.9275 229.938125 -87.855 229.87625 -86.75 229.8125 C-82.76732818 230.01163359 -81.74407481 230.26976553 -79 233 C-78.51898193 235.18302917 -78.51898193 235.18302917 -78.54589844 237.74682617 C-78.54635162 239.18798042 -78.54635162 239.18798042 -78.54681396 240.6582489 C-78.56745911 241.69270645 -78.58810425 242.727164 -78.609375 243.79296875 C-78.61503479 244.85413406 -78.62069458 245.91529938 -78.62652588 247.00862122 C-78.64893857 250.40203735 -78.69914551 253.79440235 -78.75 257.1875 C-78.7700586 259.48631289 -78.78831048 261.78514231 -78.8046875 264.08398438 C-78.8488193 269.72301564 -78.91578028 275.36143273 -79 281 C-78.07058594 281.29648437 -77.14117187 281.59296875 -76.18359375 281.8984375 C-68.91767257 284.41253538 -64.74386293 289.24117105 -60 295 C-59.23042969 295.91652344 -59.23042969 295.91652344 -58.4453125 296.8515625 C-57.29008034 298.22870366 -56.14391126 299.6134409 -55 301 C-53.9275 300.67 -52.855 300.34 -51.75 300 C-48 299 -48 299 -44 299 C-44.1858667 297.80665039 -44.3717334 296.61330078 -44.56323242 295.38378906 C-63.01693196 176.39858491 -63.01693196 176.39858491 -42 147 C-39.5971933 144.06938012 -37.1624309 142.07314915 -34 140 C-33.41379883 139.60731934 -32.82759766 139.21463867 -32.22363281 138.81005859 C-25.02912441 134.02016951 -18.20558893 129.82067119 -10 127 C-11.30385301 124.22778917 -12.75270469 121.8589322 -14.625 119.4375 C-17.11092415 116.19131749 -19.50467824 112.89401523 -21.875 109.5625 C-25.15518725 105.01583119 -28.6923993 100.85981383 -32.53125 96.77734375 C-34 95 -34 95 -34 93 C-34.58773193 92.74492676 -35.17546387 92.48985352 -35.78100586 92.22705078 C-38.22705982 90.87444134 -39.64969126 89.45011736 -41.50390625 87.3671875 C-42.15689697 86.64700439 -42.8098877 85.92682129 -43.48266602 85.18481445 C-44.16901123 84.42257568 -44.85535645 83.66033691 -45.5625 82.875 C-50.93545818 77.02539369 -56.08901926 71.9693244 -62.703125 67.546875 C-64.75275465 66.16651217 -66.49941206 64.73197701 -68.3125 63.0625 C-70.56215861 61.03891002 -72.89291651 59.4108566 -75.46875 57.83984375 C-76.09869873 57.45368896 -76.72864746 57.06753418 -77.37768555 56.66967773 C-78.64314685 55.90465248 -79.91788938 55.15472237 -81.20239258 54.42211914 C-84.20214495 52.61078541 -85.90064459 51.17985504 -87.60546875 48.09375 C-88.12663197 44.00700473 -87.20235591 42.45752736 -85 39 C-82.72773075 37.43409297 -80.72776023 36.24436872 -78.27734375 35.0546875 C-77.61722794 34.71752716 -76.95711212 34.38036682 -76.2769928 34.0329895 C-74.17181451 32.96357103 -72.05505706 31.91965182 -69.9375 30.875 C-68.54154124 30.16689323 -67.1463503 29.45727064 -65.75195312 28.74609375 C-59.27060308 25.46504335 -52.80479289 22.33755621 -45.98120117 19.81787109 C-43.94421433 18.9769708 -42.22566257 17.94028041 -40.375 16.75 C-35.97063295 14.46625412 -33.90623948 14.28780395 -29 15 C-26.375 17.0625 -26.375 17.0625 -24 20 C-23.10179883 21.02738867 -22.20193562 22.05332569 -21.30078125 23.078125 C-17.55796377 27.43464101 -14.19132701 32.04657112 -10.8125 36.6875 C-9.58992822 38.35813474 -8.36727491 40.02870981 -7.14453125 41.69921875 C-6.61190674 42.42971436 -6.07928223 43.16020996 -5.53051758 43.9128418 C-4.03457133 45.95285527 -2.52160623 47.97907665 -1 50 C-1.03029297 49.35788574 -1.06058594 48.71577148 -1.09179688 48.05419922 C-1.63691472 36.24820465 -2.10776015 24.44443896 -2.1875 12.625 C-2.20039063 11.69929199 -2.21328125 10.77358398 -2.2265625 9.81982422 C-2.22785156 8.96404785 -2.22914063 8.10827148 -2.23046875 7.2265625 C-2.23457764 6.47971191 -2.23868652 5.73286133 -2.24291992 4.96337891 C-2 3 -2 3 0 0 Z " fill="#010100" transform="translate(358,11)"/>
<path d="M0 0 C1.22315918 -0.0100708 2.44631836 -0.0201416 3.70654297 -0.03051758 C20.41607088 0.12848117 35.87294511 5.42717487 49.3125 15.4375 C49.6425 16.0975 49.9725 16.7575 50.3125 17.4375 C51.07820312 17.88222656 51.84390625 18.32695312 52.6328125 18.78515625 C62.09837436 24.62179279 70.17272983 38.89524454 72.84033203 49.54467773 C73.40162092 52.02450357 73.92537855 54.50957236 74.4375 57 C74.71013672 58.27520508 74.71013672 58.27520508 74.98828125 59.57617188 C75.77370087 63.34087116 76.3125 66.56045179 76.3125 70.4375 C77.01632813 70.57285156 77.72015625 70.70820313 78.4453125 70.84765625 C90.44600238 73.46399465 104.10461824 78.870579 112.3125 88.4375 C113.14894765 91.47804666 113.59558432 93.51874728 112.66015625 96.5546875 C112.54542969 97.17601562 112.43070313 97.79734375 112.3125 98.4375 C113.7253746 100.6006155 113.7253746 100.6006155 115.75 102.5625 C119.3125 106.25746086 119.3125 106.25746086 119.3125 108.4375 C118.4580555 108.44629936 118.4580555 108.44629936 117.58634949 108.45527649 C111.66522804 108.51913964 105.74465371 108.60354038 99.82397461 108.69995117 C97.61343594 108.73323508 95.40281157 108.76125612 93.19213867 108.78393555 C90.01704334 108.81741759 86.84273583 108.86973052 83.66796875 108.92578125 C82.18190376 108.93536613 82.18190376 108.93536613 80.66581726 108.94514465 C79.74508926 108.96493881 78.82436127 108.98473297 77.87573242 109.00512695 C77.0652092 109.01623001 76.25468597 109.02733307 75.41960144 109.03877258 C72.81757971 109.53115391 71.91643895 110.36692353 70.3125 112.4375 C69.91215136 114.41480393 69.91215136 114.41480393 70.0625 116.56640625 C70.08957031 117.36449707 70.11664063 118.16258789 70.14453125 118.98486328 C70.40583915 122.80041438 70.83689395 126.58101572 71.3125 130.375 C72.40666471 139.75610171 72.51535652 149.00467197 72.3125 158.4375 C71.62285156 158.78941406 70.93320313 159.14132812 70.22265625 159.50390625 C59.29228661 164.79882301 59.29228661 164.79882301 51.3125 173.4375 C47.57645495 172.97049437 44.19842464 172.40517865 40.5625 171.375 C29.82257623 168.63818545 19.83003379 170.78124702 10.25 176 C-7.77237232 187.57374222 -14.74828284 208.70305454 -19.6875 228.4375 C-22.84348488 243.9150546 -21.91223391 260.58733896 -21.72021484 276.28320312 C-21.70005344 278.22712341 -21.69030966 280.17122379 -21.69775391 282.11523438 C-21.78448027 304.84666965 -14.2702335 328.78681438 0.3125 346.4375 C1.31524245 347.83136451 2.31520307 349.22723409 3.3125 350.625 C5.23891447 353.2190343 7.16521981 355.29349168 9.6875 357.3125 C10.55375 358.01375 11.42 358.715 12.3125 359.4375 C12.3125 360.0975 12.3125 360.7575 12.3125 361.4375 C9.91708732 361.63335135 7.52157226 361.81942107 5.125 362 C4.45146484 362.05607422 3.77792969 362.11214844 3.08398438 362.16992188 C-0.704631 362.44713763 -4.00577794 362.40261161 -7.6875 361.4375 C-7.749375 362.035625 -7.81125 362.63375 -7.875 363.25 C-8.6875 365.4375 -8.6875 365.4375 -10.75 367.25 C-16.3881013 369.52923244 -22.13997566 367.54791567 -27.52026367 365.26879883 C-28.17357666 364.97384521 -28.82688965 364.6788916 -29.5 364.375 C-30.19649658 364.06264404 -30.89299316 363.75028809 -31.6105957 363.4284668 C-48.35372403 355.64900703 -64.21851324 341.61222286 -70.75 324.11328125 C-71.2140625 322.78876953 -71.2140625 322.78876953 -71.6875 321.4375 C-72.038125 320.44105469 -72.38875 319.44460938 -72.75 318.41796875 C-74.29158729 313.91222649 -75.68278878 309.65154601 -76.375 304.9375 C-77.30171113 301.41548202 -77.30171113 301.41548202 -79.6328125 300.16796875 C-81.95541364 299.14464449 -84.29538295 298.28298965 -86.6875 297.4375 C-89.75 295.8125 -89.75 295.8125 -91.6875 294.4375 C-91.6875 293.7775 -91.6875 293.1175 -91.6875 292.4375 C-92.491875 292.0971875 -92.491875 292.0971875 -93.3125 291.75 C-99.295411 288.44365445 -103.0537315 283.93954217 -107.07421875 278.5234375 C-108.58560914 276.46420369 -108.58560914 276.46420369 -110.20703125 274.9765625 C-114.63126869 270.37722332 -116.2931375 264.34156833 -118.3125 258.4375 C-118.78042969 257.10332031 -118.78042969 257.10332031 -119.2578125 255.7421875 C-122.14710813 247.39810097 -122.89601021 240.19676728 -122.9375 231.375 C-122.958125 230.30572266 -122.97875 229.23644531 -123 228.13476562 C-123.03951427 219.96025109 -122.13593207 211.98113248 -118.79931641 204.42651367 C-117.88586145 202.49814815 -117.88586145 202.49814815 -117.6875 199.4375 C-119.08025953 197.36049276 -120.72746816 195.70508688 -122.4765625 193.91796875 C-125.17335838 190.89241154 -127.26613384 187.7011125 -129.375 184.25 C-129.74278564 183.67507813 -130.11057129 183.10015625 -130.48950195 182.5078125 C-136.86952829 171.91607849 -138.3705858 160.84993842 -138.26391602 148.75439453 C-138.25005006 146.57038459 -138.28426136 144.39068279 -138.32226562 142.20703125 C-138.43512682 121.75007607 -129.16361276 104.57549697 -115.20117188 89.90380859 C-104.68270276 79.71446577 -90.8916082 73.30854315 -76.6875 70.4375 C-76.5946875 68.705 -76.5946875 68.705 -76.5 66.9375 C-75.67882532 59.51173464 -73.08982525 52.47407181 -70.6875 45.4375 C-70.36652344 44.47972656 -70.04554687 43.52195313 -69.71484375 42.53515625 C-65.92891886 32.1607387 -58.53762735 20.83161736 -48.6875 15.4375 C-47.47269254 14.48738682 -46.26510791 13.52800838 -45.0625 12.5625 C-40.2662232 8.95412788 -35.28037592 6.57869065 -29.6875 4.4375 C-28.69105469 4.04175781 -27.69460937 3.64601562 -26.66796875 3.23828125 C-17.81331508 0.30047415 -9.27193515 0.04971077 0 0 Z " fill="#94C48F" transform="translate(148.6875,132.5625)"/>
<path d="M0 0 C1.57183044 -0.01407143 1.57183044 -0.01407143 3.17541504 -0.02842712 C4.30153198 -0.01719315 5.42764893 -0.00595917 6.58789062 0.00561523 C7.74913452 0.00416 8.91037842 0.00270477 10.10681152 0.00120544 C12.56130483 0.002865 15.01580847 0.01443244 17.47021484 0.03515625 C21.22994126 0.06409967 24.9882571 0.05576747 28.74804688 0.04272461 C31.13216832 0.04896225 33.51628531 0.05735339 35.90039062 0.06811523 C37.02650757 0.0651796 38.15262451 0.06224396 39.31286621 0.05921936 C40.36075317 0.07190353 41.40864014 0.08458771 42.48828125 0.09765625 C43.40887329 0.10305923 44.32946533 0.10846222 45.2779541 0.11402893 C48.28026803 0.58598724 49.64152621 1.3106143 51.74414062 3.50170898 C52.22515869 5.68473816 52.22515869 5.68473816 52.19824219 8.24853516 C52.19794006 9.20930466 52.19763794 10.17007416 52.19732666 11.15995789 C52.17668152 12.19441544 52.15603638 13.22887299 52.13476562 14.29467773 C52.12910583 15.35584305 52.12344604 16.41700836 52.11761475 17.5103302 C52.09520205 20.90374633 52.04499511 24.29611134 51.99414062 27.68920898 C51.97408202 29.98802187 51.95583014 32.28685129 51.93945312 34.58569336 C51.89532133 40.22472462 51.82836034 45.86314172 51.74414062 51.50170898 C52.67355469 51.79819336 53.60296875 52.09467773 54.56054688 52.40014648 C61.81725324 54.91105593 66.04294745 59.71069375 70.74414062 65.50170898 C71.24945313 66.09725586 71.75476563 66.69280273 72.27539062 67.30639648 C89.02089495 88.06013322 90.02123847 114.64823819 90.05664062 140.12670898 C90.06188248 141.34698792 90.06188248 141.34698792 90.06723022 142.59191895 C90.08837351 151.46494028 89.76279578 159.97439221 88.21459961 168.73901367 C87.80718698 171.13147931 87.54413826 173.44575817 87.39257812 175.86499023 C85.95411747 196.64047199 78.03085415 220.16206128 64.74414062 236.50170898 C70.25432088 241.59862572 75.11263288 244.09170005 82.61914062 244.93920898 C90.16892294 244.62711168 96.71313548 240.72341259 102.74414062 236.50170898 C103.40414062 236.50170898 104.06414062 236.50170898 104.74414062 236.50170898 C105.01226562 235.88295898 105.28039062 235.26420898 105.55664062 234.62670898 C106.74414062 232.50170898 106.74414062 232.50170898 109.74414062 230.50170898 C113.83716799 229.87885699 115.28662165 230.17073781 118.68164062 232.62670898 C120.74414062 235.50170898 120.74414062 235.50170898 120.99414062 238.31420898 C117.49394231 247.23971468 108.34511766 254.77403443 99.74804688 258.68920898 C90.29747751 262.52101878 78.01528079 263.47929217 68.30664062 259.93920898 C63.90291465 257.90044696 60.39409732 254.98215665 56.84960938 251.69702148 C54.76239384 250.19245396 54.76239384 250.19245396 52.24414062 251.12280273 C49.871171 252.43164379 47.73620027 253.83214155 45.55664062 255.43920898 C35.25566251 262.31212913 23.81319035 262.70887638 11.74414062 261.50170898 C7.5069376 260.58507121 3.69135956 259.27828052 -0.25585938 257.50170898 C-1.98835938 256.75920898 -1.98835938 256.75920898 -3.75585938 256.00170898 C-6.35311836 254.44335359 -8.23902578 252.75125414 -10.25585938 250.50170898 C-14.02251258 252.27475069 -17.2659056 254.55449744 -20.64648438 256.96655273 C-27.0018031 260.70553516 -32.79151465 262.0367209 -40.13085938 261.93920898 C-40.91952393 261.93308594 -41.70818848 261.92696289 -42.52075195 261.9206543 C-48.76890765 261.75343654 -53.76010123 260.56543623 -59.25585938 257.50170898 C-60.23425781 257.01637695 -60.23425781 257.01637695 -61.23242188 256.52124023 C-65.27566427 254.4135926 -68.20896472 251.86110566 -71.25585938 248.50170898 C-71.70445312 248.01057617 -72.15304688 247.51944336 -72.61523438 247.01342773 C-91.44573658 225.80380294 -101.36433817 199.83017022 -101.25585938 171.50170898 C-101.27849329 169.31939446 -101.30338083 167.13710258 -101.33007812 164.95483398 C-101.39367647 158.13546571 -101.35612061 151.3205396 -101.25585938 144.50170898 C-101.24329102 143.61467285 -101.23072266 142.72763672 -101.21777344 141.8137207 C-100.99813333 130.60983402 -99.28033357 120.2837631 -96.25585938 109.50170898 C-95.98 108.4562793 -95.70414063 107.41084961 -95.41992188 106.33374023 C-90.79506313 90.6134635 -81.05339284 74.21111275 -66.56835938 65.87670898 C-53.00863747 59.35576776 -41.18214862 61.29187256 -27.25585938 65.50170898 C-27.05476563 64.93709961 -26.85367188 64.37249023 -26.64648438 63.79077148 C-24.72410978 60.6264133 -22.02105365 58.9003293 -19.00585938 56.87670898 C-18.44511719 56.48225586 -17.884375 56.08780273 -17.30664062 55.68139648 C-13.73133332 53.2373065 -10.36597469 51.78854768 -6.25585938 50.50170898 C-6.56616102 46.20988046 -6.87950493 41.91827905 -7.19335938 37.62670898 C-7.28037109 36.42272461 -7.36738281 35.21874023 -7.45703125 33.97827148 C-7.90555812 27.86501634 -8.39192869 21.76386874 -9.04394531 15.66870117 C-10.04126739 5.47027865 -10.04126739 5.47027865 -7.55773926 2.40757751 C-4.78556357 0.11232204 -3.55258093 0.00064125 0 0 Z " fill="#020201" transform="translate(227.255859375,240.498291015625)"/>
<path d="M0 0 C2.92451459 2.57338044 5.48481108 5.30518591 7.9375 8.328125 C9.29575162 10.08347313 9.29575162 10.08347313 10.7980957 11.37475586 C18.24140518 19.47032004 18.00878448 30.55646566 17.6875 40.83984375 C17.5328125 47.89359375 17.5328125 47.89359375 17.375 55.08984375 C4.835 55.08984375 -7.705 55.08984375 -20.625 55.08984375 C-20.625 60.03984375 -20.625 64.98984375 -20.625 70.08984375 C-8.745 70.08984375 3.135 70.08984375 15.375 70.08984375 C15.375 80.21649065 15.375 80.21649065 14.84008789 84.39428711 C14.72319107 85.32812729 14.60629425 86.26196747 14.4858551 87.22410583 C14.35774948 88.19944778 14.22964386 89.17478973 14.09765625 90.1796875 C13.90144936 91.71829185 13.90144936 91.71829185 13.70127869 93.28797913 C13.42571753 95.4388361 13.14740243 97.58934189 12.86645508 99.73950195 C12.43572467 103.04095122 12.01508505 106.34357631 11.59570312 109.64648438 C11.32611297 111.74096172 11.05595117 113.83536558 10.78515625 115.9296875 C10.65907486 116.91919907 10.53299347 117.90871063 10.40309143 118.9282074 C10.28304245 119.83998245 10.16299347 120.75175751 10.03930664 121.69116211 C9.9349379 122.49452499 9.83056915 123.29788788 9.72303772 124.12559509 C9.375 126.08984375 9.375 126.08984375 8.375 128.08984375 C8.0074586 130.35539191 7.67989811 132.62751798 7.375 134.90234375 C6.82060868 139.01263564 6.18925889 143.01854929 5.375 147.08984375 C-8.155 147.08984375 -21.685 147.08984375 -35.625 147.08984375 C-35.625 152.03984375 -35.625 156.98984375 -35.625 162.08984375 C-23.085 162.08984375 -10.545 162.08984375 2.375 162.08984375 C0.66745856 173.59328079 -1.35595731 184.9351225 -3.78564453 196.30688477 C-5.03935326 202.19799312 -6.19224481 208.08733018 -7.1875 214.02734375 C-8.60871567 222.48362843 -10.59474999 230.75881785 -12.625 239.08984375 C-22.855 239.08984375 -33.085 239.08984375 -43.625 239.08984375 C-43.625 244.03984375 -43.625 248.98984375 -43.625 254.08984375 C-35.045 254.08984375 -26.465 254.08984375 -17.625 254.08984375 C-19.98419588 263.52662727 -22.60898781 272.60902762 -25.75 281.77734375 C-25.98844635 282.47762695 -26.2268927 283.17791016 -26.4725647 283.89941406 C-30.23204042 294.87164597 -34.56729214 305.15819432 -40.625 315.08984375 C-41.285 315.08984375 -41.945 315.08984375 -42.625 315.08984375 C-42.851875 315.66734375 -43.07875 316.24484375 -43.3125 316.83984375 C-45.02064155 319.7680864 -46.75756637 321.28936217 -49.625 323.08984375 C-53.38984909 323.18396498 -54.5710846 322.13657043 -57.4375 319.65234375 C-59.625 317.08984375 -59.625 317.08984375 -59.625 315.08984375 C-60.285 315.08984375 -60.945 315.08984375 -61.625 315.08984375 C-68.79211487 301.91109657 -75.08100734 289.29579574 -78.6328125 274.6328125 C-79.47274308 271.63353282 -80.54805807 268.98837658 -81.81298828 266.15551758 C-83.63302023 261.52554453 -84.74488723 256.64650226 -86 251.83984375 C-86.45572388 250.11689087 -86.45572388 250.11689087 -86.9206543 248.35913086 C-87.53530445 246.03343194 -88.14787683 243.70718283 -88.75830078 241.38037109 C-89.53469583 238.43269433 -90.32400629 235.48900977 -91.12109375 232.546875 C-93.3104725 224.43078879 -95.29978754 216.40254009 -96.625 208.08984375 C-89.365 208.08984375 -82.105 208.08984375 -74.625 208.08984375 C-74.625 203.13984375 -74.625 198.18984375 -74.625 193.08984375 C-82.875 193.08984375 -91.125 193.08984375 -99.625 193.08984375 C-100.04652344 190.53234375 -100.46804688 187.97484375 -100.90234375 185.33984375 C-102.43870463 176.08608052 -104.06924192 166.85041138 -105.73217773 157.61865234 C-106.19219616 155.06376182 -106.64991225 152.50846585 -107.10742188 149.953125 C-107.40614465 148.29034565 -107.70497057 146.62758483 -108.00390625 144.96484375 C-108.14639801 144.16836426 -108.28888977 143.37188477 -108.43569946 142.55126953 C-109.16199848 138.52321933 -109.95371077 134.52390483 -110.83984375 130.52734375 C-111.625 126.08984375 -111.625 126.08984375 -111.625 116.08984375 C-99.415 116.08984375 -87.205 116.08984375 -74.625 116.08984375 C-74.625 111.13984375 -74.625 106.18984375 -74.625 101.08984375 C-87.825 101.08984375 -101.025 101.08984375 -114.625 101.08984375 C-115.92325101 94.59858869 -117.04995123 88.39112935 -117.6953125 81.84765625 C-117.78126678 80.99920135 -117.86722107 80.15074646 -117.95578003 79.27658081 C-118.13477318 77.49031306 -118.31110319 75.70377658 -118.48486328 73.91699219 C-118.74609421 71.25464969 -119.0229716 68.59425034 -119.30078125 65.93359375 C-120.2006429 57.00295761 -120.80820411 48.12317172 -120.8671875 39.14453125 C-120.87686554 38.32260284 -120.88654358 37.50067444 -120.89651489 36.65383911 C-120.89312103 35.87974701 -120.88972717 35.10565491 -120.88623047 34.30810547 C-120.8847702 33.636091 -120.88330994 32.96407654 -120.88180542 32.271698 C-120.625 30.08984375 -120.625 30.08984375 -118.625 24.08984375 C-109.055 24.08984375 -99.485 24.08984375 -89.625 24.08984375 C-89.625 19.13984375 -89.625 14.18984375 -89.625 9.08984375 C-96.555 9.08984375 -103.485 9.08984375 -110.625 9.08984375 C-98.81065104 -4.69356336 -85.13387514 -11.91569278 -66.96435547 -13.73730469 C-43.45906642 -15.4740762 -19.32922535 -14.98590239 0 0 Z " fill="#F4965F" transform="translate(437.625,162.91015625)"/>
<path d="M0 0 C1.26457031 0.51046875 1.26457031 0.51046875 2.5546875 1.03125 C11.95496374 5.25994569 19.25795136 11.31022366 23 21 C23.48210937 22.12019531 23.96421875 23.24039062 24.4609375 24.39453125 C31.13387238 40.36125301 32.26253134 56.03610847 32.3125 73.1875 C32.31814972 74.25650543 32.31814972 74.25650543 32.32391357 75.34710693 C32.35164751 85.71095238 31.5048498 95.75003917 30 106 C29.87971436 106.86020752 29.75942871 107.72041504 29.63549805 108.60668945 C28.32982416 117.61327912 26.27135876 125.98368243 23.18359375 134.53515625 C22.32349442 137.05300479 21.66909508 139.36945651 21.09765625 141.9453125 C20.04434698 146.29289227 18.21374592 149.94489383 16 153.8125 C15.60989746 154.49957031 15.21979492 155.18664062 14.81787109 155.89453125 C11.06507956 162.27264068 6.65991609 168.17783322 1 173 C0.01 173 -0.98 173 -2 173 C-2 173.66 -2 174.32 -2 175 C-11.40608625 179.91790296 -19.94197429 183.06435593 -30.68359375 180.3125 C-33.22994458 179.35910811 -35.59059379 178.25846671 -38 177 C-39.12341797 176.45085937 -39.12341797 176.45085937 -40.26953125 175.890625 C-56.58829961 166.63093857 -65.62749384 142.42530636 -70.5234375 125.33984375 C-78.14858911 95.29482812 -82.16980754 46.21917602 -66 19 C-62.05468865 12.83061607 -57.36427834 7.73078386 -51 4 C-50.34 4 -49.68 4 -49 4 C-49 3.34 -49 2.68 -49 2 C-47.27255984 1.34956281 -45.5429631 0.70485156 -43.8125 0.0625 C-42.84957031 -0.29714844 -41.88664062 -0.65679687 -40.89453125 -1.02734375 C-28.81939346 -5.08498115 -11.73459393 -4.93250728 0 0 Z " fill="#FAE980" transform="translate(270,305)"/>
<path d="M0 0 C1.22315918 -0.0100708 2.44631836 -0.0201416 3.70654297 -0.03051758 C20.41607088 0.12848117 35.87294511 5.42717487 49.3125 15.4375 C49.6425 16.0975 49.9725 16.7575 50.3125 17.4375 C51.07820312 17.88222656 51.84390625 18.32695312 52.6328125 18.78515625 C62.09837436 24.62179279 70.17272983 38.89524454 72.84033203 49.54467773 C73.40162092 52.02450357 73.92537855 54.50957236 74.4375 57 C74.71013672 58.27520508 74.71013672 58.27520508 74.98828125 59.57617188 C75.77370087 63.34087116 76.3125 66.56045179 76.3125 70.4375 C77.01632813 70.57285156 77.72015625 70.70820313 78.4453125 70.84765625 C90.44600238 73.46399465 104.10461824 78.870579 112.3125 88.4375 C113.29107226 92.06888427 113.50830227 93.85009319 112.3125 97.4375 C109.76528565 99.40249393 107.69908014 100.34964088 104.5625 101.0625 C100.23394748 100.23008605 97.99900361 98.00787383 94.640625 95.25 C88.13336752 90.1839472 80.98468139 88.75281735 72.98413086 87.65136719 C68.36817376 86.94130664 65.6535173 85.703156 62.3125 82.4375 C60.90570063 79.62390127 60.89188706 76.94167703 60.5625 73.8125 C59.86467221 67.97345989 58.64466535 62.4824463 56.875 56.875 C56.6697168 56.22128418 56.46443359 55.56756836 56.25292969 54.89404297 C54.93146732 50.87485344 53.21191205 47.20863588 51.3125 43.4375 C51.3125 42.7775 51.3125 42.1175 51.3125 41.4375 C50.6525 41.4375 49.9925 41.4375 49.3125 41.4375 C48.838125 40.4475 48.36375 39.4575 47.875 38.4375 C41.84481337 28.08811396 30.337368 21.5692536 19.00390625 18.55859375 C-0.98097049 15.19247199 -21.70834151 16.02727402 -38.7109375 27.84375 C-42.9457992 31.17246225 -45.65796084 35.08434731 -48.42578125 39.6796875 C-49.05033203 40.54980469 -49.05033203 40.54980469 -49.6875 41.4375 C-50.3475 41.4375 -51.0075 41.4375 -51.6875 41.4375 C-52.10708984 42.74847656 -52.10708984 42.74847656 -52.53515625 44.0859375 C-53.6875 47.4375 -53.6875 47.4375 -54.87109375 50.1640625 C-58.22048283 57.90626404 -59.64687483 65.18005314 -60.52319336 73.54541016 C-61.11509117 78.56348138 -61.70208065 81.95279547 -65.6875 85.4375 C-68.640625 86.51171875 -68.640625 86.51171875 -71.9375 87.125 C-73.67386719 87.47884766 -73.67386719 87.47884766 -75.4453125 87.83984375 C-77.27142618 88.1764647 -79.09876631 88.50699971 -80.9296875 88.81640625 C-91.60644429 90.92074628 -100.14092274 99.07725798 -107.6875 106.4375 C-108.26371094 106.95441406 -108.83992188 107.47132813 -109.43359375 108.00390625 C-115.13627114 113.67695934 -117.2515018 121.96023378 -119.6875 129.4375 C-120.06390625 130.57574219 -120.4403125 131.71398437 -120.828125 132.88671875 C-124.22368145 146.91654063 -121.28641748 160.4352895 -115.6875 173.4375 C-115.39842773 174.1195752 -115.10935547 174.80165039 -114.81152344 175.50439453 C-112.15614333 181.30663543 -108.38073156 185.19276546 -103.7578125 189.50390625 C-100.83165866 192.43726736 -99.31811466 194.36646697 -99.21484375 198.60546875 C-99.6103311 201.81185793 -99.83842302 203.59272146 -101.5 206.25 C-108.26456704 218.67176724 -108.59236283 233.98534095 -104.6875 247.4375 C-99.69275166 261.48024294 -92.64763502 273.01385495 -79.875 281 C-79.25842529 281.39203613 -78.64185059 281.78407227 -78.0065918 282.18798828 C-74.74407527 284.23783114 -71.47558106 286.13931135 -68 287.8125 C-63.41757805 290.06048058 -63.41757805 290.06048058 -61.6875 292.4375 C-61.11205122 295.1083961 -60.6751433 297.67649857 -60.3125 300.375 C-57.75368628 316.27847078 -50.0300434 331.70942219 -36.8125 341.5625 C-29.88980477 345.83037521 -22.12995942 348.99025487 -14.4140625 351.50390625 C-11.10132369 352.6382108 -9.67204381 353.53701289 -7.6875 356.4375 C-7.05829482 359.93701197 -6.99602037 363.17656656 -8.75 366.375 C-13.01368058 368.71314741 -16.90374098 368.64282729 -21.51953125 367.43359375 C-22.85398279 366.93398305 -24.18080412 366.41360376 -25.5 365.875 C-26.20213623 365.59688477 -26.90427246 365.31876953 -27.62768555 365.03222656 C-37.27487828 361.10365619 -44.56747182 355.98095268 -52.1484375 348.81640625 C-54.2075707 346.88715683 -56.29022439 345.12237763 -58.5 343.375 C-65.28787699 337.57769836 -68.79374007 329.69677312 -71.6875 321.4375 C-72.038125 320.44105469 -72.38875 319.44460938 -72.75 318.41796875 C-74.29158729 313.91222649 -75.68278878 309.65154601 -76.375 304.9375 C-77.30171113 301.41548202 -77.30171113 301.41548202 -79.6328125 300.16796875 C-81.95541364 299.14464449 -84.29538295 298.28298965 -86.6875 297.4375 C-89.75 295.8125 -89.75 295.8125 -91.6875 294.4375 C-91.6875 293.7775 -91.6875 293.1175 -91.6875 292.4375 C-92.491875 292.0971875 -92.491875 292.0971875 -93.3125 291.75 C-99.295411 288.44365445 -103.0537315 283.93954217 -107.07421875 278.5234375 C-108.58560914 276.46420369 -108.58560914 276.46420369 -110.20703125 274.9765625 C-114.63126869 270.37722332 -116.2931375 264.34156833 -118.3125 258.4375 C-118.78042969 257.10332031 -118.78042969 257.10332031 -119.2578125 255.7421875 C-122.14710813 247.39810097 -122.89601021 240.19676728 -122.9375 231.375 C-122.958125 230.30572266 -122.97875 229.23644531 -123 228.13476562 C-123.03951427 219.96025109 -122.13593207 211.98113248 -118.79931641 204.42651367 C-117.88586145 202.49814815 -117.88586145 202.49814815 -117.6875 199.4375 C-119.08025953 197.36049276 -120.72746816 195.70508688 -122.4765625 193.91796875 C-125.17335838 190.89241154 -127.26613384 187.7011125 -129.375 184.25 C-129.74278564 183.67507813 -130.11057129 183.10015625 -130.48950195 182.5078125 C-136.86952829 171.91607849 -138.3705858 160.84993842 -138.26391602 148.75439453 C-138.25005006 146.57038459 -138.28426136 144.39068279 -138.32226562 142.20703125 C-138.43512682 121.75007607 -129.16361276 104.57549697 -115.20117188 89.90380859 C-104.68270276 79.71446577 -90.8916082 73.30854315 -76.6875 70.4375 C-76.5946875 68.705 -76.5946875 68.705 -76.5 66.9375 C-75.67882532 59.51173464 -73.08982525 52.47407181 -70.6875 45.4375 C-70.36652344 44.47972656 -70.04554687 43.52195313 -69.71484375 42.53515625 C-65.92891886 32.1607387 -58.53762735 20.83161736 -48.6875 15.4375 C-47.47269254 14.48738682 -46.26510791 13.52800838 -45.0625 12.5625 C-40.2662232 8.95412788 -35.28037592 6.57869065 -29.6875 4.4375 C-28.69105469 4.04175781 -27.69460937 3.64601562 -26.66796875 3.23828125 C-17.81331508 0.30047415 -9.27193515 0.04971077 0 0 Z " fill="#000100" transform="translate(148.6875,132.5625)"/>
<path d="M0 0 C-0.69422454 4.14194642 -1.97636631 7.88001259 -3.4375 11.8125 C-5.26248749 16.83591917 -6.94916202 21.75687154 -8 27 C-8.16765869 27.83547363 -8.33531738 28.67094727 -8.50805664 29.53173828 C-10.14517028 38.77509874 -10.3062693 47.82619794 -10.26074219 57.19165039 C-10.25005973 59.79792777 -10.26067497 62.40350956 -10.2734375 65.00976562 C-10.28983486 85.08749739 -7.40465876 104.21393727 -1.125 123.3125 C-0.63362549 124.81586914 -0.63362549 124.81586914 -0.13232422 126.34960938 C1.81467072 132.09833306 4.08066156 137.48610119 6.89868164 142.86328125 C7.88643379 144.77966494 8.74582743 146.69381768 9.5625 148.6875 C11.13806146 152.31814163 12.98572385 155.59656789 15 159 C13.7764437 159.96548612 12.54585189 160.92205898 11.3125 161.875 C10.62800781 162.40867187 9.94351563 162.94234375 9.23828125 163.4921875 C3.41712479 167.41359482 -2.15429845 167.76277916 -9 167 C-20.60534077 163.52048131 -29.6761907 153.32194544 -35.5 143.1875 C-43.62723199 127.56235708 -48.49886719 109.58238078 -49 92 C-49.02723145 91.07993164 -49.05446289 90.15986328 -49.08251953 89.21191406 C-49.58679193 69.00930273 -47.84069841 50.37239283 -42 31 C-41.70351562 29.93136719 -41.40703125 28.86273438 -41.1015625 27.76171875 C-37.730532 16.42410762 -30.65743465 5.64586811 -20.25 -0.4375 C-13.67050321 -3.42584844 -6.47550591 -2.91689456 0 0 Z " fill="#EEDA61" transform="translate(190,319)"/>
<path d="M0 0 C2.06921991 10.23989669 4.10471306 20.48443864 6.04296875 30.75 C9.58782366 49.441487 13.26700136 68.05255591 17.9375 86.5 C18.12863373 87.25571289 18.31976746 88.01142578 18.51669312 88.79003906 C20.58107881 97.02820911 20.58107881 97.02820911 23.06274414 105.14599609 C23.87830721 107.62943768 24.41677743 109.93750539 24.84375 112.5078125 C26.119534 119.15833496 28.32239771 125.47437986 30.5 131.875 C30.90347656 133.08414063 31.30695313 134.29328125 31.72265625 135.5390625 C33.63487541 141.4879749 33.63487541 141.4879749 36.13476562 147.19580078 C37.53466851 150.11489849 36.89981195 151.94063936 36 155 C34.70547527 157.77318445 33.36245746 160.02253561 31 162 C27.125 162.0625 27.125 162.0625 25.03125 161.87109375 C21.73824674 162.0800728 20.20976828 164.06030386 17.91796875 166.2734375 C11.43654108 172.10804245 3.07033843 176.57136291 -5.78515625 176.31640625 C-13.03056643 175.28134765 -18.05531972 172.29598971 -23 167 C-22.50371094 166.23558594 -22.00742187 165.47117187 -21.49609375 164.68359375 C-9.63190282 145.97554316 -1.97446696 126.56183239 -0.25463867 104.38232422 C0.04317989 101.59602172 0.54038629 98.86887292 1.02734375 96.109375 C2.36451314 87.62344508 2.35025619 79.19417034 2.3125 70.625 C2.31100952 69.79083557 2.30951904 68.95667114 2.3079834 68.097229 C2.23212245 44.44616425 -0.63198555 24.42722986 -11 3 C-4.5 0 -4.5 0 0 0 Z " fill="#ECD960" transform="translate(314,310)"/>
<path d="M0 0 C3.77157706 1.18734834 4.4754758 1.71735004 6.375 5.0625 C6.77372742 7.89727783 6.77372742 7.89727783 6.80737305 11.20800781 C6.83706429 13.06948456 6.83706429 13.06948456 6.86735535 14.96856689 C6.87412456 16.31758472 6.88057149 17.6666042 6.88671875 19.015625 C6.90356935 20.39997958 6.92172012 21.78431889 6.94111633 23.16864014 C6.9885817 26.80504588 7.01841308 30.44138972 7.04455566 34.07800293 C7.07437893 37.79170963 7.12090312 41.50520313 7.16601562 45.21875 C7.25200916 52.49989414 7.31937161 59.78105384 7.375 67.0625 C8.8133383 66.11913198 10.24962927 65.17264197 11.68505859 64.22485352 C12.48511322 63.69811539 13.28516785 63.17137726 14.10946655 62.62867737 C16.97842133 60.64535108 19.47731412 58.40455406 22 56 C32.59919794 46.24107227 32.59919794 46.24107227 36.47265625 45.8515625 C39.68210864 46.07290404 41.90539522 46.66627097 44.375 48.75 C45.71538506 51.84964046 45.92167869 53.71409302 45.375 57.0625 C43.1875 59.6875 43.1875 59.6875 40.375 62.0625 C39.653125 62.68125 38.93125 63.3 38.1875 63.9375 C34.8297158 66.47449251 31.36535998 68.83305445 27.875 71.18359375 C25.10385304 73.26628389 22.80862118 75.59564272 20.375 78.0625 C18.352075 79.88166999 16.27629379 81.63218689 14.1875 83.375 C13.65447266 83.82939453 13.12144531 84.28378906 12.57226562 84.75195312 C8.61454417 88.0625 8.61454417 88.0625 6.375 88.0625 C6.42720703 89.49142578 6.42720703 89.49142578 6.48046875 90.94921875 C6.50753906 92.20347656 6.53460938 93.45773437 6.5625 94.75 C6.61470703 96.61205078 6.61470703 96.61205078 6.66796875 98.51171875 C6.35551716 102.29863204 5.74948966 104.12706438 3.375 107.0625 C-0.36508713 108.15052535 -2.49578128 108.65682564 -6 106.8125 C-9.28200945 103.27802829 -8.7294976 99.45273879 -8.6875 94.875 C-8.67847656 93.60269531 -8.66945312 92.33039063 -8.66015625 91.01953125 C-8.64855469 90.04371094 -8.63695312 89.06789063 -8.625 88.0625 C-9.45257813 87.69125 -9.45257813 87.69125 -10.296875 87.3125 C-13.07636707 85.82015526 -15.4064707 84.02577477 -17.875 82.0625 C-18.76703125 81.36125 -19.6590625 80.66 -20.578125 79.9375 C-21.25359375 79.31875 -21.9290625 78.7 -22.625 78.0625 C-22.625 77.4025 -22.625 76.7425 -22.625 76.0625 C-23.45257813 75.68351562 -23.45257813 75.68351562 -24.296875 75.296875 C-28.06870631 73.29704498 -31.37410707 70.6864911 -34.7890625 68.13671875 C-36.51477414 66.8745247 -38.2745005 65.6552735 -40.0859375 64.51953125 C-45.22346326 61.20888739 -45.22346326 61.20888739 -46.40625 57.83203125 C-47.00382378 53.66938664 -47.0352829 50.65044556 -44.625 47.0625 C-40.9301208 46.01677947 -38.70135859 45.50503741 -35.2265625 47.3046875 C-32.49755715 49.14861004 -29.893706 51.07915525 -27.3125 53.125 C-26.42949219 53.81722656 -25.54648438 54.50945312 -24.63671875 55.22265625 C-23.64091797 56.13337891 -23.64091797 56.13337891 -22.625 57.0625 C-22.625 57.7225 -22.625 58.3825 -22.625 59.0625 C-22.068125 59.31 -21.51125 59.5575 -20.9375 59.8125 C-18.22629056 61.27801861 -16.02881744 63.13944605 -13.625 65.0625 C-12.30335734 65.75205269 -10.97174768 66.42336551 -9.625 67.0625 C-9.62357498 66.29686234 -9.62214996 65.53122467 -9.62068176 64.74238586 C-9.60283345 57.51797252 -9.56116717 50.2942712 -9.49290943 43.07017231 C-9.45865468 39.35635149 -9.43353196 35.64294134 -9.42944336 31.92895508 C-9.4251569 28.34295516 -9.3966679 24.75788136 -9.35156822 21.17217064 C-9.33860389 19.80593452 -9.33428185 18.4395875 -9.33884621 17.0732975 C-9.36973204 5.01817972 -9.36973204 5.01817972 -6.30737305 1.68823242 C-3.625 0.0625 -3.625 0.0625 0 0 Z " fill="#010201" transform="translate(149.625,201.9375)"/>
<path d="M0 0 C9.57 0 19.14 0 29 0 C29 16.13465239 29 16.13465239 28.66796875 22.71875 C28.63173401 23.4847905 28.59549927 24.25083099 28.5581665 25.04008484 C28.4387784 27.5269477 28.31364964 30.01347155 28.1875 32.5 C28.12322311 33.79546249 28.12322311 33.79546249 28.05764771 35.11709595 C27.30874801 50.14830165 26.40602758 65.16897513 25.4375 80.1875 C25.37356049 81.19071289 25.30962097 82.19392578 25.2437439 83.22753906 C25.06067182 86.08293493 24.87302568 88.93798849 24.68359375 91.79296875 C24.62947327 92.63808517 24.57535278 93.4832016 24.51959229 94.35392761 C24.46599548 95.14358414 24.41239868 95.93324066 24.35717773 96.74682617 C24.31213608 97.42702316 24.26709442 98.10722015 24.22068787 98.80802917 C23.94412772 101.55494856 23.45387377 104.2767574 23 107 C17.06 107 11.12 107 5 107 C4.86722656 104.16792969 4.73445313 101.33585937 4.59765625 98.41796875 C4.46582021 95.64100436 4.33316778 92.86408007 4.20043945 90.0871582 C4.1094186 88.17378707 4.01923156 86.26037606 3.92993164 84.34692383 C3.32499791 71.14348442 3.32499791 71.14348442 2.25219727 57.97241211 C1.67213026 51.13570754 1.40030195 44.27461985 1.07006836 37.42211914 C0.93828594 34.70371234 0.80040854 31.98566022 0.66210938 29.26757812 C0.57514974 27.49480983 0.48854968 25.72202385 0.40234375 23.94921875 C0.34142799 22.76412971 0.34142799 22.76412971 0.27928162 21.55509949 C-0.05903746 14.34748246 0 7.24470974 0 0 Z " fill="#94C38F" transform="translate(372,26)"/>
<path d="M0 0 C9.33333333 4.66666667 18.66666667 9.33333333 28 14 C24.15191768 18.10462114 19.90791413 21.52602631 15.5 25.015625 C9.36676664 29.79925854 9.36676664 29.79925854 4.0625 35.4375 C2.27122445 37.66302417 0.59550602 39.2858896 -1.5625 41.125 C-5.10815391 44.16413192 -8.4917116 47.34334454 -11.8125 50.625 C-13.18341797 51.97464844 -13.18341797 51.97464844 -14.58203125 53.3515625 C-17.02339607 55.84933402 -17.02339607 55.84933402 -18.51171875 58.5234375 C-20.29980009 61.49887994 -22.54602844 63.54602844 -25 66 C-26.9606447 68.48090046 -28.79303402 71.04816873 -30.625 73.625 C-31.57305907 74.95228269 -32.52350161 76.27786681 -33.4765625 77.6015625 C-33.88986816 78.18244629 -34.30317383 78.76333008 -34.72900391 79.36181641 C-36.04002123 81.05158326 -37.45794802 82.52077444 -39 84 C-39.04739574 81.21944991 -39.05665192 78.44508205 -39.02734375 75.6640625 C-39.00895789 73.20035683 -39.0437323 70.73573907 -39.12890625 68.2734375 C-39.11686737 56.25863774 -34.42483595 47.95979981 -28 38 C-27.34 38 -26.68 38 -26 38 C-25.773125 37.360625 -25.54625 36.72125 -25.3125 36.0625 C-21.95253005 28.22257011 -17.44738299 20.57253514 -12 14 C-11.34 14 -10.68 14 -10 14 C-9.74347656 13.43667969 -9.48695313 12.87335937 -9.22265625 12.29296875 C-7.85516033 9.72836777 -6.24083892 7.59020365 -4.4375 5.3125 C-3.81746094 4.52488281 -3.19742188 3.73726562 -2.55859375 2.92578125 C-1 1 -1 1 0 0 Z " fill="#7EB579" transform="translate(450,43)"/>
<path d="M0 0 C3.57952432 2.86361945 5.74138288 4.6304067 8.3125 8.125 C8.82425781 8.80820312 9.33601563 9.49140625 9.86328125 10.1953125 C11 12 11 12 11 14 C11.99 14.33 12.98 14.66 14 15 C15.61328125 17.40625 15.61328125 17.40625 17.3125 20.5 C19.98159101 25.25893248 22.80120762 29.79232208 25.93359375 34.2578125 C27 36 27 36 27 38 C27.66 38 28.32 38 29 38 C39.40579925 52.3823011 40.31854793 64.54242534 39 82 C35.21193403 78.36182153 31.93261518 74.54860913 28.75 70.375 C28.30398438 69.80265625 27.85796875 69.2303125 27.3984375 68.640625 C25.45190571 66.10423509 24.01872822 64.05618467 23 61 C21.66833889 60.32999932 20.3347996 59.66372604 19 59 C17.46484375 57.22265625 17.46484375 57.22265625 15.9375 55.0625 C9.90437424 47.02264786 2.52910111 40.09276789 -5.1484375 33.6328125 C-6.59898117 32.35364108 -7.98529178 31.001571 -9.34375 29.625 C-12.13801513 26.86360858 -15.08412903 24.35471274 -18.125 21.875 C-21.21057997 19.35043457 -24.17508932 16.82491068 -27 14 C-18.09 9.38 -9.18 4.76 0 0 Z " fill="#7FB579" transform="translate(322,43)"/>
<path d="M0 0 C9.57 0 19.14 0 29 0 C27.85030864 16.09567901 27.85030864 16.09567901 26.9375 23.375 C26.628125 25.89125 26.31875 28.4075 26 31 C18.41 31 10.82 31 3 31 C1.50537631 20.63727578 0.55520344 10.45633136 0 0 Z " fill="#80B67A" transform="translate(234,256)"/>
<path d="M0 0 C5.04335173 1.88085394 9.39857167 5.29780629 13.3671875 8.8828125 C13.6971875 9.8728125 14.0271875 10.8628125 14.3671875 11.8828125 C15.69186496 12.566517 17.02582383 13.23245436 18.3671875 13.8828125 C20.3671875 16.8828125 20.3671875 16.8828125 20.1796875 20.3828125 C19.3671875 23.8828125 19.3671875 23.8828125 18.1796875 25.7578125 C15.38047044 27.49525757 13.70673866 27.84826542 10.3671875 27.8828125 C7.32507824 26.14446435 4.79560983 23.88727228 2.1796875 21.5703125 C0.77011066 20.36520737 -0.64002363 19.16075389 -2.05078125 17.95703125 C-2.66719482 17.41651123 -3.2836084 16.87599121 -3.91870117 16.3190918 C-5.78329633 14.70361235 -5.78329633 14.70361235 -8.6328125 12.8828125 C-9.59394292 9.90158162 -9.79882181 7.00378758 -9.6328125 3.8828125 C-7.35288437 -0.28053453 -4.61060093 -0.81772922 0 0 Z " fill="#030403" transform="translate(112.6328125,310.1171875)"/>
<path d="M0 0 C1.93709638 3.25753924 2.23715445 5.65609928 2.1953125 9.421875 C2.18886719 10.44667969 2.18242187 11.47148437 2.17578125 12.52734375 C2.15902344 13.59082031 2.14226562 14.65429688 2.125 15.75 C2.11597656 16.82894531 2.10695313 17.90789062 2.09765625 19.01953125 C2.07411305 21.67991278 2.04122799 24.33984336 2 27 C1.34 27.33 0.68 27.66 0 28 C-0.66 27.67 -1.32 27.34 -2 27 C-1.50804657 17.97736473 -0.99820304 8.98382735 0 0 Z " fill="#8EBC8A" transform="translate(277,264)"/>
</svg>
