<?xml version="1.0" encoding="UTF-8"?>
<svg version="1.1" xmlns="http://www.w3.org/2000/svg" width="512" height="512">
<path d="M0 0 C3.84313129 2.38844221 6.46818181 5.26480972 9.4296875 8.6484375 C13.5242329 13.20473428 17.58374248 17.52202068 22.37109375 21.37109375 C24.0546875 22.8984375 24.0546875 22.8984375 25.93359375 25.37890625 C31.16944242 31.59828451 39.09605846 34.15734829 46.9921875 34.8984375 C58.18381403 35.20691673 68.14896185 34.15109368 77.0546875 26.8984375 C79.4534439 24.46357942 81.69003418 21.94875424 83.90234375 19.34375 C86.41716366 16.48662248 89.1659618 14.1317837 92.078125 11.6953125 C95.05123359 8.99248651 97.55768587 5.92319107 100.09765625 2.81640625 C103.67620908 -0.69071838 107.47172657 -1.41862424 112.3671875 -1.5390625 C118.08078097 -1.41585833 121.86566151 -0.00271704 126.0546875 3.8984375 C131.19717501 10.84774494 132.71636557 19.28509078 133.9296875 27.7109375 C135.93660416 40.08959948 139.84488336 49.27963683 149.0546875 57.8984375 C149.58191406 58.42050781 150.10914063 58.94257812 150.65234375 59.48046875 C158.57002931 66.78061895 168.50041702 68.41592451 178.86035156 68.21923828 C185.83985176 67.86018713 192.3450855 65.52408366 198.9296875 63.3359375 C215.06747982 58.0156793 215.06747982 58.0156793 223.0546875 59.8984375 C228.25684678 62.64674806 231.36848224 66.0880954 234.3671875 71.0859375 C236.50375361 79.82643522 232.66789492 88.85726844 229.9921875 97.0859375 C225.62901496 111.20994311 223.26263996 123.05402004 230.0546875 136.8984375 C236.18502455 148.25091352 245.47483587 154.15056941 257.3046875 158.0234375 C261.5864718 159.29907301 265.76207492 160.24440135 270.1796875 160.8984375 C277.91973204 162.06713297 286.51617791 164.01377106 292.0546875 169.8984375 C295.70467767 175.05876844 295.93106847 180.78095462 295.0546875 186.8984375 C292.99682689 192.40066056 289.60997452 195.50525351 285.3046875 199.2734375 C280.74839072 203.3679829 276.43110432 207.42749248 272.58203125 212.21484375 C271.0546875 213.8984375 271.0546875 213.8984375 268.57421875 215.7734375 C262.5040894 220.89305047 259.82800258 228.72505391 259.1171875 236.4609375 C259.0559001 238.60599661 259.03344167 240.75260821 259.0546875 242.8984375 C259.044375 243.836875 259.0340625 244.7753125 259.0234375 245.7421875 C259.32743583 254.55813907 262.51817662 262.22365702 268.65234375 268.59765625 C270.53840053 270.29173476 272.45011281 271.95769694 274.38671875 273.59375 C277.3625102 276.16434584 279.78184096 278.94732603 282.29296875 281.95703125 C284.98113881 284.91938274 288.04380923 287.4127797 291.13671875 289.94140625 C294.64384338 293.51995908 295.37174924 297.31547657 295.4921875 302.2109375 C295.36189812 307.89768593 294.05205038 311.79408924 290.0546875 315.8984375 C283.31864376 320.76750681 274.37842674 322.61391112 266.3046875 323.7734375 C253.89826933 325.76675662 244.69148314 329.66940445 236.0546875 338.8984375 C235.53261719 339.42566406 235.01054687 339.95289063 234.47265625 340.49609375 C227.17250605 348.41377931 225.53720049 358.34416702 225.73388672 368.70410156 C226.09293787 375.68360176 228.42904134 382.1888355 230.6171875 388.7734375 C235.9374457 404.91122982 235.9374457 404.91122982 234.0546875 412.8984375 C231.30637694 418.10059678 227.8650296 421.21223224 222.8671875 424.2109375 C214.12710478 426.34740217 205.0953391 422.51224415 196.8671875 419.8359375 C183.82493182 415.79655049 171.05417579 412.77967303 158.0546875 418.8984375 C155.12548389 420.64291683 152.59929989 422.6348566 150.0546875 424.8984375 C149.35085938 425.52105469 148.64703125 426.14367187 147.921875 426.78515625 C138.45996167 435.67097523 134.9299928 447.35690167 133.0546875 460.0234375 C131.88599203 467.76348204 129.93935394 476.35992791 124.0546875 481.8984375 C118.89435656 485.54842767 113.17217038 485.77481847 107.0546875 484.8984375 C101.55246444 482.84057689 98.44787149 479.45372452 94.6796875 475.1484375 C90.5851421 470.59214072 86.52563252 466.27485432 81.73828125 462.42578125 C80.0546875 460.8984375 80.0546875 460.8984375 78.17578125 458.41796875 C72.93993258 452.19859049 65.01331654 449.63952671 57.1171875 448.8984375 C45.92556097 448.58995827 35.96041315 449.64578132 27.0546875 456.8984375 C24.6559311 459.33329558 22.41934082 461.84812076 20.20703125 464.453125 C18.24705896 466.67988117 16.26116863 468.55906248 13.9921875 470.4609375 C10.20609721 473.63490541 7.07242698 477.18912626 3.9140625 480.98046875 C0.37521924 484.63083018 -2.68311361 485.22556524 -7.6953125 485.3359375 C-13.62332159 485.21303975 -17.69137571 484.13177412 -21.9453125 479.8984375 C-26.80804686 473.15045843 -28.65964336 464.23013374 -29.8203125 456.1484375 C-31.81363162 443.74201933 -35.71627945 434.53523314 -44.9453125 425.8984375 C-45.47253906 425.37636719 -45.99976563 424.85429687 -46.54296875 424.31640625 C-54.46065431 417.01625605 -64.39104202 415.38095049 -74.75097656 415.57763672 C-81.73047676 415.93668787 -88.2357105 418.27279134 -94.8203125 420.4609375 C-110.95810482 425.7811957 -110.95810482 425.7811957 -118.9453125 423.8984375 C-124.14747178 421.15012694 -127.25910724 417.7087796 -130.2578125 412.7109375 C-132.39437861 403.97043978 -128.55851992 394.93960656 -125.8828125 386.7109375 C-121.51963996 372.58693189 -119.15326496 360.74285496 -125.9453125 346.8984375 C-132.07564955 335.54596148 -141.36546087 329.64630559 -153.1953125 325.7734375 C-157.4770968 324.49780199 -161.65269992 323.55247365 -166.0703125 322.8984375 C-173.81035704 321.72974203 -182.40680291 319.78310394 -187.9453125 313.8984375 C-191.59530267 308.73810656 -191.82169347 303.01592038 -190.9453125 296.8984375 C-188.88745189 291.39621444 -185.50059952 288.29162149 -181.1953125 284.5234375 C-176.63901572 280.4288921 -172.32172932 276.36938252 -168.47265625 271.58203125 C-166.9453125 269.8984375 -166.9453125 269.8984375 -164.46484375 268.0234375 C-158.3947144 262.90382453 -155.71862758 255.07182109 -155.0078125 247.3359375 C-154.9465251 245.19087839 -154.92406667 243.04426679 -154.9453125 240.8984375 C-154.935 239.96 -154.9246875 239.0215625 -154.9140625 238.0546875 C-155.21806083 229.23873593 -158.40880162 221.57321798 -164.54296875 215.19921875 C-166.42902553 213.50514024 -168.34073781 211.83917806 -170.27734375 210.203125 C-173.2531352 207.63252916 -175.67246596 204.84954897 -178.18359375 201.83984375 C-180.87176381 198.87749226 -183.93443423 196.3840953 -187.02734375 193.85546875 C-190.53446838 190.27691592 -191.26237424 186.48139843 -191.3828125 181.5859375 C-191.25252312 175.89918907 -189.94267538 172.00278576 -185.9453125 167.8984375 C-179.20926876 163.02936819 -170.26905174 161.18296388 -162.1953125 160.0234375 C-149.78889433 158.03011838 -140.58210814 154.12747055 -131.9453125 144.8984375 C-131.42324219 144.37121094 -130.90117187 143.84398437 -130.36328125 143.30078125 C-123.06313105 135.38309569 -121.42782549 125.45270798 -121.62451172 115.09277344 C-121.98356287 108.11327324 -124.31966634 101.6080395 -126.5078125 95.0234375 C-131.8280707 78.88564518 -131.8280707 78.88564518 -129.9453125 70.8984375 C-127.19700194 65.69627822 -123.7556546 62.58464276 -118.7578125 59.5859375 C-110.01721268 57.44934643 -100.98660973 61.28537672 -92.7578125 63.9609375 C-78.54966065 68.34743694 -65.90804952 70.82972446 -51.9453125 63.8984375 C-49.47983731 62.17973486 -47.21383599 60.39631894 -44.98046875 58.38671875 C-42.60316316 56.64822848 -40.85266656 56.22147684 -37.9453125 55.8984375 C-35.6328125 56.3359375 -35.6328125 56.3359375 -33.9453125 56.8984375 C-29.67035656 52.47606929 -28.43232652 47.70004524 -26.9453125 41.8984375 C-27.6053125 41.8984375 -28.2653125 41.8984375 -28.9453125 41.8984375 C-33.15023936 33.48858378 -29.34565047 22.31539376 -26.5703125 13.7734375 C-24.62669151 7.94257453 -22.4745961 3.68744297 -17.3828125 0.0859375 C-11.60198711 -1.91107491 -5.76712355 -2.1569348 0 0 Z " fill="#FEC243" transform="translate(203.9453125,14.1015625)"/>
<path d="M0 0 C3.84313129 2.38844221 6.46818181 5.26480972 9.4296875 8.6484375 C13.5242329 13.20473428 17.58374248 17.52202068 22.37109375 21.37109375 C24.0546875 22.8984375 24.0546875 22.8984375 25.93359375 25.37890625 C31.16944242 31.59828451 39.09605846 34.15734829 46.9921875 34.8984375 C58.18381403 35.20691673 68.14896185 34.15109368 77.0546875 26.8984375 C79.4534439 24.46357942 81.69003418 21.94875424 83.90234375 19.34375 C86.41716366 16.48662248 89.1659618 14.1317837 92.078125 11.6953125 C95.05123359 8.99248651 97.55768587 5.92319107 100.09765625 2.81640625 C103.67620908 -0.69071838 107.47172657 -1.41862424 112.3671875 -1.5390625 C118.08078097 -1.41585833 121.86566151 -0.00271704 126.0546875 3.8984375 C131.19717501 10.84774494 132.71636557 19.28509078 133.9296875 27.7109375 C135.93660416 40.08959948 139.84488336 49.27963683 149.0546875 57.8984375 C149.58191406 58.42050781 150.10914063 58.94257812 150.65234375 59.48046875 C158.57002931 66.78061895 168.50041702 68.41592451 178.86035156 68.21923828 C185.83985176 67.86018713 192.3450855 65.52408366 198.9296875 63.3359375 C215.06747982 58.0156793 215.06747982 58.0156793 223.0546875 59.8984375 C228.25684678 62.64674806 231.36848224 66.0880954 234.3671875 71.0859375 C236.50375361 79.82643522 232.66789492 88.85726844 229.9921875 97.0859375 C225.62901496 111.20994311 223.26263996 123.05402004 230.0546875 136.8984375 C236.18502455 148.25091352 245.47483587 154.15056941 257.3046875 158.0234375 C261.5864718 159.29907301 265.76207492 160.24440135 270.1796875 160.8984375 C277.91973204 162.06713297 286.51617791 164.01377106 292.0546875 169.8984375 C295.70467767 175.05876844 295.93106847 180.78095462 295.0546875 186.8984375 C292.99682689 192.40066056 289.60997452 195.50525351 285.3046875 199.2734375 C280.74839072 203.3679829 276.43110432 207.42749248 272.58203125 212.21484375 C271.0546875 213.8984375 271.0546875 213.8984375 268.57421875 215.7734375 C262.5040894 220.89305047 259.82800258 228.72505391 259.1171875 236.4609375 C259.0559001 238.60599661 259.03344167 240.75260821 259.0546875 242.8984375 C259.044375 243.836875 259.0340625 244.7753125 259.0234375 245.7421875 C259.32743583 254.55813907 262.51817662 262.22365702 268.65234375 268.59765625 C270.53840053 270.29173476 272.45011281 271.95769694 274.38671875 273.59375 C277.3625102 276.16434584 279.78184096 278.94732603 282.29296875 281.95703125 C284.98113881 284.91938274 288.04380923 287.4127797 291.13671875 289.94140625 C294.64384338 293.51995908 295.37174924 297.31547657 295.4921875 302.2109375 C295.36189812 307.89768593 294.05205038 311.79408924 290.0546875 315.8984375 C283.31864376 320.76750681 274.37842674 322.61391112 266.3046875 323.7734375 C253.89826933 325.76675662 244.69148314 329.66940445 236.0546875 338.8984375 C235.53261719 339.42566406 235.01054687 339.95289063 234.47265625 340.49609375 C227.17250605 348.41377931 225.53720049 358.34416702 225.73388672 368.70410156 C226.09293787 375.68360176 228.42904134 382.1888355 230.6171875 388.7734375 C235.9374457 404.91122982 235.9374457 404.91122982 234.0546875 412.8984375 C231.30637694 418.10059678 227.8650296 421.21223224 222.8671875 424.2109375 C214.12710478 426.34740217 205.0953391 422.51224415 196.8671875 419.8359375 C183.82493182 415.79655049 171.05417579 412.77967303 158.0546875 418.8984375 C155.12548389 420.64291683 152.59929989 422.6348566 150.0546875 424.8984375 C149.35085938 425.52105469 148.64703125 426.14367187 147.921875 426.78515625 C138.45996167 435.67097523 134.9299928 447.35690167 133.0546875 460.0234375 C131.88599203 467.76348204 129.93935394 476.35992791 124.0546875 481.8984375 C118.89435656 485.54842767 113.17217038 485.77481847 107.0546875 484.8984375 C101.55246444 482.84057689 98.44787149 479.45372452 94.6796875 475.1484375 C90.5851421 470.59214072 86.52563252 466.27485432 81.73828125 462.42578125 C80.0546875 460.8984375 80.0546875 460.8984375 78.17578125 458.41796875 C72.93993258 452.19859049 65.01331654 449.63952671 57.1171875 448.8984375 C45.92556097 448.58995827 35.96041315 449.64578132 27.0546875 456.8984375 C24.6559311 459.33329558 22.41934082 461.84812076 20.20703125 464.453125 C18.24705896 466.67988117 16.26116863 468.55906248 13.9921875 470.4609375 C10.20609721 473.63490541 7.07242698 477.18912626 3.9140625 480.98046875 C0.37521924 484.63083018 -2.68311361 485.22556524 -7.6953125 485.3359375 C-13.62332159 485.21303975 -17.69137571 484.13177412 -21.9453125 479.8984375 C-26.80804686 473.15045843 -28.65964336 464.23013374 -29.8203125 456.1484375 C-31.81363162 443.74201933 -35.71627945 434.53523314 -44.9453125 425.8984375 C-45.47253906 425.37636719 -45.99976563 424.85429687 -46.54296875 424.31640625 C-54.46065431 417.01625605 -64.39104202 415.38095049 -74.75097656 415.57763672 C-81.73047676 415.93668787 -88.2357105 418.27279134 -94.8203125 420.4609375 C-110.95810482 425.7811957 -110.95810482 425.7811957 -118.9453125 423.8984375 C-124.14747178 421.15012694 -127.25910724 417.7087796 -130.2578125 412.7109375 C-132.39437861 403.97043978 -128.55851992 394.93960656 -125.8828125 386.7109375 C-121.51963996 372.58693189 -119.15326496 360.74285496 -125.9453125 346.8984375 C-132.07564955 335.54596148 -141.36546087 329.64630559 -153.1953125 325.7734375 C-157.4770968 324.49780199 -161.65269992 323.55247365 -166.0703125 322.8984375 C-173.81035704 321.72974203 -182.40680291 319.78310394 -187.9453125 313.8984375 C-191.59530267 308.73810656 -191.82169347 303.01592038 -190.9453125 296.8984375 C-188.88745189 291.39621444 -185.50059952 288.29162149 -181.1953125 284.5234375 C-176.63901572 280.4288921 -172.32172932 276.36938252 -168.47265625 271.58203125 C-166.9453125 269.8984375 -166.9453125 269.8984375 -164.46484375 268.0234375 C-158.3947144 262.90382453 -155.71862758 255.07182109 -155.0078125 247.3359375 C-154.9465251 245.19087839 -154.92406667 243.04426679 -154.9453125 240.8984375 C-154.935 239.96 -154.9246875 239.0215625 -154.9140625 238.0546875 C-155.21806083 229.23873593 -158.40880162 221.57321798 -164.54296875 215.19921875 C-166.42902553 213.50514024 -168.34073781 211.83917806 -170.27734375 210.203125 C-173.2531352 207.63252916 -175.67246596 204.84954897 -178.18359375 201.83984375 C-180.87176381 198.87749226 -183.93443423 196.3840953 -187.02734375 193.85546875 C-190.53446838 190.27691592 -191.26237424 186.48139843 -191.3828125 181.5859375 C-191.25252312 175.89918907 -189.94267538 172.00278576 -185.9453125 167.8984375 C-179.20926876 163.02936819 -170.26905174 161.18296388 -162.1953125 160.0234375 C-149.78889433 158.03011838 -140.58210814 154.12747055 -131.9453125 144.8984375 C-131.42324219 144.37121094 -130.90117187 143.84398437 -130.36328125 143.30078125 C-123.06313105 135.38309569 -121.42782549 125.45270798 -121.62451172 115.09277344 C-121.98356287 108.11327324 -124.31966634 101.6080395 -126.5078125 95.0234375 C-131.8280707 78.88564518 -131.8280707 78.88564518 -129.9453125 70.8984375 C-127.19700194 65.69627822 -123.7556546 62.58464276 -118.7578125 59.5859375 C-110.01721268 57.44934643 -100.98660973 61.28537672 -92.7578125 63.9609375 C-78.54966065 68.34743694 -65.90804952 70.82972446 -51.9453125 63.8984375 C-49.47983731 62.17973486 -47.21383599 60.39631894 -44.98046875 58.38671875 C-42.60316316 56.64822848 -40.85266656 56.22147684 -37.9453125 55.8984375 C-35.6328125 56.3359375 -35.6328125 56.3359375 -33.9453125 56.8984375 C-29.67035656 52.47606929 -28.43232652 47.70004524 -26.9453125 41.8984375 C-27.6053125 41.8984375 -28.2653125 41.8984375 -28.9453125 41.8984375 C-33.15023936 33.48858378 -29.34565047 22.31539376 -26.5703125 13.7734375 C-24.62669151 7.94257453 -22.4745961 3.68744297 -17.3828125 0.0859375 C-11.60198711 -1.91107491 -5.76712355 -2.1569348 0 0 Z M-8.37890625 86.78125 C-10.77439503 87.82403507 -13.13654402 88.63628349 -15.6328125 89.3984375 C-25.56964014 92.62790648 -34.27037927 99.21345781 -42.9453125 104.8984375 C-44.399375 105.82269531 -44.399375 105.82269531 -45.8828125 106.765625 C-49.72102084 109.43866295 -53.22711524 112.39870348 -56.7578125 115.4609375 C-57.43779297 116.03779297 -58.11777344 116.61464844 -58.81835938 117.20898438 C-59.46482422 117.76779297 -60.11128906 118.32660156 -60.77734375 118.90234375 C-61.36233643 119.40580322 -61.9473291 119.9092627 -62.55004883 120.42797852 C-64.20125078 121.960255 -64.20125078 121.960255 -64.9453125 124.8984375 C-65.53441406 125.19234375 -66.12351563 125.48625 -66.73046875 125.7890625 C-69.6400804 127.24643412 -71.24607593 129.20433675 -73.3828125 131.6484375 C-74.16914063 132.54691406 -74.95546875 133.44539063 -75.765625 134.37109375 C-76.48492187 135.20511719 -77.20421875 136.03914063 -77.9453125 136.8984375 C-78.45835938 137.47464844 -78.97140625 138.05085938 -79.5 138.64453125 C-82.01278246 141.5240863 -83.9671252 144.52004755 -85.79296875 147.87109375 C-87.18598944 150.32186574 -88.71873822 152.66169546 -90.2578125 155.0234375 C-95.39561389 163.06713516 -100.48834266 171.28534025 -103.20703125 180.4921875 C-104.12868799 183.49610577 -105.26775711 186.39838977 -106.3828125 189.3359375 C-109.37714174 197.69660981 -111.25093998 206.1926579 -112.9453125 214.8984375 C-113.17347656 216.001875 -113.40164062 217.1053125 -113.63671875 218.2421875 C-116.87729418 236.55257176 -115.68632424 255.77679848 -111.9453125 273.8984375 C-111.72875 275.03925781 -111.5121875 276.18007813 -111.2890625 277.35546875 C-109.39519527 286.49788733 -106.23576409 295.18307034 -102.9453125 303.8984375 C-102.34203125 305.51105469 -102.34203125 305.51105469 -101.7265625 307.15625 C-98.56060197 315.17810945 -94.42338082 322.55500196 -89.9453125 329.8984375 C-89.33945313 330.89746094 -88.73359375 331.89648438 -88.109375 332.92578125 C-84.23809903 339.01038167 -79.87827579 344.5542118 -75.1953125 350.0234375 C-74.64012939 350.67562256 -74.08494629 351.32780762 -73.51293945 351.99975586 C-72.98015381 352.60827393 -72.44736816 353.21679199 -71.8984375 353.84375 C-71.18929199 354.65610107 -71.18929199 354.65610107 -70.46582031 355.48486328 C-68.9715907 357.01690527 -68.9715907 357.01690527 -66.82324219 357.90185547 C-64.9453125 358.8984375 -64.9453125 358.8984375 -63.9453125 361.8984375 C-59.3525849 362.84560305 -59.3525849 362.84560305 -54.8203125 362.2109375 C-52.9453125 361.8984375 -52.9453125 361.8984375 -50.5078125 363.5234375 C-48.73575116 365.16583581 -47.0085565 366.85749722 -45.3203125 368.5859375 C-43.09182404 371.09140544 -43.09182404 371.09140544 -39.9453125 371.8984375 C-40.2134375 372.7646875 -40.4815625 373.6309375 -40.7578125 374.5234375 C-40.97570648 378.44552918 -40.07146696 379.53444558 -37.5300293 382.39550781 C-34.81110656 384.97410716 -31.73285331 386.69989594 -28.4453125 388.4609375 C-27.73971191 388.84733398 -27.03411133 389.23373047 -26.30712891 389.63183594 C-20.05310504 392.98366572 -13.64229823 395.56227969 -6.9453125 397.8984375 C-5.86121094 398.31738281 -4.77710938 398.73632812 -3.66015625 399.16796875 C5.7407319 402.74052211 15.21043615 404.98248858 25.0546875 406.8984375 C26.70984375 407.24068359 26.70984375 407.24068359 28.3984375 407.58984375 C53.90581587 412.10414462 80.83829949 408.61656859 105.0546875 399.8984375 C106.6822484 399.33190694 108.30985496 398.76550754 109.9375 398.19921875 C117.993192 395.35562168 125.84722186 392.55692139 133.0546875 387.8984375 C134.19766284 387.17537986 135.34091861 386.45276541 136.484375 385.73046875 C140.02590581 383.48007783 143.54510666 381.19838555 147.0546875 378.8984375 C148.03566406 378.27066406 149.01664062 377.64289063 150.02734375 376.99609375 C153.64093164 374.49222704 156.96735036 371.75497183 160.3046875 368.8984375 C160.92859375 368.37765625 161.5525 367.856875 162.1953125 367.3203125 C162.7934375 366.80984375 163.3915625 366.299375 164.0078125 365.7734375 C164.54567383 365.31710937 165.08353516 364.86078125 165.63769531 364.390625 C167.24092984 362.70231186 168.03248681 360.97575219 169.0546875 358.8984375 C170.37951223 358.2150184 171.71413525 357.55046655 173.0546875 356.8984375 C176.2391028 353.73111208 179.11991329 350.29687443 182.0546875 346.8984375 C182.55613281 346.34542969 183.05757813 345.79242188 183.57421875 345.22265625 C186.4917884 341.93460157 188.4866236 338.43587822 190.53515625 334.5859375 C192.06060533 331.88797101 193.70832954 329.31641148 195.41186523 326.72924805 C199.20032741 320.97480651 202.65893495 315.38163727 205.0546875 308.8984375 C205.27721191 308.29660645 205.49973633 307.69477539 205.72900391 307.07470703 C207.3299202 302.71301631 208.8637528 298.33129778 210.35839844 293.93212891 C210.95135972 292.20023288 211.56706408 290.47615078 212.1875 288.75390625 C224.38571235 252.87963607 220.35891242 214.70979902 207.0546875 179.8984375 C206.67570312 178.89167969 206.29671875 177.88492188 205.90625 176.84765625 C199.80928119 161.40063797 190.59814668 147.0153644 179.8671875 134.3984375 C179.36799805 133.810625 178.86880859 133.2228125 178.35449219 132.6171875 C173.46811204 126.50288042 173.46811204 126.50288042 166.625 123.71875 C165.41457031 123.86957031 165.41457031 123.86957031 164.1796875 124.0234375 C160.14979935 124.20334322 158.24798443 123.80674647 155.1796875 121.1484375 C154.12449327 120.07827597 153.08139802 118.99595564 152.0546875 117.8984375 C150.848125 116.939375 150.848125 116.939375 149.6171875 115.9609375 C148.0546875 113.8984375 148.0546875 113.8984375 148.1171875 110.4609375 C148.39607392 106.84856334 148.39607392 106.84856334 146.1796875 104.3359375 C142.01665296 101.08877056 137.65581295 98.4768158 133.0546875 95.8984375 C131.99121094 95.29386719 130.92773438 94.68929687 129.83203125 94.06640625 C124.48789782 91.09744323 119.33224571 88.3704565 113.4609375 86.63671875 C110.45701923 85.71506201 107.55473523 84.57599289 104.6171875 83.4609375 C96.25651519 80.46660826 87.7604671 78.59281002 79.0546875 76.8984375 C77.95125 76.67027344 76.8478125 76.44210938 75.7109375 76.20703125 C48.16578439 71.3320846 17.14834567 75.34901757 -8.37890625 86.78125 Z " fill="#FDDF76" transform="translate(203.9453125,14.1015625)"/>
<path d="M0 0 C3.84313129 2.38844221 6.46818181 5.26480972 9.4296875 8.6484375 C13.5242329 13.20473428 17.58374248 17.52202068 22.37109375 21.37109375 C24.0546875 22.8984375 24.0546875 22.8984375 25.93359375 25.37890625 C31.16944242 31.59828451 39.09605846 34.15734829 46.9921875 34.8984375 C58.18381403 35.20691673 68.14896185 34.15109368 77.0546875 26.8984375 C79.4534439 24.46357942 81.69003418 21.94875424 83.90234375 19.34375 C86.41716366 16.48662248 89.1659618 14.1317837 92.078125 11.6953125 C95.05123359 8.99248651 97.55768587 5.92319107 100.09765625 2.81640625 C103.67620908 -0.69071838 107.47172657 -1.41862424 112.3671875 -1.5390625 C118.08078097 -1.41585833 121.86566151 -0.00271704 126.0546875 3.8984375 C131.19717501 10.84774494 132.71636557 19.28509078 133.9296875 27.7109375 C135.93660416 40.08959948 139.84488336 49.27963683 149.0546875 57.8984375 C149.58191406 58.42050781 150.10914063 58.94257812 150.65234375 59.48046875 C158.57002931 66.78061895 168.50041702 68.41592451 178.86035156 68.21923828 C185.83985176 67.86018713 192.3450855 65.52408366 198.9296875 63.3359375 C215.06747982 58.0156793 215.06747982 58.0156793 223.0546875 59.8984375 C228.25684678 62.64674806 231.36848224 66.0880954 234.3671875 71.0859375 C236.50375361 79.82643522 232.66789492 88.85726844 229.9921875 97.0859375 C225.62901496 111.20994311 223.26263996 123.05402004 230.0546875 136.8984375 C236.18502455 148.25091352 245.47483587 154.15056941 257.3046875 158.0234375 C261.5864718 159.29907301 265.76207492 160.24440135 270.1796875 160.8984375 C277.91973204 162.06713297 286.51617791 164.01377106 292.0546875 169.8984375 C295.70467767 175.05876844 295.93106847 180.78095462 295.0546875 186.8984375 C292.99682689 192.40066056 289.60997452 195.50525351 285.3046875 199.2734375 C280.74839072 203.3679829 276.43110432 207.42749248 272.58203125 212.21484375 C271.0546875 213.8984375 271.0546875 213.8984375 268.57421875 215.7734375 C262.5040894 220.89305047 259.82800258 228.72505391 259.1171875 236.4609375 C259.0559001 238.60599661 259.03344167 240.75260821 259.0546875 242.8984375 C259.044375 243.836875 259.0340625 244.7753125 259.0234375 245.7421875 C259.32743583 254.55813907 262.51817662 262.22365702 268.65234375 268.59765625 C270.53840053 270.29173476 272.45011281 271.95769694 274.38671875 273.59375 C277.3625102 276.16434584 279.78184096 278.94732603 282.29296875 281.95703125 C284.98113881 284.91938274 288.04380923 287.4127797 291.13671875 289.94140625 C294.64384338 293.51995908 295.37174924 297.31547657 295.4921875 302.2109375 C295.36189812 307.89768593 294.05205038 311.79408924 290.0546875 315.8984375 C283.31864376 320.76750681 274.37842674 322.61391112 266.3046875 323.7734375 C253.89826933 325.76675662 244.69148314 329.66940445 236.0546875 338.8984375 C235.53261719 339.42566406 235.01054687 339.95289063 234.47265625 340.49609375 C227.17250605 348.41377931 225.53720049 358.34416702 225.73388672 368.70410156 C226.09293787 375.68360176 228.42904134 382.1888355 230.6171875 388.7734375 C235.9374457 404.91122982 235.9374457 404.91122982 234.0546875 412.8984375 C231.30637694 418.10059678 227.8650296 421.21223224 222.8671875 424.2109375 C214.12710478 426.34740217 205.0953391 422.51224415 196.8671875 419.8359375 C183.82493182 415.79655049 171.05417579 412.77967303 158.0546875 418.8984375 C155.12548389 420.64291683 152.59929989 422.6348566 150.0546875 424.8984375 C149.35085938 425.52105469 148.64703125 426.14367187 147.921875 426.78515625 C138.45996167 435.67097523 134.9299928 447.35690167 133.0546875 460.0234375 C131.88599203 467.76348204 129.93935394 476.35992791 124.0546875 481.8984375 C118.89435656 485.54842767 113.17217038 485.77481847 107.0546875 484.8984375 C101.55246444 482.84057689 98.44787149 479.45372452 94.6796875 475.1484375 C90.5851421 470.59214072 86.52563252 466.27485432 81.73828125 462.42578125 C80.0546875 460.8984375 80.0546875 460.8984375 78.17578125 458.41796875 C72.93993258 452.19859049 65.01331654 449.63952671 57.1171875 448.8984375 C45.92556097 448.58995827 35.96041315 449.64578132 27.0546875 456.8984375 C24.6559311 459.33329558 22.41934082 461.84812076 20.20703125 464.453125 C18.24705896 466.67988117 16.26116863 468.55906248 13.9921875 470.4609375 C10.20609721 473.63490541 7.07242698 477.18912626 3.9140625 480.98046875 C0.37521924 484.63083018 -2.68311361 485.22556524 -7.6953125 485.3359375 C-13.62332159 485.21303975 -17.69137571 484.13177412 -21.9453125 479.8984375 C-26.80804686 473.15045843 -28.65964336 464.23013374 -29.8203125 456.1484375 C-31.81363162 443.74201933 -35.71627945 434.53523314 -44.9453125 425.8984375 C-45.47253906 425.37636719 -45.99976563 424.85429687 -46.54296875 424.31640625 C-54.46065431 417.01625605 -64.39104202 415.38095049 -74.75097656 415.57763672 C-81.73047676 415.93668787 -88.2357105 418.27279134 -94.8203125 420.4609375 C-110.95810482 425.7811957 -110.95810482 425.7811957 -118.9453125 423.8984375 C-124.14747178 421.15012694 -127.25910724 417.7087796 -130.2578125 412.7109375 C-132.39437861 403.97043978 -128.55851992 394.93960656 -125.8828125 386.7109375 C-121.51963996 372.58693189 -119.15326496 360.74285496 -125.9453125 346.8984375 C-132.07564955 335.54596148 -141.36546087 329.64630559 -153.1953125 325.7734375 C-157.4770968 324.49780199 -161.65269992 323.55247365 -166.0703125 322.8984375 C-173.81035704 321.72974203 -182.40680291 319.78310394 -187.9453125 313.8984375 C-191.59530267 308.73810656 -191.82169347 303.01592038 -190.9453125 296.8984375 C-188.88745189 291.39621444 -185.50059952 288.29162149 -181.1953125 284.5234375 C-176.63901572 280.4288921 -172.32172932 276.36938252 -168.47265625 271.58203125 C-166.9453125 269.8984375 -166.9453125 269.8984375 -164.46484375 268.0234375 C-158.3947144 262.90382453 -155.71862758 255.07182109 -155.0078125 247.3359375 C-154.9465251 245.19087839 -154.92406667 243.04426679 -154.9453125 240.8984375 C-154.935 239.96 -154.9246875 239.0215625 -154.9140625 238.0546875 C-155.21806083 229.23873593 -158.40880162 221.57321798 -164.54296875 215.19921875 C-166.42902553 213.50514024 -168.34073781 211.83917806 -170.27734375 210.203125 C-173.2531352 207.63252916 -175.67246596 204.84954897 -178.18359375 201.83984375 C-180.87176381 198.87749226 -183.93443423 196.3840953 -187.02734375 193.85546875 C-190.53446838 190.27691592 -191.26237424 186.48139843 -191.3828125 181.5859375 C-191.25252312 175.89918907 -189.94267538 172.00278576 -185.9453125 167.8984375 C-179.20926876 163.02936819 -170.26905174 161.18296388 -162.1953125 160.0234375 C-149.78889433 158.03011838 -140.58210814 154.12747055 -131.9453125 144.8984375 C-131.42324219 144.37121094 -130.90117187 143.84398437 -130.36328125 143.30078125 C-123.06313105 135.38309569 -121.42782549 125.45270798 -121.62451172 115.09277344 C-121.98356287 108.11327324 -124.31966634 101.6080395 -126.5078125 95.0234375 C-131.8280707 78.88564518 -131.8280707 78.88564518 -129.9453125 70.8984375 C-127.19700194 65.69627822 -123.7556546 62.58464276 -118.7578125 59.5859375 C-110.01721268 57.44934643 -100.98660973 61.28537672 -92.7578125 63.9609375 C-78.54966065 68.34743694 -65.90804952 70.82972446 -51.9453125 63.8984375 C-49.47983731 62.17973486 -47.21383599 60.39631894 -44.98046875 58.38671875 C-42.58699095 56.63640197 -40.88602804 56.15497811 -37.9453125 55.8984375 C-33.34829757 58.09246735 -33.34829757 58.09246735 -31.9453125 60.8984375 C-31.3203125 64.0859375 -31.3203125 64.0859375 -31.9453125 67.8984375 C-40.56265635 77.7043805 -55.56689869 83.14037667 -68.26171875 84.16650391 C-78.35096605 84.40323021 -86.61268524 82.46767434 -96.1328125 79.3984375 C-98.20036752 78.75071147 -100.26961509 78.10903548 -102.34065247 77.47253418 C-104.19170981 76.90087204 -106.03781081 76.3132319 -107.88354492 75.72460938 C-111.0604129 74.72475929 -111.0604129 74.72475929 -114.9453125 74.8984375 C-114.2768969 83.42073639 -111.50952713 91.25351541 -108.79296875 99.3203125 C-103.96889437 114.49640414 -104.90758691 128.71193036 -111.6953125 143.0859375 C-116.97820621 153.02868095 -123.78184792 162.0079167 -134.5078125 166.3359375 C-135.3121875 166.5215625 -136.1165625 166.7071875 -136.9453125 166.8984375 C-136.9453125 167.5584375 -136.9453125 168.2184375 -136.9453125 168.8984375 C-149.46464328 173.29834723 -162.03109394 176.85186819 -174.9453125 179.8984375 C-173.09103489 188.66159905 -163.99760367 194.97128476 -157.109375 200.01171875 C-154.70109432 202.11135696 -153.50588474 204.12455173 -151.9453125 206.8984375 C-150.64333413 208.61480324 -149.33025623 210.32279009 -148.0078125 212.0234375 C-139.30167511 223.85034105 -138.00853394 236.63858612 -138.9453125 250.8984375 C-139.55134146 254.46331374 -140.50943522 257.58725499 -141.9453125 260.8984375 C-142.36296875 261.91744141 -142.36296875 261.91744141 -142.7890625 262.95703125 C-144.96516574 267.76884574 -147.97976582 271.71778506 -151.296875 275.8046875 C-153.09253899 277.99482851 -153.09253899 277.99482851 -154.8203125 281.0234375 C-156.82460249 283.73512396 -158.46263821 285.1654065 -161.1328125 287.1484375 C-166.39758192 291.06640544 -171.03634821 295.61255671 -174.9453125 300.8984375 C-174.9453125 301.8884375 -174.9453125 302.8784375 -174.9453125 303.8984375 C-174.19024414 304.0843042 -173.43517578 304.2701709 -172.65722656 304.46166992 C-169.16741904 305.32665811 -165.6814327 306.20621124 -162.1953125 307.0859375 C-161.00808594 307.37791016 -159.82085937 307.66988281 -158.59765625 307.97070312 C-139.89783632 312.72229671 -124.13033172 320.02894344 -113.76855469 336.89135742 C-106.40900245 349.36877845 -103.42797985 362.59436258 -106.61328125 376.89794922 C-108.46398319 383.98035963 -110.6923756 390.93603203 -112.9453125 397.8984375 C-114.15122923 401.70521383 -114.9453125 404.84095983 -114.9453125 408.8984375 C-106.42301361 408.2300219 -98.59023459 405.46265213 -90.5234375 402.74609375 C-75.34734586 397.92201937 -61.13181964 398.86071191 -46.7578125 405.6484375 C-30.53008392 414.27074237 -21.6391728 427.25051068 -16.21484375 444.546875 C-13.80805717 452.57704765 -11.89012165 460.74679064 -9.9453125 468.8984375 C-2.65296768 467.36902535 3.02202023 460.62761785 7.1796875 454.7109375 C10.19579785 450.44794354 13.78303512 447.82996365 18.0546875 444.8984375 C19.21677734 444.01478516 19.21677734 444.01478516 20.40234375 443.11328125 C32.88988301 433.79215448 45.84569121 431.89930636 61.0546875 432.8984375 C64.61956374 433.50446646 67.74350499 434.46256022 71.0546875 435.8984375 C71.73402344 436.176875 72.41335938 436.4553125 73.11328125 436.7421875 C77.92509574 438.91829074 81.87403506 441.93289082 85.9609375 445.25 C88.15107851 447.04566399 88.15107851 447.04566399 91.1796875 448.7734375 C93.89137396 450.77772749 95.3216565 452.41576321 97.3046875 455.0859375 C101.22265544 460.35070692 105.76880671 464.98947321 111.0546875 468.8984375 C112.0446875 468.8984375 113.0346875 468.8984375 114.0546875 468.8984375 C114.27608398 468.03677979 114.49748047 467.17512207 114.72558594 466.28735352 C115.5618165 463.0483741 116.40507028 459.81138598 117.25292969 456.57543945 C117.61637585 455.18260439 117.97712215 453.7890616 118.33496094 452.39477539 C123.10887996 433.81249562 130.12773829 418.1161826 147.0480957 407.72167969 C160.45403687 399.81233633 173.37711302 397.67976489 188.55078125 401.3984375 C195.82769764 403.30021429 203.05886263 405.36724385 210.25 407.57128906 C213.40785539 408.52368481 215.69090109 408.8984375 219.0546875 408.8984375 C218.74805939 403.07250334 217.58594701 398.17258294 215.6796875 392.6484375 C209.85712162 375.77225867 207.66489069 361.04054299 214.0546875 343.8984375 C214.3846875 342.9084375 214.7146875 341.9184375 215.0546875 340.8984375 C215.7146875 340.8984375 216.3746875 340.8984375 217.0546875 340.8984375 C217.2403125 340.0940625 217.4259375 339.2896875 217.6171875 338.4609375 C222.27010921 326.9297837 232.98547508 318.9102848 244.0546875 313.8984375 C255.40891132 309.48983778 267.22885123 306.71982991 279.0546875 303.8984375 C277.20040989 295.13527595 268.10697867 288.82559024 261.21875 283.78515625 C258.81046932 281.68551804 257.61525974 279.67232327 256.0546875 276.8984375 C254.75270913 275.18207176 253.43963123 273.47408491 252.1171875 271.7734375 C243.46274247 260.01675574 241.96072009 247.10167923 243.0546875 232.8984375 C244.98393496 221.92729533 250.17806602 212.69214718 258.0546875 204.8984375 C258.4465625 204.1353125 258.8384375 203.3721875 259.2421875 202.5859375 C261.06985702 199.87594476 262.57943058 198.63071124 265.1796875 196.7109375 C270.46077511 192.76529733 275.12764193 188.20876863 279.0546875 182.8984375 C279.0546875 181.9084375 279.0546875 180.9184375 279.0546875 179.8984375 C278.19302979 179.67704102 277.33137207 179.45564453 276.44360352 179.22753906 C273.2046241 178.3913085 269.96763598 177.54805472 266.73168945 176.70019531 C265.33885439 176.33674915 263.9453116 175.97600285 262.55102539 175.61816406 C243.40278713 170.6988463 227.91755943 163.36957774 217.3046875 145.9609375 C210.03735132 133.03941824 207.60247655 118.29992189 211.43896484 103.81643677 C212.41774315 100.42786661 213.47248556 97.06770035 214.5546875 93.7109375 C215.20241353 91.64338248 215.84408952 89.57413491 216.48059082 87.50309753 C217.05225296 85.65204019 217.6398931 83.80593919 218.22851562 81.96020508 C219.22836571 78.7833371 219.22836571 78.7833371 219.0546875 74.8984375 C210.22791827 75.49686253 202.21029068 77.99730883 193.9296875 81.05078125 C180.72745305 85.6880661 166.93747895 85.6378368 154.0546875 79.8984375 C144.83908568 75.36108496 137.21046641 70.26852538 131.0546875 61.8984375 C130.52746094 61.26035156 130.00023437 60.62226562 129.45703125 59.96484375 C120.06824543 47.64656465 117.52987232 29.62953066 114.0546875 14.8984375 C105.29152595 16.75271511 98.98184024 25.84614633 93.94140625 32.734375 C91.84176804 35.14265568 89.82857327 36.33786526 87.0546875 37.8984375 C85.33832176 39.20041587 83.63033491 40.51349377 81.9296875 41.8359375 C70.17300574 50.49038253 57.25792923 51.99240491 43.0546875 50.8984375 C32.08354533 48.96919004 22.84839718 43.77505898 15.0546875 35.8984375 C14.2915625 35.5065625 13.5284375 35.1146875 12.7421875 34.7109375 C10.03219476 32.88326798 8.78696124 31.37369442 6.8671875 28.7734375 C2.92154733 23.49234989 -1.63498137 18.82548307 -6.9453125 14.8984375 C-7.9353125 14.8984375 -8.9253125 14.8984375 -9.9453125 14.8984375 C-10.14108887 15.76009521 -10.14108887 15.76009521 -10.34082031 16.63916016 C-10.94626769 19.27036449 -11.57060475 21.89674234 -12.1953125 24.5234375 C-12.50275391 25.87888672 -12.50275391 25.87888672 -12.81640625 27.26171875 C-14.09783551 32.58159174 -15.3999646 36.67778524 -18.9453125 40.8984375 C-22.90387455 42.49575201 -24.86234429 43.2594269 -28.9453125 41.8984375 C-32.69302816 35.36088878 -30.18971934 26.78431134 -28.41552734 19.81835938 C-24.19154529 4.90187045 -24.19154529 4.90187045 -17.3828125 0.0859375 C-11.60198711 -1.91107491 -5.76712355 -2.1569348 0 0 Z " fill="#020201" transform="translate(203.9453125,14.1015625)"/>
<path d="M0 0 C2.23807301 0.89915565 4.48443394 1.62321937 6.7890625 2.33203125 C11.65210717 3.92758517 15.85062779 6.26628168 20.2265625 8.89453125 C21.34417969 9.55324219 22.46179688 10.21195313 23.61328125 10.890625 C32.9453345 16.47268925 32.9453345 16.47268925 35.2265625 19.89453125 C35.0390625 23.45703125 35.0390625 23.45703125 34.2265625 26.89453125 C31.34716638 28.81412866 29.79387546 29.49654334 26.3671875 29.41015625 C22.45762304 28.46843634 19.38604726 25.98353043 16.08984375 23.7578125 C-14.79033276 3.66252711 -56.05227758 -1.34462029 -91.546875 5.63671875 C-106.7666143 8.94277903 -121.17346264 15.25529827 -134.92578125 22.45605469 C-139.59154708 24.89453125 -139.59154708 24.89453125 -141.7734375 24.89453125 C-141.7734375 25.55453125 -141.7734375 26.21453125 -141.7734375 26.89453125 C-143.45468762 28.08995603 -145.19591833 29.20165968 -146.9609375 30.26953125 C-149.97396223 32.10074039 -152.77353611 33.89461143 -155.51171875 36.12109375 C-157.7734375 37.89453125 -157.7734375 37.89453125 -159.7734375 37.89453125 C-160.02609375 38.48621094 -160.27875 39.07789063 -160.5390625 39.6875 C-161.91892648 42.15466186 -163.33704857 43.43164954 -165.5234375 45.20703125 C-168.94774637 48.0834507 -171.78486782 51.09900274 -174.546875 54.609375 C-174.95164063 55.03347656 -175.35640625 55.45757812 -175.7734375 55.89453125 C-176.4334375 55.89453125 -177.0934375 55.89453125 -177.7734375 55.89453125 C-178.01964844 56.60222656 -178.26585937 57.30992187 -178.51953125 58.0390625 C-179.93442362 61.26113826 -181.7231906 63.77142603 -183.8359375 66.58203125 C-186.53263794 70.09760142 -186.53263794 70.09760142 -188.7734375 73.89453125 C-189.4334375 73.89453125 -190.0934375 73.89453125 -190.7734375 73.89453125 C-191.05791748 74.620354 -191.34239746 75.34617676 -191.63549805 76.09399414 C-192.68228978 78.67021124 -193.80387848 81.18408927 -194.98046875 83.703125 C-214.40050791 125.59774759 -218.30954841 165.54766554 -202.41137695 209.19897461 C-200.74373518 213.64776192 -198.86707357 217.89489841 -196.671875 222.10913086 C-195.78511653 223.87132235 -195.02771394 225.69669651 -194.2734375 227.51953125 C-191.14689446 234.55425309 -186.10435512 240.56015955 -181.48828125 246.6796875 C-177.7734375 251.67620241 -177.7734375 251.67620241 -177.7734375 253.89453125 C-176.7834375 254.22453125 -175.7934375 254.55453125 -174.7734375 254.89453125 C-172.96204425 256.80894212 -171.34363193 258.83735001 -169.6875 260.88671875 C-158.6039288 272.51315874 -137.58879066 275.32080181 -122.59375 278.84375 C-121.83336426 279.02252686 -121.07297852 279.20130371 -120.28955078 279.38549805 C-114.51198913 280.5543527 -108.83901942 281.06771138 -102.953125 281.1328125 C-102.220439 281.14256104 -101.48775299 281.15230957 -100.73286438 281.16235352 C-78.79593977 281.39417597 -59.4982342 279.43784235 -38.7734375 271.89453125 C-37.25386005 271.43205116 -35.73318537 270.97314442 -34.2109375 270.51953125 C-23.97314921 267.08132468 -14.58854356 261.35199881 -5.515625 255.59375 C-2.7734375 253.89453125 -2.7734375 253.89453125 -0.71875 252.9765625 C2.08007734 251.41978504 3.99579522 249.17921435 6.2265625 246.89453125 C7.99998391 245.41406441 9.79208559 243.95570633 11.6015625 242.51953125 C19.93333023 235.74718529 26.53299166 228.28314684 33.2265625 219.89453125 C34.22816406 218.70150391 34.22816406 218.70150391 35.25 217.484375 C37.52540964 214.50295881 39.35546697 211.35631225 41.1640625 208.08203125 C43.32241168 204.22694515 45.49057638 200.40361451 47.9140625 196.70703125 C54.10729125 186.84757679 57.21147647 176.02840689 60.2265625 164.89453125 C60.52691406 163.79367187 60.82726562 162.6928125 61.13671875 161.55859375 C64.29136216 149.47900441 65.57733405 137.93009859 65.54223633 125.48730469 C65.53908566 123.16162748 65.56259187 120.83723906 65.58789062 118.51171875 C65.64307933 105.45807768 63.61497491 93.29517732 60.1640625 80.70703125 C59.68259766 78.92232422 59.68259766 78.92232422 59.19140625 77.1015625 C58.3425544 74.28007519 57.32722994 71.62326927 56.2265625 68.89453125 C55.88732812 67.5677479 55.5726839 66.23430471 55.2890625 64.89453125 C54.4658338 61.43308144 53.13376161 58.91426318 51.2265625 55.89453125 C50.8965625 54.88390625 50.5665625 53.87328125 50.2265625 52.83203125 C49.41427989 49.88934091 49.41427989 49.88934091 47.6015625 47.89453125 C45.66321708 45.07511973 45.72888264 43.23609599 46.2265625 39.89453125 C48.32713125 37.47079808 49.8645749 36.97680116 52.9765625 36.26953125 C63.4068445 38.27535471 71.16811263 51.90575143 76.80957031 60.23046875 C78.42986487 62.68789914 80.02329595 65.159914 81.6015625 67.64453125 C82.08915039 68.4118457 82.57673828 69.17916016 83.07910156 69.96972656 C87.66104664 77.33547882 91.78258158 84.86103307 94.34765625 93.171875 C95.06027874 95.37942111 95.82571977 97.53893958 96.63671875 99.7109375 C100.10319301 109.05196897 102.59820558 118.03811917 104.2265625 127.89453125 C104.53400391 129.44527344 104.53400391 129.44527344 104.84765625 131.02734375 C109.40815806 156.62905734 105.98119814 183.57674439 97.2265625 207.89453125 C96.66003194 209.52209215 96.09363254 211.14969871 95.52734375 212.77734375 C92.68374668 220.83303575 89.88504639 228.68706561 85.2265625 235.89453125 C84.50350486 237.03750659 83.78089041 238.18076236 83.05859375 239.32421875 C80.80820283 242.86574956 78.52651055 246.38495041 76.2265625 249.89453125 C75.59878906 250.87550781 74.97101563 251.85648437 74.32421875 252.8671875 C71.82035204 256.48077539 69.08309683 259.80719411 66.2265625 263.14453125 C65.70578125 263.7684375 65.185 264.39234375 64.6484375 265.03515625 C64.13796875 265.63328125 63.6275 266.23140625 63.1015625 266.84765625 C62.64523437 267.38551758 62.18890625 267.92337891 61.71875 268.47753906 C60.03043686 270.08077359 58.30387719 270.87233056 56.2265625 271.89453125 C55.5431434 273.21935598 54.87859155 274.553979 54.2265625 275.89453125 C51.05923708 279.07894655 47.62499943 281.95975704 44.2265625 284.89453125 C43.67355469 285.39597656 43.12054688 285.89742188 42.55078125 286.4140625 C39.26272657 289.33163215 35.76400322 291.32646735 31.9140625 293.375 C29.21609601 294.90044908 26.64453648 296.54817329 24.05737305 298.25170898 C18.30293151 302.04017116 12.70976227 305.4987787 6.2265625 307.89453125 C5.32381592 308.22831787 5.32381592 308.22831787 4.40283203 308.56884766 C0.04114131 310.16976395 -4.34057722 311.70359655 -8.73974609 313.19824219 C-10.47164212 313.79120347 -12.19572422 314.40690783 -13.91796875 315.02734375 C-47.89609916 326.58081781 -89.08364235 325.16156411 -121.72241211 309.79614258 C-123.83355768 308.86810299 -125.93925631 308.17591999 -128.1484375 307.51953125 C-137.31277407 304.56071403 -148.31466217 299.08269425 -153.7734375 290.89453125 C-153.3984375 287.70703125 -153.3984375 287.70703125 -152.7734375 284.89453125 C-153.63775391 284.50974609 -153.63775391 284.50974609 -154.51953125 284.1171875 C-157.74833861 282.36568542 -160.18494003 279.93304811 -162.87109375 277.453125 C-164.79227643 275.69012835 -164.79227643 275.69012835 -167.7734375 274.89453125 C-168.9284375 275.08015625 -170.0834375 275.26578125 -171.2734375 275.45703125 C-174.7734375 275.89453125 -174.7734375 275.89453125 -177.7734375 273.89453125 C-177.7734375 273.23453125 -177.7734375 272.57453125 -177.7734375 271.89453125 C-178.33417969 271.66765625 -178.89492187 271.44078125 -179.47265625 271.20703125 C-190.58810837 264.86612817 -197.952807 250.32979255 -204.4609375 239.76953125 C-204.92491943 239.01728271 -205.38890137 238.26503418 -205.86694336 237.48999023 C-209.94523048 230.78685201 -213.53044175 224.16467879 -215.86328125 216.65625 C-216.56308835 214.53280098 -217.34143506 212.43511543 -218.15234375 210.3515625 C-222.43709534 199.25456028 -224.61826259 188.16187312 -226.38793945 176.41723633 C-226.66803887 174.58426148 -226.97896625 172.75591509 -227.30834961 170.93115234 C-231.12391328 146.01882639 -226.15063048 117.37070129 -215.890625 94.4609375 C-214.84783993 92.06544872 -214.03559151 89.70329973 -213.2734375 87.20703125 C-210.04396852 77.27020361 -203.45841719 68.56946448 -197.7734375 59.89453125 C-197.14566406 58.91355469 -196.51789063 57.93257813 -195.87109375 56.921875 C-193.36722704 53.30828711 -190.62997183 49.98186839 -187.7734375 46.64453125 C-187.25265625 46.020625 -186.731875 45.39671875 -186.1953125 44.75390625 C-185.68484375 44.15578125 -185.174375 43.55765625 -184.6484375 42.94140625 C-184.19210938 42.40354492 -183.73578125 41.86568359 -183.265625 41.31152344 C-181.57731186 39.70828891 -179.85075219 38.91673194 -177.7734375 37.89453125 C-177.0900184 36.56970652 -176.42546655 35.2350835 -175.7734375 33.89453125 C-174.24542985 32.35827896 -172.654708 30.88315713 -171.0234375 29.45703125 C-170.12496094 28.67070312 -169.22648437 27.884375 -168.30078125 27.07421875 C-167.46675781 26.35492188 -166.63273437 25.635625 -165.7734375 24.89453125 C-165.19722656 24.38148437 -164.62101562 23.8684375 -164.02734375 23.33984375 C-161.1477887 20.82706129 -158.15182745 18.87271855 -154.80078125 17.046875 C-152.35000926 15.65385431 -150.01017954 14.12110553 -147.6484375 12.58203125 C-139.60473984 7.44422986 -131.38653475 2.35150109 -122.1796875 -0.3671875 C-119.17576923 -1.28884424 -116.27348523 -2.42791336 -113.3359375 -3.54296875 C-104.97526519 -6.53729799 -96.4792171 -8.41109623 -87.7734375 -10.10546875 C-86.67 -10.33363281 -85.5665625 -10.56179687 -84.4296875 -10.796875 C-56.10382037 -15.80999257 -26.31930884 -11.04706776 0 0 Z " fill="#FCB136" transform="translate(316.7734375,101.10546875)"/>
<path d="M0 0 C-0.47797257 6.1832959 -2.04048097 11.64759424 -3.93432617 17.54272461 C-9.75236479 35.69435041 -11.64128164 50.41772711 -3.25 68.1875 C1.92499031 77.90329062 7.65586251 84.17329561 17 90 C18.5778125 91.051875 18.5778125 91.051875 20.1875 92.125 C31.90528856 98.49925998 46.14728986 100.93361738 59 104 C59.62451172 105.8269043 59.62451172 105.8269043 60 108 C58.44472438 110.16213807 56.96564016 111.92149258 55.125 113.8125 C54.62484375 114.34367432 54.1246875 114.87484863 53.609375 115.42211914 C49.99496976 119.1827289 46.17670758 122.43701224 41.875 125.40234375 C39.59242844 127.34728494 38.47982661 129.39967805 37 132 C35.69802163 133.71636574 34.38494373 135.42435259 33.0625 137.125 C24.35636261 148.95190355 23.06322144 161.74014862 24 176 C24.60602896 179.56487624 25.56412272 182.68881749 27 186 C27.2784375 186.67933594 27.556875 187.35867188 27.84375 188.05859375 C30.03348029 192.90054047 33.0795349 196.86111141 36.41796875 200.97265625 C38 203 38 203 39.375 205.625 C41.6015448 208.87918086 44.50849504 210.82068277 47.6484375 213.16796875 C52.10005977 216.63609308 57.24729419 221.01072072 60 226 C59.5625 228.11328125 59.5625 228.11328125 59 230 C58.13834229 230.22139648 57.27668457 230.44279297 56.38891602 230.67089844 C53.1499366 231.507129 49.91294848 232.35038278 46.67700195 233.19824219 C45.28416689 233.56168835 43.8906241 233.92243465 42.49633789 234.28027344 C26.22401672 238.46074777 9.64355025 244.28113238 0.53515625 259.4375 C-0.68756018 261.60519672 -1.86505526 263.7853512 -3 266 C-3.66 266 -4.32 266 -5 266 C-5.13277344 266.72445313 -5.26554687 267.44890625 -5.40234375 268.1953125 C-5.96549222 270.83806152 -6.73411032 273.30579144 -7.5625 275.875 C-11.84131803 292.00614399 -7.16457883 307.33977035 -2.09619141 322.74755859 C-1.81308105 323.61848145 -1.5299707 324.4894043 -1.23828125 325.38671875 C-0.84636597 326.54046997 -0.84636597 326.54046997 -0.4465332 327.7175293 C0.08158988 330.41704963 -0.31051244 332.35895655 -1 335 C-8.77889286 334.47261743 -15.59776188 332.36049149 -23 330 C-38.5030284 325.09292556 -52.92049661 323.53384142 -67.90917969 330.94384766 C-75.88975764 335.13394491 -82.73324778 339.53876768 -88 347 C-88.5053125 347.61617188 -89.010625 348.23234375 -89.53125 348.8671875 C-98.95791888 361.22766659 -101.51159001 379.21284615 -105 394 C-106.8269043 394.62451172 -106.8269043 394.62451172 -109 395 C-111.16213807 393.44472438 -112.92149258 391.96564016 -114.8125 390.125 C-115.34367432 389.62484375 -115.87484863 389.1246875 -116.42211914 388.609375 C-120.1827289 384.99496976 -123.43701224 381.17670758 -126.40234375 376.875 C-128.34728494 374.59242844 -130.39967805 373.47982661 -133 372 C-134.71636574 370.69802163 -136.42435259 369.38494373 -138.125 368.0625 C-149.88168176 359.40805497 -162.79675827 357.90603259 -177 359 C-187.97120135 360.92925786 -197.20620775 366.1234711 -205 374 C-205.78375 374.4125 -206.5675 374.825 -207.375 375.25 C-210.55065522 377.36710348 -212.19176649 379.79382527 -214.390625 382.87109375 C-217.7228833 387.27905679 -222.12418773 392.30989668 -227 395 C-229.11328125 394.5625 -229.11328125 394.5625 -231 394 C-231.33209473 392.70751343 -231.33209473 392.70751343 -231.67089844 391.38891602 C-232.507129 388.1499366 -233.35038278 384.91294848 -234.19824219 381.67700195 C-234.56168835 380.28416689 -234.92243465 378.8906241 -235.28027344 377.49633789 C-240.0675517 358.86205785 -246.95631058 343.63504215 -263.875 333.3125 C-276.02134752 326.43463072 -289.69981673 323.88005177 -303.4921875 326.71875 C-307.02643342 327.73086662 -310.51050623 328.84297672 -314 330 C-317.01404586 330.96045349 -320.03685952 331.8893517 -323.0625 332.8125 C-323.77712402 333.04348389 -324.49174805 333.27446777 -325.22802734 333.51245117 C-329.18206903 334.7273828 -332.01436489 335.26639088 -336 334 C-335.58775338 326.16731421 -333.2331254 319.29016952 -330.6640625 311.94287109 C-328.97635563 307.00508755 -327.50774854 301.99494348 -326 297 C-325.29528564 297.2882666 -324.59057129 297.5765332 -323.86450195 297.87353516 C-300.91533248 306.89829165 -275.22318863 315.65942301 -250.25 314.9375 C-245.21752303 314.80800936 -242.12718275 315.34355418 -237.83203125 317.9296875 C-235.21124685 319.46080675 -232.46782466 320.25167421 -229.58203125 321.15625 C-227.6881391 321.77513155 -225.81234189 322.45012394 -223.94921875 323.15625 C-214.45103657 326.7495646 -204.95220772 329.06303995 -195 331 C-193.34484375 331.34224609 -193.34484375 331.34224609 -191.65625 331.69140625 C-166.14887163 336.20570712 -139.21638801 332.71813109 -115 324 C-113.3724391 323.43346944 -111.74483254 322.86707004 -110.1171875 322.30078125 C-102.0614955 319.45718418 -94.20746564 316.65848389 -87 312 C-85.85702466 311.27694236 -84.71376889 310.55432791 -83.5703125 309.83203125 C-80.02878169 307.58164033 -76.50958084 305.29994805 -73 303 C-72.01515625 302.3709375 -71.0303125 301.741875 -70.015625 301.09375 C-66.45475412 298.6214355 -63.20852097 295.901165 -59.9375 293.0625 C-59.0393457 292.29389648 -59.0393457 292.29389648 -58.12304688 291.50976562 C-51.17199256 285.51800248 -45.08167959 278.85853648 -39 272 C-38.49984375 271.45085937 -37.9996875 270.90171875 -37.484375 270.3359375 C-34.57277802 267.03735611 -32.57032207 263.54168465 -30.51953125 259.6875 C-28.99408217 256.98953351 -27.34635796 254.41797398 -25.64282227 251.83081055 C-21.85436009 246.07636901 -18.39575255 240.48319977 -16 234 C-15.77747559 233.39816895 -15.55495117 232.79633789 -15.32568359 232.17626953 C-13.7247673 227.81457881 -12.1909347 223.43286028 -10.69628906 219.03369141 C-10.10332778 217.30179538 -9.48762342 215.57771328 -8.8671875 213.85546875 C4.61040713 174.21860579 -1.8963362 133.04939098 -17.984375 95.42578125 C-19.47746233 91.85959959 -20.0583854 89.38302927 -19.875 85.5625 C-19.74641735 65.99222127 -24.97470468 45.22644564 -31.87109375 27.0234375 C-33.20359851 23.45472233 -34.28910979 19.84775247 -35.32421875 16.18359375 C-36.08420184 13.72792584 -37.0190933 11.37504643 -38 9 C-29.85027065 6.1752413 -21.66215114 3.51817669 -13.375 1.125 C-12.61783691 0.8978833 -11.86067383 0.6707666 -11.08056641 0.43676758 C-7.0469295 -0.70274162 -4.04210431 -1.29411245 0 0 Z " fill="#FDCF5A" transform="translate(424,89)"/>
<path d="M0 0 C2.23807301 0.89915565 4.48443394 1.62321937 6.7890625 2.33203125 C11.65210717 3.92758517 15.85062779 6.26628168 20.2265625 8.89453125 C21.34417969 9.55324219 22.46179688 10.21195313 23.61328125 10.890625 C32.9453345 16.47268925 32.9453345 16.47268925 35.2265625 19.89453125 C35.0390625 23.45703125 35.0390625 23.45703125 34.2265625 26.89453125 C31.34716638 28.81412866 29.79387546 29.49654334 26.3671875 29.41015625 C22.45762304 28.46843634 19.38604726 25.98353043 16.08984375 23.7578125 C-14.79033276 3.66252711 -56.05227758 -1.34462029 -91.546875 5.63671875 C-106.7666143 8.94277903 -121.17346264 15.25529827 -134.92578125 22.45605469 C-139.59154708 24.89453125 -139.59154708 24.89453125 -141.7734375 24.89453125 C-141.7734375 25.55453125 -141.7734375 26.21453125 -141.7734375 26.89453125 C-143.45468762 28.08995603 -145.19591833 29.20165968 -146.9609375 30.26953125 C-149.97396223 32.10074039 -152.77353611 33.89461143 -155.51171875 36.12109375 C-157.7734375 37.89453125 -157.7734375 37.89453125 -159.7734375 37.89453125 C-160.02609375 38.48621094 -160.27875 39.07789063 -160.5390625 39.6875 C-161.91892648 42.15466186 -163.33704857 43.43164954 -165.5234375 45.20703125 C-168.94774637 48.0834507 -171.78486782 51.09900274 -174.546875 54.609375 C-174.95164063 55.03347656 -175.35640625 55.45757812 -175.7734375 55.89453125 C-176.4334375 55.89453125 -177.0934375 55.89453125 -177.7734375 55.89453125 C-178.01964844 56.60222656 -178.26585937 57.30992187 -178.51953125 58.0390625 C-179.93442362 61.26113826 -181.7231906 63.77142603 -183.8359375 66.58203125 C-186.53263794 70.09760142 -186.53263794 70.09760142 -188.7734375 73.89453125 C-189.4334375 73.89453125 -190.0934375 73.89453125 -190.7734375 73.89453125 C-191.05791748 74.620354 -191.34239746 75.34617676 -191.63549805 76.09399414 C-192.68228978 78.67021124 -193.80387848 81.18408927 -194.98046875 83.703125 C-214.40050791 125.59774759 -218.30954841 165.54766554 -202.41137695 209.19897461 C-200.74373518 213.64776192 -198.86707357 217.89489841 -196.671875 222.10913086 C-195.78511653 223.87132235 -195.02771394 225.69669651 -194.2734375 227.51953125 C-191.14689446 234.55425309 -186.10435512 240.56015955 -181.48828125 246.6796875 C-177.7734375 251.67620241 -177.7734375 251.67620241 -177.7734375 253.89453125 C-176.7834375 254.22453125 -175.7934375 254.55453125 -174.7734375 254.89453125 C-173.0546875 256.6015625 -173.0546875 256.6015625 -171.2734375 258.70703125 C-170.685625 259.39410156 -170.0978125 260.08117187 -169.4921875 260.7890625 C-164.85953022 266.46406767 -164.85953022 266.46406767 -164.2734375 269.39453125 C-164.7734375 271.89453125 -164.7734375 271.89453125 -166.8359375 274.26953125 C-170.59891134 276.35117635 -172.66851394 275.86039562 -176.7734375 274.89453125 C-177.2684375 273.40953125 -177.2684375 273.40953125 -177.7734375 271.89453125 C-178.35480469 271.60578125 -178.93617188 271.31703125 -179.53515625 271.01953125 C-190.61567289 265.45026634 -198.19568052 249.93569968 -204.4609375 239.76953125 C-204.92491943 239.01728271 -205.38890137 238.26503418 -205.86694336 237.48999023 C-209.94523048 230.78685201 -213.53044175 224.16467879 -215.86328125 216.65625 C-216.56308835 214.53280098 -217.34143506 212.43511543 -218.15234375 210.3515625 C-222.43709534 199.25456028 -224.61826259 188.16187312 -226.38793945 176.41723633 C-226.66803887 174.58426148 -226.97896625 172.75591509 -227.30834961 170.93115234 C-231.12391328 146.01882639 -226.15063048 117.37070129 -215.890625 94.4609375 C-214.84783993 92.06544872 -214.03559151 89.70329973 -213.2734375 87.20703125 C-210.04396852 77.27020361 -203.45841719 68.56946448 -197.7734375 59.89453125 C-197.14566406 58.91355469 -196.51789063 57.93257813 -195.87109375 56.921875 C-193.36722704 53.30828711 -190.62997183 49.98186839 -187.7734375 46.64453125 C-187.25265625 46.020625 -186.731875 45.39671875 -186.1953125 44.75390625 C-185.68484375 44.15578125 -185.174375 43.55765625 -184.6484375 42.94140625 C-184.19210938 42.40354492 -183.73578125 41.86568359 -183.265625 41.31152344 C-181.57731186 39.70828891 -179.85075219 38.91673194 -177.7734375 37.89453125 C-177.0900184 36.56970652 -176.42546655 35.2350835 -175.7734375 33.89453125 C-174.24542985 32.35827896 -172.654708 30.88315713 -171.0234375 29.45703125 C-170.12496094 28.67070312 -169.22648437 27.884375 -168.30078125 27.07421875 C-167.46675781 26.35492188 -166.63273437 25.635625 -165.7734375 24.89453125 C-165.19722656 24.38148437 -164.62101562 23.8684375 -164.02734375 23.33984375 C-161.1477887 20.82706129 -158.15182745 18.87271855 -154.80078125 17.046875 C-152.35000926 15.65385431 -150.01017954 14.12110553 -147.6484375 12.58203125 C-139.60473984 7.44422986 -131.38653475 2.35150109 -122.1796875 -0.3671875 C-119.17576923 -1.28884424 -116.27348523 -2.42791336 -113.3359375 -3.54296875 C-104.97526519 -6.53729799 -96.4792171 -8.41109623 -87.7734375 -10.10546875 C-86.67 -10.33363281 -85.5665625 -10.56179687 -84.4296875 -10.796875 C-56.10382037 -15.80999257 -26.31930884 -11.04706776 0 0 Z " fill="#040301" transform="translate(316.7734375,101.10546875)"/>
<path d="M0 0 C10.92224649 6.62536271 18.68255072 20.21427966 25.375 30.75 C25.86258789 31.51731445 26.35017578 32.28462891 26.85253906 33.07519531 C31.43448414 40.44094757 35.55601908 47.96650182 38.12109375 56.27734375 C38.83371624 58.48488986 39.59915727 60.64440833 40.41015625 62.81640625 C43.87663051 72.15743772 46.37164308 81.14358792 48 91 C48.20496094 92.03382813 48.40992188 93.06765625 48.62109375 94.1328125 C53.18159556 119.73452609 49.75463564 146.68221314 41 171 C40.43346944 172.6275609 39.86707004 174.25516746 39.30078125 175.8828125 C36.45718418 183.9385045 33.65848389 191.79253436 29 199 C28.27694236 200.14297534 27.55432791 201.28623111 26.83203125 202.4296875 C24.58164033 205.97121831 22.29994805 209.49041916 20 213 C19.37222656 213.98097656 18.74445313 214.96195313 18.09765625 215.97265625 C15.59378954 219.58624414 12.85653433 222.91266286 10 226.25 C9.47921875 226.87390625 8.9584375 227.4978125 8.421875 228.140625 C7.91140625 228.73875 7.4009375 229.336875 6.875 229.953125 C6.41867187 230.49098633 5.96234375 231.02884766 5.4921875 231.58300781 C3.80387436 233.18624234 2.07731469 233.97779931 0 235 C-0.6834191 236.32482473 -1.34797095 237.65944775 -2 239 C-5.16732542 242.1844153 -8.60156307 245.06522579 -12 248 C-12.55300781 248.50144531 -13.10601562 249.00289062 -13.67578125 249.51953125 C-16.96383593 252.4371009 -20.46255928 254.4319361 -24.3125 256.48046875 C-27.01046649 258.00591783 -29.58202602 259.65364204 -32.16918945 261.35717773 C-37.92363099 265.14563991 -43.51680023 268.60424745 -50 271 C-50.90274658 271.33378662 -50.90274658 271.33378662 -51.82373047 271.67431641 C-56.18542119 273.2752327 -60.56713972 274.8090653 -64.96630859 276.30371094 C-66.69820462 276.89667222 -68.42228672 277.51237658 -70.14453125 278.1328125 C-104.12266166 289.68628656 -145.31020485 288.26703286 -177.94897461 272.90161133 C-180.06012018 271.97357174 -182.16581881 271.28138874 -184.375 270.625 C-193.53933657 267.66618278 -204.54122467 262.188163 -210 254 C-209.7962271 251.28302802 -209.31210733 249.50283958 -207.875 247.1875 C-204.71365615 245.18531556 -202.68105088 245.4656539 -199 246 C-196.67036569 247.33554175 -194.54547685 248.85233318 -192.3671875 250.421875 C-189.32263653 252.45157565 -186.22090253 253.66182522 -182.8046875 254.93359375 C-179.46545248 256.20324718 -176.21016641 257.63026857 -172.9375 259.0625 C-135.23876641 275.23070686 -95.24075533 272.60095082 -57.79296875 257.6484375 C-54.67454495 256.35074139 -51.87852416 254.77289813 -49 253 C-47.30770678 252.25415648 -45.59891043 251.54453096 -43.875 250.875 C-42.60269531 250.37613281 -42.60269531 250.37613281 -41.3046875 249.8671875 C-39.55020767 249.20702729 -37.77837281 248.59279094 -36 248 C-36 247.34 -36 246.68 -36 246 C-34.31874988 244.80457522 -32.57751917 243.69287157 -30.8125 242.625 C-27.79947527 240.79379086 -24.99990139 238.99991982 -22.26171875 236.7734375 C-20 235 -20 235 -18 235 C-17.74734375 234.40832031 -17.4946875 233.81664062 -17.234375 233.20703125 C-15.85451102 230.73986939 -14.43638893 229.46288171 -12.25 227.6875 C-8.82569113 224.81108055 -5.98856968 221.79552851 -3.2265625 218.28515625 C-2.82179688 217.86105469 -2.41703125 217.43695313 -2 217 C-1.34 217 -0.68 217 0 217 C0.24621094 216.29230469 0.49242187 215.58460938 0.74609375 214.85546875 C2.16098612 211.63339299 3.9497531 209.12310522 6.0625 206.3125 C8.75920044 202.79692983 8.75920044 202.79692983 11 199 C11.66 199 12.32 199 13 199 C13.28101563 198.29488281 13.56203125 197.58976563 13.8515625 196.86328125 C15.01362254 193.96603631 16.18701893 191.07421832 17.375 188.1875 C17.77460938 187.21167969 18.17421875 186.23585938 18.5859375 185.23046875 C19.64579235 182.80919813 20.75881676 180.5052659 21.97265625 178.1640625 C24.09796584 173.96097261 25.62322879 169.66523265 27.0625 165.1875 C27.31999023 164.3934375 27.57748047 163.599375 27.84277344 162.78125 C28.34665381 161.21532519 28.8466548 159.64814539 29.34228516 158.07958984 C29.8768948 156.38923908 30.42646173 154.7036243 30.98046875 153.01953125 C40.73060004 121.09651257 35.1413458 82.80936561 20.3125 53.375 C19.93738281 52.68148437 19.56226563 51.98796875 19.17578125 51.2734375 C18 49 18 49 16.73046875 45.76953125 C14.79376284 41.18392336 11.91416441 37.32123583 9 33.3125 C8.46632813 32.56677734 7.93265625 31.82105469 7.3828125 31.05273438 C5.40437436 28.2942404 3.43172683 25.54525639 1.32421875 22.88354492 C0 21 0 21 0 19 C-0.99 18.67 -1.98 18.34 -3 18 C-6.61194261 14.32618257 -9.6491964 10.72212676 -10.6875 5.625 C-10 3 -10 3 -8.375 1.125 C-5.10825804 -0.42240409 -3.59715541 -0.69176066 0 0 Z " fill="#050301" transform="translate(373,138)"/>
<path d="M0 0 C3.98381075 2.16264012 6.88983545 4.71211176 10 8 C9.34 9.65 8.68 11.3 8 13 C6.66666667 11.33333333 5.33333333 9.66666667 4 8 C3.2575 7.13375 2.515 6.2675 1.75 5.375 C0 3 0 3 0 0 Z " fill="#FCB238" transform="translate(355,132)"/>
</svg>
