<?xml version="1.0" encoding="UTF-8" standalone="no"?><!DOCTYPE svg PUBLIC "-//W3C//DTD SVG 1.1//EN" "http://www.w3.org/Graphics/SVG/1.1/DTD/svg11.dtd"><svg width="100%" height="100%" viewBox="0 0 512 512" version="1.1" xmlns="http://www.w3.org/2000/svg" xmlns:xlink="http://www.w3.org/1999/xlink" xml:space="preserve" xmlns:serif="http://www.serif.com/" style="fill-rule:evenodd;clip-rule:evenodd;stroke-linecap:round;stroke-linejoin:round;stroke-miterlimit:1.5;"><g id="dom"><path d="M499.501,125.942c-0,-36.257 -29.435,-65.692 -65.691,-65.692l-355.62,0c-36.256,0 -65.691,29.435 -65.691,65.692l0,306.559c0,36.257 29.435,65.692 65.691,65.692l355.62,-0c36.256,-0 65.691,-29.435 65.691,-65.692l-0,-306.559Z" style="fill:#f2f2f2;"/><clipPath id="_clip1"><path d="M499.501,125.942c-0,-36.257 -29.435,-65.692 -65.691,-65.692l-355.62,0c-36.256,0 -65.691,29.435 -65.691,65.692l0,306.559c0,36.257 29.435,65.692 65.691,65.692l355.62,-0c36.256,-0 65.691,-29.435 65.691,-65.692l-0,-306.559Z"/></clipPath><g clip-path="url(#_clip1)"><rect x="-7.843" y="28.541" width="534.24" height="156.75" style="fill:#d45555;stroke:#000;stroke-width:5px;"/></g><path d="M499.501,125.942c-0,-36.257 -29.435,-65.692 -65.691,-65.692l-355.62,0c-36.256,0 -65.691,29.435 -65.691,65.692l0,306.559c0,36.257 29.435,65.692 65.691,65.692l355.62,-0c36.256,-0 65.691,-29.435 65.691,-65.692l-0,-306.559Z" style="fill:none;stroke:#000;stroke-width:5px;"/><path d="M167.779,42.222c-0,-15.682 -12.733,-28.415 -28.415,-28.415c-15.683,0 -28.415,12.733 -28.415,28.415l-0,44.648c-0,15.683 12.732,28.415 28.415,28.415c15.682,0 28.415,-12.732 28.415,-28.415l-0,-44.648Z" style="fill:#e6e6e6;stroke:#000;stroke-width:5px;"/><path d="M401.563,42.222c-0,-15.682 -12.733,-28.415 -28.415,-28.415c-15.683,0 -28.416,12.733 -28.416,28.415l0,44.648c0,15.683 12.733,28.415 28.416,28.415c15.682,0 28.415,-12.732 28.415,-28.415l-0,-44.648Z" style="fill:#e6e6e6;stroke:#000;stroke-width:5px;"/><text x="26.494px" y="433.512px" style="font-family:'Impact', sans-serif;font-stretch:condensed;font-size:260px;">D<tspan x="163.705px 299.266px " y="433.512px 433.512px ">OM</tspan></text></g></svg>